<?xml version="1.0" encoding="UTF-8" standalone="no"?>
<!DOCTYPE svg PUBLIC "-//W3C//DTD SVG 20010904//EN"
              "http://www.w3.org/TR/2001/REC-SVG-20010904/DTD/svg10.dtd">

<svg xmlns="http://www.w3.org/2000/svg"
     width="242.128mm" height="223.34mm"
     viewBox="0 0 915 844">
  <path id="Selection"
        fill="none" stroke="black" stroke-width="1"
        d="M 62.00,457.00
           C 53.11,426.33 47.24,394.34 41.20,363.00
             33.34,322.28 26.96,281.25 22.83,240.00
             22.83,240.00 20.00,211.00 20.00,211.00
             20.00,211.00 20.00,202.00 20.00,202.00
             20.00,202.00 19.00,190.00 19.00,190.00
             19.00,190.00 19.00,146.00 19.00,146.00
             19.02,133.30 21.69,113.61 24.20,101.00
             27.70,83.42 34.97,64.80 48.04,52.09
             67.22,33.43 90.93,31.34 116.00,28.83
             116.00,28.83 160.00,24.17 160.00,24.17
             160.00,24.17 202.00,20.28 202.00,20.28
             202.00,20.28 221.00,18.83 221.00,18.83
             221.00,18.83 272.00,14.91 272.00,14.91
             272.00,14.91 293.00,13.00 293.00,13.00
             293.00,13.00 302.00,13.00 302.00,13.00
             302.00,13.00 314.00,12.00 314.00,12.00
             314.00,12.00 336.00,11.00 336.00,11.00
             336.00,11.00 351.00,10.00 351.00,10.00
             351.00,10.00 387.00,9.00 387.00,9.00
             387.00,9.00 404.00,8.00 404.00,8.00
             404.00,8.00 512.00,8.00 512.00,8.00
             512.00,8.00 527.00,9.00 527.00,9.00
             527.00,9.00 561.00,10.00 561.00,10.00
             561.00,10.00 577.00,11.00 577.00,11.00
             577.00,11.00 596.00,12.00 596.00,12.00
             596.00,12.00 610.00,13.00 610.00,13.00
             610.00,13.00 619.00,13.00 619.00,13.00
             619.00,13.00 641.00,14.91 641.00,14.91
             641.00,14.91 704.00,19.72 704.00,19.72
             704.00,19.72 723.00,21.17 723.00,21.17
             723.00,21.17 777.00,26.84 777.00,26.84
             790.00,28.23 811.57,29.97 823.00,35.32
             839.69,43.13 852.93,58.30 861.99,74.00
             866.71,82.18 871.16,94.75 873.35,104.00
             877.27,120.60 877.19,133.21 877.00,150.00
             876.79,168.04 870.27,202.88 864.31,220.00
             855.93,244.03 849.11,251.14 844.43,279.00
             844.43,279.00 839.83,327.00 839.83,327.00
             839.83,327.00 833.17,403.00 833.17,403.00
             833.17,403.00 829.00,450.00 829.00,450.00
             836.46,453.97 835.11,455.94 844.00,456.00
             849.09,456.03 865.21,454.62 868.26,458.31
             870.29,460.77 870.00,464.97 869.86,468.00
             869.86,468.00 869.86,531.00 869.86,531.00
             870.00,533.11 870.08,535.98 869.86,538.00
             869.86,538.00 856.78,562.00 856.78,562.00
             850.13,576.09 844.02,596.38 844.00,612.00
             844.00,612.00 844.00,666.00 844.00,666.00
             844.00,666.00 843.00,681.00 843.00,681.00
             843.00,681.00 843.00,697.00 843.00,697.00
             843.00,697.00 842.00,707.00 842.00,707.00
             842.00,707.00 842.00,716.00 842.00,716.00
             840.79,732.42 838.68,749.02 834.63,765.00
             833.31,770.18 829.42,783.03 824.79,785.69
             822.17,787.19 817.97,787.00 815.00,787.00
             815.00,787.00 735.00,787.00 735.00,787.00
             732.04,787.00 727.82,787.19 725.21,785.69
             720.73,783.11 718.39,771.02 717.13,766.00
             712.93,749.30 708.03,724.02 708.00,707.00
             708.00,707.00 708.00,644.00 708.00,644.00
             708.00,620.78 709.07,605.93 701.98,583.00
             696.11,564.05 689.01,547.15 678.99,530.00
             678.99,530.00 663.51,505.00 663.51,505.00
             662.91,502.96 663.00,500.14 663.00,498.00
             663.00,498.00 663.00,466.00 663.00,466.00
             663.01,463.43 662.78,459.69 664.74,457.74
             666.82,455.65 671.24,456.00 674.00,456.00
             674.00,456.00 701.00,456.00 701.00,456.00
             701.00,456.00 700.00,435.00 700.00,435.00
             700.00,435.00 699.00,422.00 699.00,422.00
             699.00,422.00 699.00,413.00 699.00,413.00
             699.00,413.00 697.09,392.00 697.09,392.00
             695.20,364.46 693.23,336.98 686.77,310.00
             683.18,295.04 675.31,273.48 659.00,268.79
             655.91,267.90 653.17,268.00 650.00,268.00
             650.00,268.00 630.00,268.00 630.00,268.00
             630.00,268.00 614.00,269.00 614.00,269.00
             614.00,269.00 589.00,269.00 589.00,269.00
             589.00,269.00 573.00,270.00 573.00,270.00
             570.62,270.03 567.56,269.77 565.73,271.60
             563.52,273.82 562.21,284.51 561.58,288.00
             561.58,288.00 555.08,322.00 555.08,322.00
             554.44,325.80 553.61,333.70 550.57,336.15
             547.51,338.61 539.92,338.00 536.00,338.00
             536.00,338.00 536.00,392.00 536.00,392.00
             538.83,392.03 542.37,391.83 544.69,393.74
             547.41,395.98 546.99,399.84 547.00,403.00
             547.00,403.00 547.00,420.00 547.00,420.00
             564.67,422.34 579.39,428.63 593.00,440.30
             596.67,443.44 603.79,450.17 604.68,455.00
             605.50,459.45 602.52,462.85 599.87,466.00
             599.87,466.00 585.42,482.98 585.42,482.98
             583.05,485.67 580.07,489.15 576.04,488.46
             572.78,487.91 569.29,483.32 566.99,481.00
             562.11,476.09 558.85,473.67 553.00,470.06
             549.03,467.61 535.27,460.46 531.00,460.62
             526.54,460.79 526.82,463.88 517.00,463.76
             513.41,464.04 505.20,464.19 502.04,463.76
             494.74,462.01 498.86,460.02 487.00,460.00
             487.00,460.00 428.00,460.00 428.00,460.00
             414.70,460.03 420.54,463.93 407.00,464.00
             403.55,464.02 396.00,464.24 393.00,463.44
             389.13,462.40 387.34,460.14 383.00,460.15
             378.15,460.16 368.40,464.93 364.00,467.31
             355.69,471.81 350.69,475.17 344.04,482.00
             341.37,484.73 338.34,489.18 334.00,488.46
             329.46,487.71 322.15,477.67 319.08,474.00
             315.88,470.17 307.46,461.74 307.25,457.00
             306.99,451.07 314.83,443.95 319.00,440.44
             332.63,428.95 347.34,422.38 365.00,420.00
             365.00,420.00 365.00,403.00 365.00,403.00
             365.05,399.59 365.01,395.23 368.28,393.17
             370.71,391.64 376.08,392.00 379.00,392.00
             379.00,392.00 379.00,338.00 379.00,338.00
             375.43,338.00 370.25,338.36 367.27,336.15
             364.49,334.07 361.59,324.59 360.34,321.00
             360.34,321.00 347.00,282.00 347.00,282.00
             343.64,282.95 342.45,282.98 339.00,283.00
             339.00,283.00 293.00,285.91 293.00,285.91
             282.96,286.60 268.10,286.79 259.00,290.90
             238.64,300.11 229.04,322.46 225.00,343.00
             225.00,343.00 217.83,403.00 217.83,403.00
             217.83,403.00 216.09,420.00 216.09,420.00
             216.09,420.00 213.00,457.00 213.00,457.00
             213.00,457.00 240.00,457.00 240.00,457.00
             243.14,457.05 246.18,457.04 248.57,459.43
             251.36,462.22 250.99,466.38 251.00,470.00
             251.00,470.00 251.00,496.00 251.00,496.00
             250.82,510.69 241.57,522.28 235.25,535.00
             227.79,550.01 220.45,570.70 216.37,587.00
             208.29,619.33 209.00,648.14 209.00,681.00
             209.00,681.00 209.00,699.00 209.00,699.00
             209.00,699.00 208.04,711.00 208.04,711.00
             208.04,711.00 208.04,722.00 208.04,722.00
             207.88,732.15 205.81,747.83 204.08,758.00
             202.91,764.90 200.63,773.66 195.79,778.91
             189.52,785.71 182.76,786.99 174.00,787.00
             174.00,787.00 114.00,787.00 114.00,787.00
             103.53,787.00 93.60,788.28 85.09,780.67
             78.79,775.04 77.19,767.88 75.60,760.00
             73.45,749.32 72.66,738.82 71.91,728.00
             71.91,728.00 70.96,718.00 70.96,718.00
             70.96,718.00 70.96,705.00 70.96,705.00
             70.96,705.00 70.00,694.00 70.00,694.00
             70.00,694.00 70.00,674.00 70.00,674.00
             70.00,645.44 70.69,620.43 65.75,592.00
             63.90,581.31 61.11,570.12 57.19,560.00
             57.19,560.00 48.55,541.00 48.55,541.00
             46.86,536.23 46.01,526.20 46.00,521.00
             46.00,521.00 46.00,477.00 46.00,477.00
             46.00,472.20 45.09,462.98 48.51,459.43
             51.57,456.25 57.87,457.00 62.00,457.00 Z
           M 26.00,161.00
           C 26.00,161.00 357.00,161.00 357.00,161.00
             357.00,161.00 582.00,161.00 582.00,161.00
             582.00,161.00 707.00,161.00 707.00,161.00
             707.00,161.00 829.00,161.00 829.00,161.00
             829.00,161.00 861.00,161.00 861.00,161.00
             863.13,160.98 866.51,161.26 867.98,159.40
             869.05,158.05 869.97,145.39 870.00,143.00
             870.00,143.00 870.00,139.00 870.00,139.00
             870.00,139.00 869.09,129.00 869.09,129.00
             866.77,95.85 853.40,61.01 823.00,43.87
             814.05,38.83 805.88,38.01 796.00,36.72
             796.00,36.72 752.00,31.83 752.00,31.83
             752.00,31.83 646.00,22.91 646.00,22.91
             646.00,22.91 583.00,19.00 583.00,19.00
             583.00,19.00 568.00,17.96 568.00,17.96
             568.00,17.96 556.00,17.96 556.00,17.96
             556.00,17.96 544.00,16.96 544.00,16.96
             544.00,16.96 530.00,16.96 530.00,16.96
             530.00,16.96 519.00,16.00 519.00,16.00
             519.00,16.00 499.00,16.00 499.00,16.00
             499.00,16.00 482.00,15.00 482.00,15.00
             482.00,15.00 429.00,15.00 429.00,15.00
             429.00,15.00 412.00,16.00 412.00,16.00
             412.00,16.00 390.00,16.00 390.00,16.00
             390.00,16.00 378.00,16.96 378.00,16.96
             378.00,16.96 365.00,16.96 365.00,16.96
             365.00,16.96 350.00,18.00 350.00,18.00
             350.00,18.00 323.00,19.00 323.00,19.00
             323.00,19.00 313.00,20.00 313.00,20.00
             313.00,20.00 304.00,20.00 304.00,20.00
             304.00,20.00 281.00,21.91 281.00,21.91
             281.00,21.91 205.00,27.83 205.00,27.83
             205.00,27.83 114.00,36.72 114.00,36.72
             94.61,39.04 77.78,39.66 61.00,51.44
             38.33,67.36 31.94,94.07 28.85,120.00
             28.85,120.00 27.00,141.00 27.00,141.00
             27.00,141.00 26.00,161.00 26.00,161.00 Z
           M 868.00,167.00
           C 868.00,167.00 26.00,167.00 26.00,167.00
             26.00,167.00 27.00,198.00 27.00,198.00
             27.00,198.00 27.91,208.00 27.91,208.00
             30.09,239.90 33.66,271.36 38.58,303.00
             43.35,333.73 48.49,364.66 55.35,395.00
             55.35,395.00 66.88,446.00 66.88,446.00
             67.73,449.23 70.17,460.32 72.51,461.98
             74.27,463.23 77.87,463.00 80.00,463.00
             80.00,463.00 115.00,463.00 115.00,463.00
             117.02,463.00 120.78,463.24 122.41,461.98
             124.55,460.32 123.62,457.30 126.65,453.02
             131.97,445.50 141.29,442.82 148.98,448.57
             150.97,450.05 152.70,451.89 154.00,454.00
             155.69,456.76 156.36,459.88 157.00,463.00
             157.00,463.00 197.00,463.00 197.00,463.00
             199.30,463.00 203.26,463.41 204.83,461.43
             206.51,459.28 205.88,452.03 206.17,449.00
             206.17,449.00 208.96,416.00 208.96,416.00
             210.28,388.77 215.01,352.78 220.40,326.00
             224.69,304.69 229.47,283.60 239.27,264.00
             243.49,255.56 248.71,247.53 254.37,240.00
             256.77,236.81 260.12,232.13 263.83,230.50
             269.70,227.91 274.53,234.38 278.04,238.00
             280.33,240.38 283.54,243.41 285.44,246.00
             286.84,247.90 288.43,250.54 288.23,253.00
             287.55,261.50 272.81,266.25 266.00,268.28
             255.04,271.55 240.56,273.84 233.70,284.00
             231.28,287.59 229.26,295.62 228.00,300.00
             226.66,304.66 224.27,310.26 226.00,315.00
             231.62,302.43 243.21,289.37 256.00,283.88
             265.61,279.75 275.82,279.81 286.00,278.83
             286.00,278.83 314.00,276.91 314.00,276.91
             314.00,276.91 324.00,276.00 324.00,276.00
             324.00,276.00 343.00,275.00 343.00,275.00
             355.03,274.98 360.64,271.55 372.00,268.29
             372.00,268.29 411.00,259.00 411.00,259.00
             423.49,256.54 441.39,254.02 454.00,254.00
             454.00,254.00 465.00,253.34 465.00,253.34
             465.00,253.34 472.00,253.98 472.00,253.98
             472.00,253.98 490.00,253.98 490.00,253.98
             490.00,253.98 500.00,254.91 500.00,254.91
             500.00,254.91 541.00,259.13 541.00,259.13
             549.22,260.28 555.53,261.99 564.00,262.00
             564.00,262.00 590.00,262.00 590.00,262.00
             590.00,262.00 605.00,261.00 605.00,261.00
             605.00,261.00 627.00,261.00 627.00,261.00
             627.00,261.00 644.00,260.00 644.00,260.00
             644.00,260.00 669.00,260.00 669.00,260.00
             669.00,260.00 681.00,259.09 681.00,259.09
             711.17,257.02 741.76,253.55 771.00,245.42
             795.31,238.67 816.96,231.50 838.00,216.98
             846.88,210.84 857.65,201.58 862.81,192.00
             865.68,186.69 866.82,173.55 868.00,167.00 Z
           M 863.00,196.00
           C 863.00,196.00 862.00,196.00 862.00,196.00
             862.00,196.00 863.00,197.00 863.00,197.00
             863.00,197.00 863.00,196.00 863.00,196.00 Z
           M 862.00,197.00
           C 850.61,206.94 848.47,211.99 834.00,221.31
             803.80,240.76 766.04,249.71 731.00,255.59
             731.00,255.59 687.00,260.83 687.00,260.83
             681.71,261.34 670.72,261.13 666.00,263.00
             685.38,272.98 691.21,295.40 695.65,315.00
             702.91,347.09 704.65,385.96 706.91,419.00
             706.91,419.00 709.00,452.00 709.00,452.00
             709.00,452.00 813.00,452.00 813.00,452.00
             815.30,452.00 819.41,452.38 820.98,450.40
             822.18,448.88 822.91,435.71 823.04,433.00
             823.04,433.00 824.83,414.00 824.83,414.00
             824.83,414.00 826.42,394.00 826.42,394.00
             826.42,394.00 828.17,372.00 828.17,372.00
             830.56,347.04 833.78,291.93 838.21,271.00
             840.95,258.05 844.07,249.12 849.28,237.00
             853.79,226.52 861.48,208.13 862.00,197.00 Z
           M 660.00,211.31
           C 662.15,211.17 663.80,210.91 666.00,211.31
             678.47,212.77 674.16,226.91 674.58,235.00
             674.45,238.93 676.77,242.17 674.58,245.90
             671.40,252.38 659.43,252.99 653.00,253.00
             647.44,253.01 633.23,254.27 629.75,249.70
             624.66,243.00 635.40,238.66 638.61,234.90
             643.44,229.24 641.60,222.05 646.64,216.48
             650.19,212.55 655.11,212.23 660.00,211.31 Z
           M 659.00,213.30
           C 654.31,214.08 649.68,214.90 646.73,219.10
             643.71,223.43 645.05,230.04 640.36,235.82
             637.24,239.67 628.68,242.65 631.13,247.78
             633.40,252.52 649.14,251.01 654.00,251.00
             659.53,250.99 668.82,250.74 672.63,245.79
             674.59,242.73 672.86,237.82 672.63,234.00
             672.88,227.53 675.21,215.43 666.98,213.30
             664.78,212.75 661.28,213.07 659.00,213.30 Z
           M 235.00,279.00
           C 241.96,275.11 243.96,273.22 252.00,270.52
             252.00,270.52 277.00,262.68 277.00,262.68
             281.65,260.50 287.55,257.09 286.34,251.00
             285.73,247.93 283.22,245.32 281.27,243.00
             276.85,237.77 269.69,228.13 262.04,233.52
             258.88,235.75 253.94,242.63 251.67,246.00
             245.91,254.54 237.78,269.18 235.00,279.00 Z
           M 557.00,271.00
           C 557.36,268.87 558.35,265.79 556.41,264.17
             554.88,262.88 547.33,261.96 545.00,261.59
             545.00,261.59 513.00,257.83 513.00,257.83
             513.00,257.83 481.00,256.00 481.00,256.00
             481.00,256.00 464.00,255.01 464.00,255.01
             464.00,255.01 449.00,256.00 449.00,256.00
             434.62,256.07 405.39,261.53 391.00,265.13
             391.00,265.13 364.00,272.58 364.00,272.58
             361.36,273.35 355.70,274.31 354.78,277.27
             354.25,278.97 355.58,283.11 356.00,285.00
             356.00,285.00 387.00,276.15 387.00,276.15
             403.88,271.58 438.96,265.03 456.00,265.00
             456.00,265.00 491.00,265.00 491.00,265.00
             491.00,265.00 503.00,266.04 503.00,266.04
             503.00,266.04 512.00,266.04 512.00,266.04
             512.00,266.04 534.00,268.28 534.00,268.28
             534.00,268.28 557.00,271.00 557.00,271.00 Z
           M 556.00,273.00
           C 556.00,273.00 524.00,269.17 524.00,269.17
             524.00,269.17 504.00,267.91 504.00,267.91
             504.00,267.91 492.00,267.00 492.00,267.00
             492.00,267.00 454.00,267.00 454.00,267.00
             441.36,267.02 417.84,271.19 405.00,273.80
             405.00,273.80 370.00,282.72 370.00,282.72
             367.12,283.59 359.76,285.31 358.69,288.27
             357.84,290.62 359.87,295.62 360.67,298.00
             360.67,298.00 368.00,319.00 368.00,319.00
             368.75,321.23 370.34,326.88 371.84,328.40
             373.77,330.37 377.44,329.99 380.00,330.00
             380.00,330.00 546.00,330.00 546.00,330.00
             546.00,330.00 556.00,273.00 556.00,273.00 Z
           M 529.00,332.00
           C 529.00,332.00 387.00,332.00 387.00,332.00
             387.00,332.00 387.00,398.00 387.00,398.00
             387.00,398.00 450.00,398.00 450.00,398.00
             450.00,398.00 449.00,424.00 449.00,424.00
             449.00,424.00 448.00,400.00 448.00,400.00
             448.00,400.00 438.00,400.00 438.00,400.00
             438.00,400.00 438.00,418.00 438.00,418.00
             438.00,418.00 439.60,423.98 439.60,423.98
             439.60,423.98 447.00,425.00 447.00,425.00
             447.00,425.00 461.00,425.00 461.00,425.00
             461.00,425.00 466.40,423.98 466.40,423.98
             466.40,423.98 468.00,417.00 468.00,417.00
             468.00,417.00 468.00,398.00 468.00,398.00
             468.00,398.00 529.00,398.00 529.00,398.00
             529.00,398.00 529.00,332.00 529.00,332.00 Z
           M 402.00,400.00
           C 402.00,400.00 373.00,400.00 373.00,400.00
             373.00,400.00 373.00,425.00 373.00,425.00
             373.00,425.00 402.00,425.00 402.00,425.00
             402.00,425.00 402.00,400.00 402.00,400.00 Z
           M 417.00,400.00
           C 417.00,400.00 404.00,400.00 404.00,400.00
             404.00,400.00 404.00,425.00 404.00,425.00
             404.00,425.00 417.00,425.00 417.00,425.00
             417.00,425.00 417.00,400.00 417.00,400.00 Z
           M 436.00,400.00
           C 436.00,400.00 419.00,400.00 419.00,400.00
             419.00,400.00 419.00,425.00 419.00,425.00
             419.00,425.00 436.00,425.00 436.00,425.00
             436.00,425.00 436.00,400.00 436.00,400.00 Z
           M 478.00,400.00
           C 478.00,400.00 470.00,400.00 470.00,400.00
             470.00,400.00 470.00,425.00 470.00,425.00
             470.00,425.00 505.00,425.00 505.00,425.00
             505.00,425.00 512.98,423.40 512.98,423.40
             512.98,423.40 514.00,416.00 514.00,416.00
             514.00,416.00 515.00,401.00 515.00,401.00
             515.00,401.00 515.00,418.00 515.00,418.00
             515.00,418.00 516.02,423.40 516.02,423.40
             516.02,423.40 524.00,425.00 524.00,425.00
             524.00,425.00 541.00,425.00 541.00,425.00
             541.00,425.00 540.00,400.00 540.00,400.00
             540.00,400.00 501.00,400.00 501.00,400.00
             501.00,400.00 501.00,424.00 501.00,424.00
             501.00,424.00 499.00,424.00 499.00,424.00
             499.00,424.00 499.00,400.00 499.00,400.00
             499.00,400.00 480.00,400.00 480.00,400.00
             480.00,400.00 479.00,424.00 479.00,424.00
             479.00,424.00 478.00,400.00 478.00,400.00 Z
           M 578.00,480.00
           C 578.00,480.00 589.87,466.00 589.87,466.00
             591.32,464.31 595.23,459.91 595.85,458.00
             597.35,453.33 588.32,446.28 585.00,443.67
             571.56,433.08 555.15,427.03 538.00,427.00
             538.00,427.00 374.00,427.00 374.00,427.00
             357.57,427.03 341.04,432.98 328.00,442.90
             324.98,445.20 316.39,452.30 316.03,456.00
             315.76,458.74 318.94,462.01 320.59,464.00
             324.35,468.52 330.75,476.49 335.00,480.00
             347.55,467.46 366.44,453.03 385.00,453.00
             385.00,453.00 434.00,453.00 434.00,453.00
             434.00,453.00 527.00,453.00 527.00,453.00
             540.68,453.02 555.51,461.41 566.00,469.81
             566.00,469.81 578.00,480.00 578.00,480.00 Z
           M 138.00,447.34
           C 127.27,449.95 125.12,456.99 125.00,467.00
             125.00,467.00 125.00,580.00 125.00,580.00
             125.01,585.31 125.17,591.45 128.65,595.85
             134.02,602.55 146.00,602.74 151.35,595.85
             154.87,591.40 154.99,586.40 155.00,581.00
             155.00,581.00 155.00,466.00 155.00,466.00
             154.87,455.10 150.17,446.54 138.00,447.34 Z
           M 831.00,462.00
           C 824.76,450.97 809.86,454.00 799.00,454.00
             799.00,454.00 709.00,454.00 709.00,454.00
             709.00,454.00 709.00,462.00 709.00,462.00
             709.00,462.00 831.00,462.00 831.00,462.00 Z
           M 414.00,455.00
           C 414.00,455.00 393.00,456.00 393.00,456.00
             393.00,456.00 414.00,455.00 414.00,455.00 Z
           M 523.00,455.00
           C 523.00,455.00 502.00,456.00 502.00,456.00
             502.00,456.00 523.00,455.00 523.00,455.00 Z
           M 702.00,464.00
           C 702.00,464.00 670.00,464.00 670.00,464.00
             670.00,464.00 670.00,494.00 670.00,494.00
             670.00,496.59 669.87,499.53 670.70,502.00
             670.70,502.00 686.00,527.00 686.00,527.00
             694.65,542.14 708.61,572.03 711.00,589.00
             711.00,589.00 716.00,589.00 716.00,589.00
             716.00,589.00 716.00,551.00 716.00,551.00
             716.00,551.00 702.00,551.00 702.00,551.00
             702.00,551.00 702.00,464.00 702.00,464.00 Z
           M 741.00,464.00
           C 741.00,464.00 704.00,464.00 704.00,464.00
             704.00,464.00 704.00,549.00 704.00,549.00
             704.00,549.00 741.00,549.00 741.00,549.00
             741.00,549.00 741.00,464.00 741.00,464.00 Z
           M 809.00,464.00
           C 809.00,464.00 743.00,464.00 743.00,464.00
             743.00,464.00 743.00,541.00 743.00,541.00
             743.00,541.00 740.00,559.00 740.00,559.00
             740.00,559.00 740.00,591.00 740.00,591.00
             740.00,591.00 712.00,591.00 712.00,591.00
             713.25,597.62 714.92,604.23 715.00,611.00
             715.00,611.00 715.00,643.00 715.00,643.00
             715.00,673.56 713.73,704.75 718.42,735.00
             718.42,735.00 725.29,767.00 725.29,767.00
             726.05,769.64 727.44,776.42 729.56,777.98
             731.50,779.41 737.48,779.00 740.00,779.00
             740.00,779.00 731.52,751.00 731.52,751.00
             730.62,746.34 732.36,742.34 737.00,740.60
             738.90,739.89 741.94,740.00 744.00,740.00
             744.00,740.00 798.00,740.00 798.00,740.00
             804.47,740.00 813.39,738.33 817.06,745.02
             819.12,748.78 817.47,753.20 816.42,757.00
             816.42,757.00 811.00,779.00 811.00,779.00
             813.58,779.00 818.48,779.35 820.61,777.98
             823.17,776.33 825.32,769.92 826.25,767.00
             829.47,756.97 830.92,745.42 832.42,735.00
             832.42,735.00 835.00,703.00 835.00,703.00
             835.00,703.00 836.00,681.00 836.00,681.00
             836.00,681.00 836.00,644.00 836.00,644.00
             836.00,626.85 834.81,607.62 839.00,591.00
             839.00,591.00 809.00,591.00 809.00,591.00
             810.44,601.92 811.33,610.18 805.12,620.00
             795.58,635.10 791.02,627.13 791.00,641.00
             791.00,641.00 791.00,671.00 791.00,671.00
             791.00,677.05 791.80,682.58 788.52,687.99
             781.49,699.57 768.05,698.97 760.70,687.99
             757.86,683.76 758.01,679.84 758.00,675.00
             758.00,675.00 758.00,640.00 758.00,640.00
             757.98,627.81 754.19,631.39 746.79,621.00
             742.67,615.22 740.76,608.06 741.04,601.00
             741.34,593.34 744.38,585.86 749.33,580.01
             751.75,577.14 756.19,574.12 757.40,570.96
             759.92,564.42 754.26,553.31 763.19,544.11
             771.42,535.62 784.44,538.56 789.43,549.00
             791.62,553.58 790.91,559.96 791.00,565.00
             791.16,573.53 794.18,571.75 800.83,579.01
             800.83,579.01 809.00,590.00 809.00,590.00
             809.00,590.00 809.00,464.00 809.00,464.00 Z
           M 848.00,464.00
           C 848.00,464.00 811.00,464.00 811.00,464.00
             811.00,464.00 811.00,545.00 811.00,545.00
             811.00,545.00 848.00,545.00 848.00,545.00
             848.00,545.00 848.00,464.00 848.00,464.00 Z
           M 862.00,464.00
           C 862.00,464.00 850.00,464.00 850.00,464.00
             850.00,464.00 850.00,547.00 850.00,547.00
             850.00,547.00 836.00,547.00 836.00,547.00
             836.00,547.00 836.00,589.00 836.00,589.00
             840.88,587.31 840.34,584.61 841.72,580.00
             841.72,580.00 848.86,561.00 848.86,561.00
             848.86,561.00 861.49,537.00 861.49,537.00
             862.09,534.91 862.00,532.19 862.00,530.00
             862.00,530.00 862.00,464.00 862.00,464.00 Z
           M 123.00,479.00
           C 123.00,479.00 67.00,465.00 67.00,465.00
             67.00,465.00 54.00,465.00 54.00,465.00
             54.00,465.00 54.00,525.00 54.00,525.00
             54.02,540.16 61.65,549.08 66.33,563.00
             72.04,579.96 76.92,606.14 77.00,624.00
             77.00,624.00 77.00,642.00 77.00,642.00
             77.00,642.00 78.00,658.00 78.00,658.00
             78.00,658.00 78.00,704.00 78.00,704.00
             78.00,704.00 79.00,724.00 79.00,724.00
             79.11,732.90 81.42,750.08 83.20,759.00
             84.51,765.56 85.39,771.02 91.04,775.44
             96.44,779.67 101.61,779.00 108.00,779.00
             108.00,779.00 98.42,748.00 98.42,748.00
             97.37,744.40 94.94,738.51 96.41,735.02
             98.54,729.92 103.11,729.07 108.00,729.00
             108.00,729.00 169.00,729.00 169.00,729.00
             174.46,729.01 179.93,728.90 182.26,735.02
             183.81,739.07 181.54,744.97 180.42,749.00
             180.42,749.00 173.00,779.00 173.00,779.00
             176.45,779.00 180.80,779.29 184.00,777.99
             194.10,773.90 195.92,761.45 197.41,752.00
             200.65,731.45 200.76,710.74 201.00,690.00
             201.00,690.00 202.00,675.00 202.00,675.00
             202.06,635.77 200.28,615.08 211.43,576.00
             216.13,559.52 222.59,543.31 230.25,528.00
             236.18,516.13 242.98,509.43 243.00,496.00
             243.00,496.00 243.00,465.00 243.00,465.00
             243.00,465.00 212.00,465.00 212.00,465.00
             196.07,465.02 173.45,476.46 157.00,479.00
             157.00,479.00 157.00,503.00 157.00,503.00
             157.07,512.90 160.22,510.90 166.47,519.00
             170.83,524.65 173.92,532.82 173.92,540.00
             173.92,546.94 170.96,554.54 166.76,559.99
             160.21,568.47 157.16,566.32 157.00,575.00
             156.90,580.73 157.46,587.70 154.88,593.00
             150.01,603.00 137.78,606.28 129.33,598.47
             123.01,592.63 123.05,584.84 123.00,577.00
             122.94,567.34 120.83,571.07 112.21,561.00
             107.68,555.71 104.09,547.03 104.08,540.00
             104.07,532.41 107.50,523.79 112.33,518.00
             119.16,509.82 122.83,512.03 123.00,503.00
             123.00,503.00 123.00,479.00 123.00,479.00 Z
           M 123.00,465.00
           C 123.00,465.00 95.00,465.00 95.00,465.00
             95.00,465.00 80.00,466.00 80.00,466.00
             80.00,466.00 123.00,477.00 123.00,477.00
             123.00,477.00 123.00,465.00 123.00,465.00 Z
           M 197.00,465.00
           C 197.00,465.00 157.00,465.00 157.00,465.00
             157.00,465.00 157.00,477.00 157.00,477.00
             157.00,477.00 179.00,471.14 179.00,471.14
             179.00,471.14 197.00,465.00 197.00,465.00 Z
           M 123.00,511.00
           C 98.79,524.00 102.35,559.18 123.00,568.00
             123.00,568.00 123.00,511.00 123.00,511.00 Z
           M 158.00,512.00
           C 158.00,512.00 157.00,530.00 157.00,530.00
             157.00,530.00 157.00,567.00 157.00,567.00
             170.58,559.05 175.28,541.33 169.52,527.00
             166.97,520.65 162.71,516.73 158.00,512.00 Z
           M 771.00,541.39
           C 756.45,546.09 760.00,562.91 760.00,575.00
             760.00,575.00 760.00,676.00 760.00,676.00
             760.01,680.78 759.85,684.82 762.85,688.90
             768.60,696.73 780.57,696.60 786.35,688.90
             789.22,685.08 788.99,681.50 789.00,677.00
             789.00,677.00 789.00,558.00 789.00,558.00
             788.94,546.20 783.16,539.77 771.00,541.39 Z
           M 834.00,547.00
           C 834.00,547.00 811.00,547.00 811.00,547.00
             811.00,547.00 811.00,589.00 811.00,589.00
             811.00,589.00 834.00,589.00 834.00,589.00
             834.00,589.00 834.00,547.00 834.00,547.00 Z
           M 738.00,551.00
           C 738.00,551.00 718.00,551.00 718.00,551.00
             718.00,551.00 718.00,589.00 718.00,589.00
             718.00,589.00 738.00,589.00 738.00,589.00
             738.00,589.00 738.00,551.00 738.00,551.00 Z
           M 791.00,631.00
           C 816.42,618.52 811.69,581.05 791.00,574.00
             791.00,574.00 791.00,631.00 791.00,631.00 Z
           M 758.00,575.00
           C 739.25,583.87 736.37,616.23 758.00,630.00
             758.00,630.00 758.00,575.00 758.00,575.00 Z
           M 171.00,779.00
           C 171.00,779.00 179.15,747.00 179.15,747.00
             181.66,737.69 183.43,731.08 171.00,731.00
             171.00,731.00 109.00,731.00 109.00,731.00
             106.57,731.00 103.27,730.81 101.11,732.02
             97.47,734.07 97.12,737.32 98.05,741.00
             98.05,741.00 104.98,763.00 104.98,763.00
             105.93,766.06 108.25,775.43 110.08,777.43
             111.90,779.42 115.52,779.00 118.00,779.00
             118.00,779.00 171.00,779.00 171.00,779.00 Z
           M 737.06,742.60
           C 735.57,743.51 735.05,743.40 734.02,745.15
             731.27,749.84 737.03,762.71 738.58,768.00
             739.33,770.58 740.57,776.41 742.70,778.01
             744.37,779.26 747.96,779.00 750.00,779.00
             750.00,779.00 801.00,779.00 801.00,779.00
             803.00,779.00 806.67,779.26 808.28,778.01
             810.34,776.40 811.92,767.81 812.71,765.00
             814.01,759.45 819.61,745.83 812.71,742.74
             810.85,741.86 807.17,742.00 805.00,742.00
             805.00,742.00 761.00,742.00 761.00,742.00
             754.94,742.00 742.34,741.44 737.06,742.60 Z" />
</svg>
