<?xml version="1.0" encoding="utf-8"?>
<!-- Generator: Adobe Illustrator 24.1.2, SVG Export Plug-In . SVG Version: 6.00 Build 0)  -->
<svg version="1.0" id="Layer_2" xmlns="http://www.w3.org/2000/svg" xmlns:xlink="http://www.w3.org/1999/xlink" x="0px" y="0px"
	 width="156px" height="156px" viewBox="0 0 156 156" style="enable-background:new 0 0 156 156;" xml:space="preserve">
<style type="text/css">
	.st0{fill:none;stroke:#000000;stroke-width:4;stroke-miterlimit:10;}
	.st1{fill:none;stroke:#000000;stroke-width:2;stroke-miterlimit:10;}
</style>
<g>
	<path class="st0" d="M23.41,67.01c0,0,19.64-35.91,59.29-35.16c39.65,0.75,60.79,31.42,60.79,35.16c0,3.74,0,67.15,0,67.15
		l-19.08,19.45H42.49l-19.08-20.39V67.01z"/>
	<path class="st1" d="M12.51,71.96c0,0-1.08-53.03,48.49-67.62s59.9,30.89,55.95,36.58"/>
	<path class="st1" d="M124.32,80.76L84.76,58.59c0,0-9.35-4.58-6.55-10.57c2.81-5.99,10.47-2.15,13-0.84
		c2.53,1.31,40.12,20.01,40.12,20.01"/>
	<circle class="st1" cx="49.28" cy="142.87" r="5.61"/>
	<circle class="st1" cx="62.97" cy="142.87" r="5.61"/>
	<circle class="st1" cx="76.65" cy="142.87" r="5.61"/>
	<circle class="st1" cx="90.34" cy="142.87" r="5.61"/>
	<circle class="st1" cx="104.03" cy="142.87" r="5.61"/>
	<circle class="st1" cx="117.71" cy="142.87" r="5.61"/>
</g>
<g>
</g>
<g>
</g>
<g>
</g>
<g>
</g>
<g>
</g>
<g>
</g>
<g>
</g>
<g>
</g>
<g>
</g>
<g>
</g>
<g>
</g>
<g>
</g>
<g>
</g>
<g>
</g>
<g>
</g>
</svg>
