<?xml version="1.0" encoding="utf-8"?>
<!-- Generator: Adobe Illustrator 27.4.1, SVG Export Plug-In . SVG Version: 6.00 Build 0)  -->
<svg version="1.1" id="Layer_2_00000014597189547029130870000011765929681197717133_"
	 xmlns="http://www.w3.org/2000/svg" xmlns:xlink="http://www.w3.org/1999/xlink" x="0px" y="0px" viewBox="0 0 469.25 469.44"
	 style="enable-background:new 0 0 469.25 469.44;" xml:space="preserve">
<style type="text/css">
	.st0{fill:none;stroke:#000000;stroke-width:1.4173;stroke-miterlimit:10;}
</style>
<g>
	<path class="st0" d="M466.01,468.73H3.25c-1.4,0-2.54-1.14-2.54-2.54V3.44c0-1.4,1.14-2.54,2.54-2.54H466
		c1.4,0,2.54,1.14,2.54,2.54v462.75C468.55,467.6,467.41,468.73,466.01,468.73z"/>
	<path class="st0" d="M466.01,468.55H3.25c-1.4,0-2.54-1.14-2.54-2.54V3.25c0-1.4,1.14-2.54,2.54-2.54H466
		c1.4,0,2.54,1.14,2.54,2.54V466C468.55,467.41,467.41,468.55,466.01,468.55z"/>
	<path class="st0" d="M392.06,393.95H77.2c-0.95,0-1.73-0.77-1.73-1.73V77.36c0-0.95,0.77-1.73,1.73-1.73h314.86
		c0.95,0,1.73,0.77,1.73,1.73v314.86C393.79,393.17,393.01,393.95,392.06,393.95z"/>
	<path class="st0" d="M392.06,393.82H77.2c-0.95,0-1.73-0.77-1.73-1.73V77.23c0-0.95,0.77-1.73,1.73-1.73h314.86
		c0.95,0,1.73,0.77,1.73,1.73v314.86C393.79,393.05,393.01,393.82,392.06,393.82z"/>
	<circle class="st0" cx="234.63" cy="236.6" r="84.82"/>
</g>
</svg>
