<?xml version="1.0" encoding="utf-8"?>
<!-- Generator: Adobe Illustrator 26.3.1, SVG Export Plug-In . SVG Version: 6.00 Build 0)  -->
<svg version="1.1" id="Layer_1" xmlns="http://www.w3.org/2000/svg" xmlns:xlink="http://www.w3.org/1999/xlink" x="0px" y="0px"
	 viewBox="0 0 365.12 361.63" style="enable-background:new 0 0 365.12 361.63;" xml:space="preserve">
<style type="text/css">
	.st0{fill:#231F20;}
	.st1{fill:none;stroke:#231F20;stroke-width:1.4159;stroke-linecap:round;stroke-linejoin:round;stroke-miterlimit:10;}
	.st2{fill:#03A5FF;stroke:#231F20;stroke-width:1.4159;stroke-linecap:round;stroke-linejoin:round;stroke-miterlimit:10;}
	.st3{fill:#20A6FF;}
</style>
<g>
	<g>
		<path class="st0" d="M168.28,223.31c0.5,0.26,1.27,0.51,2.06,0.51c0.85,0,1.3-0.35,1.3-0.89c0-0.51-0.39-0.81-1.38-1.16
			c-1.36-0.47-2.25-1.23-2.25-2.43c0-1.4,1.17-2.47,3.11-2.47c0.93,0,1.61,0.2,2.1,0.41l-0.41,1.5c-0.33-0.16-0.91-0.39-1.72-0.39
			c-0.81,0-1.19,0.37-1.19,0.79c0,0.52,0.46,0.76,1.52,1.16c1.45,0.54,2.13,1.29,2.13,2.45c0,1.38-1.06,2.55-3.31,2.55
			c-0.94,0-1.87-0.24-2.33-0.5L168.28,223.31z"/>
		<path class="st0" d="M176.74,217.56v1.71h1.33v1.36h-1.33v2.16c0,0.72,0.17,1.05,0.73,1.05c0.23,0,0.41-0.02,0.55-0.05l0.01,1.4
			c-0.24,0.1-0.68,0.16-1.21,0.16c-0.6,0-1.1-0.21-1.39-0.51c-0.34-0.35-0.51-0.93-0.51-1.77v-2.44h-0.79v-1.36h0.79v-1.29
			L176.74,217.56z"/>
		<path class="st0" d="M182.53,225.23l-0.11-0.6h-0.04c-0.39,0.47-1,0.73-1.71,0.73c-1.21,0-1.92-0.88-1.92-1.83
			c0-1.55,1.39-2.29,3.5-2.28v-0.08c0-0.32-0.17-0.77-1.08-0.77c-0.61,0-1.26,0.21-1.64,0.45l-0.34-1.19
			c0.41-0.23,1.23-0.52,2.32-0.52c1.99,0,2.62,1.17,2.62,2.57v2.07c0,0.57,0.02,1.12,0.08,1.45H182.53z M182.31,222.41
			c-0.98-0.01-1.73,0.22-1.73,0.94c0,0.47,0.32,0.71,0.73,0.71c0.46,0,0.84-0.3,0.96-0.68c0.02-0.1,0.04-0.21,0.04-0.32V222.41z"/>
		<path class="st0" d="M187.54,217.56v1.71h1.33v1.36h-1.33v2.16c0,0.72,0.17,1.05,0.73,1.05c0.23,0,0.41-0.02,0.55-0.05l0.01,1.4
			c-0.24,0.1-0.68,0.16-1.21,0.16c-0.6,0-1.1-0.21-1.39-0.51c-0.34-0.35-0.51-0.93-0.51-1.77v-2.44h-0.79v-1.36h0.79v-1.29
			L187.54,217.56z"/>
		<path class="st0" d="M195.56,223.31c0,0.78,0.02,1.41,0.05,1.91H194l-0.08-0.84h-0.04c-0.23,0.37-0.79,0.98-1.86,0.98
			c-1.21,0-2.1-0.76-2.1-2.6v-3.5h1.86v3.21c0,0.87,0.28,1.39,0.93,1.39c0.51,0,0.81-0.35,0.93-0.65c0.05-0.11,0.06-0.26,0.06-0.4
			v-3.55h1.87V223.31z"/>
		<path class="st0" d="M197.03,223.6c0.34,0.21,1.05,0.45,1.6,0.45c0.56,0,0.79-0.19,0.79-0.5c0-0.3-0.18-0.45-0.88-0.68
			c-1.23-0.41-1.71-1.08-1.69-1.79c0-1.11,0.95-1.95,2.42-1.95c0.69,0,1.31,0.16,1.68,0.34l-0.33,1.28
			c-0.27-0.15-0.78-0.34-1.29-0.34c-0.45,0-0.71,0.18-0.71,0.49c0,0.28,0.23,0.43,0.96,0.68c1.13,0.39,1.61,0.96,1.62,1.84
			c0,1.11-0.88,1.93-2.58,1.93c-0.78,0-1.47-0.17-1.92-0.41L197.03,223.6z"/>
	</g>
	<g>
		<path class="st0" d="M111.66,243.99c-0.04-0.99-0.07-2.18-0.07-3.38h-0.04c-0.26,1.05-0.6,2.22-0.91,3.18l-1,3.21h-1.45
			l-0.88-3.18c-0.27-0.96-0.55-2.13-0.74-3.21h-0.02c-0.05,1.11-0.08,2.38-0.15,3.4l-0.15,3.12h-1.72l0.52-8.22h2.47l0.8,2.74
			c0.26,0.95,0.51,1.98,0.69,2.94h0.04c0.23-0.95,0.51-2.03,0.78-2.95l0.88-2.73h2.42l0.45,8.22h-1.82L111.66,243.99z"/>
		<path class="st0" d="M116.94,239.51c0,0.51-0.39,0.93-1,0.93c-0.58,0-0.97-0.41-0.96-0.93c-0.01-0.54,0.38-0.94,0.98-0.94
			C116.55,238.57,116.93,238.98,116.94,239.51z M115.03,247.13v-5.96h1.85v5.96H115.03z"/>
		<path class="st0" d="M118.36,243.07c0-0.74-0.02-1.38-0.05-1.9h1.61l0.09,0.82h0.04c0.24-0.38,0.85-0.95,1.84-0.95
			c1.22,0,2.13,0.8,2.13,2.56v3.54h-1.85v-3.3c0-0.77-0.27-1.29-0.94-1.29c-0.51,0-0.82,0.35-0.94,0.7
			c-0.05,0.11-0.07,0.29-0.07,0.46v3.44h-1.85V243.07z"/>
		<path class="st0" d="M125.37,246.14c0-0.66,0.45-1.13,1.1-1.13c0.65,0,1.08,0.46,1.08,1.13c0,0.65-0.44,1.12-1.1,1.12
			C125.82,247.27,125.37,246.79,125.37,246.14z"/>
	</g>
	<path class="st0" d="M161.8,232.55c-2.38-2.77-5.71-4.64-9.51-5.03c-6.81-0.71-13.05,3.53-15.56,9.95
		c1.66-7.86,8.64-13.38,16.34-12.58c3.57,0.37,6.71,2.04,9.05,4.52L161.8,232.55z"/>
	<g>
		<path class="st0" d="M61.2,34.41c0-0.35-0.19-0.52-0.52-0.52h-0.96v-1.95h2.25c1.06,0,1.5,0.45,1.5,1.46v4.63
			c0,0.56-0.05,0.99-0.05,0.99h0.05c0.52-1.15,2.04-2.66,4.42-2.66c2.8,0,4.06,1.53,4.06,4.56v5.15c0,0.35,0.19,0.52,0.52,0.52h0.96
			v1.95h-2.23c-1.06,0-1.5-0.45-1.5-1.5v-5.59c0-1.67-0.35-2.99-2.26-2.99c-1.81,0-3.26,1.22-3.76,2.94
			c-0.16,0.47-0.21,1.01-0.21,1.58v5.57H61.2V34.41z"/>
		<path class="st0" d="M80.72,36.36c3.34,0,5.12,2.49,5.12,5.57c0,0.31-0.07,0.94-0.07,0.94h-8.67c0.14,2.54,1.97,3.97,4.09,3.97
			c2.04,0,3.48-1.39,3.48-1.39l0.99,1.62c0,0-1.76,1.74-4.58,1.74c-3.76,0-6.32-2.7-6.32-6.23C74.76,38.81,77.34,36.36,80.72,36.36
			 M83.5,41.21c-0.07-1.98-1.32-3.03-2.8-3.03c-1.74,0-3.15,1.06-3.5,3.03H83.5z"/>
		<path class="st0" d="M94.91,41.14h0.52v-0.12c0-2.09-0.78-2.84-2.63-2.84c-0.56,0-1.95,0.14-1.95,0.92v0.68h-2.14V38.6
			c0-1.95,2.96-2.23,4.11-2.23c3.85,0,4.89,2.02,4.89,4.65v5.05c0,0.35,0.19,0.52,0.52,0.52h0.96v1.95h-2.14
			c-1.06,0-1.48-0.52-1.48-1.36c0-0.4,0.05-0.71,0.05-0.71h-0.05c0,0-0.94,2.35-3.78,2.35c-2.04,0-4.04-1.25-4.04-3.62
			C87.75,41.37,92.91,41.14,94.91,41.14 M92.28,46.99c1.93,0,3.17-2.02,3.17-3.78v-0.4h-0.59c-1.71,0-4.82,0.09-4.82,2.28
			C90.05,46.05,90.78,46.99,92.28,46.99"/>
		<path class="st0" d="M101.75,38.48h-1.55v-1.83h1.6v-3.27h2.23v3.27h2.84v1.83h-2.84v5.45c0,2.37,1.64,2.68,2.51,2.68
			c0.33,0,0.54-0.05,0.54-0.05v2.02c0,0-0.31,0.05-0.8,0.05c-1.5,0-4.53-0.47-4.53-4.44V38.48z"/>
		<path class="st0" d="M109.68,38.82c0-0.27-0.14-0.34-0.39-0.34h-0.73v-1.79h1.69c0.8,0,1.14,0.59,1.14,1.39v5.75
			c0,0.27,0.14,0.39,0.39,0.39h0.73v1.48h-1.69c-0.8,0-1.14-0.34-1.14-1.14V38.82z M109.72,33.38h1.55v1.8h-1.55V33.38z"/>
		<path class="st0" d="M114.56,38.23h-1.18v-1.53h1.21v-2.48h1.69v2.48h2.16v1.53h-2.16v3.99c0,1.8,1.25,2.03,1.91,2.03
			c0.25,0,0.41-0.04,0.41-0.04v0.35c0,0-0.23,1.22-0.61,1.22c-1.14,0-3.44-0.36-3.44-3.37V38.23z"/>
		<path class="st0" d="M53.73,33.9L53.73,33.9c0,0.68-0.28,1.31-0.77,1.72c-0.25,0.21-0.4,0.55-0.4,0.91c0,0.37,0.14,0.7,0.4,0.91
			c0.49,0.41,0.77,1.04,0.77,1.72c0,0.68-0.28,1.31-0.77,1.72c-0.25,0.21-0.4,0.55-0.4,0.91c0,0.37,0.14,0.7,0.4,0.91
			c0.49,0.41,0.77,1.04,0.77,1.72c0,0.68-0.28,1.3-0.77,1.72c-0.25,0.21-0.4,0.55-0.4,0.91c0,0.37,0.14,0.7,0.4,0.91
			c0.22,0.19,0.25,0.52,0.06,0.75c-0.19,0.22-0.52,0.25-0.74,0.06c-0.49-0.41-0.77-1.04-0.77-1.72c0-0.68,0.28-1.31,0.77-1.72
			c0.25-0.21,0.4-0.54,0.4-0.91c0-0.37-0.14-0.7-0.4-0.91c-0.49-0.41-0.77-1.04-0.77-1.72s0.28-1.31,0.77-1.72
			c0.25-0.21,0.4-0.55,0.4-0.91v0c0-0.37-0.14-0.7-0.4-0.91c-0.49-0.41-0.77-1.04-0.77-1.72c0-0.68,0.28-1.31,0.77-1.72
			c0.25-0.21,0.4-0.54,0.4-0.91v0c0-0.37-0.14-0.7-0.4-0.91c-0.22-0.19-0.25-0.52-0.06-0.75c0.19-0.22,0.52-0.25,0.74-0.06
			C53.44,32.59,53.73,33.22,53.73,33.9"/>
		<path class="st0" d="M55.78,33.9L55.78,33.9c0,0.68-0.28,1.31-0.77,1.72c-0.25,0.21-0.4,0.55-0.4,0.91c0,0.37,0.14,0.7,0.4,0.91
			c0.49,0.41,0.77,1.04,0.77,1.72c0,0.68-0.28,1.31-0.77,1.72c-0.25,0.21-0.4,0.54-0.4,0.91c0,0.37,0.14,0.7,0.4,0.91
			c0.49,0.41,0.77,1.04,0.77,1.72c0,0.68-0.28,1.3-0.77,1.72c-0.25,0.21-0.4,0.55-0.4,0.91c0,0.37,0.14,0.7,0.4,0.91
			c0.22,0.19,0.25,0.52,0.06,0.75c-0.19,0.22-0.52,0.25-0.74,0.06c-0.49-0.41-0.77-1.04-0.77-1.72c0-0.68,0.28-1.31,0.77-1.72
			c0.25-0.21,0.4-0.54,0.4-0.91c0-0.37-0.14-0.7-0.4-0.91c-0.49-0.41-0.77-1.04-0.77-1.72s0.28-1.31,0.77-1.72
			c0.25-0.21,0.4-0.55,0.4-0.91c0-0.37-0.14-0.7-0.4-0.91c-0.49-0.41-0.77-1.04-0.77-1.72c0-0.68,0.28-1.31,0.77-1.72
			c0.25-0.21,0.4-0.54,0.4-0.91v0c0-0.37-0.14-0.7-0.4-0.91c-0.22-0.19-0.25-0.52-0.06-0.75c0.19-0.22,0.52-0.25,0.74-0.06
			C55.5,32.59,55.78,33.22,55.78,33.9"/>
		<path class="st0" d="M57.83,33.9L57.83,33.9c0,0.68-0.28,1.31-0.77,1.72c-0.25,0.21-0.4,0.55-0.4,0.91c0,0.37,0.14,0.7,0.4,0.91
			c0.49,0.41,0.77,1.04,0.77,1.72c0,0.68-0.28,1.31-0.77,1.72c-0.25,0.21-0.4,0.54-0.4,0.91c0,0.37,0.14,0.7,0.4,0.91
			c0.49,0.41,0.77,1.04,0.77,1.72c0,0.68-0.28,1.31-0.77,1.72c-0.25,0.21-0.4,0.55-0.4,0.91c0,0.37,0.14,0.7,0.4,0.91
			c0.22,0.19,0.25,0.52,0.06,0.75c-0.19,0.22-0.52,0.25-0.74,0.06c-0.49-0.41-0.77-1.04-0.77-1.72c0-0.68,0.28-1.31,0.77-1.72
			c0.25-0.21,0.4-0.54,0.4-0.91c0-0.37-0.14-0.7-0.4-0.91c-0.49-0.41-0.77-1.04-0.77-1.72s0.28-1.31,0.77-1.72
			c0.25-0.21,0.4-0.55,0.4-0.91c0-0.37-0.14-0.7-0.4-0.91c-0.49-0.41-0.77-1.04-0.77-1.72c0-0.68,0.28-1.31,0.77-1.72
			c0.25-0.21,0.4-0.54,0.4-0.91v0c0-0.37-0.14-0.7-0.4-0.91c-0.22-0.19-0.25-0.52-0.06-0.75c0.19-0.22,0.52-0.25,0.74-0.06
			C57.55,32.59,57.83,33.22,57.83,33.9"/>
	</g>
	<g>
		<path class="st0" d="M239.39,239.46c0.6-0.1,1.49-0.17,2.47-0.17c1.22,0,2.07,0.18,2.66,0.65c0.49,0.39,0.75,0.96,0.75,1.72
			c0,1.05-0.74,1.77-1.45,2.02v0.04c0.57,0.23,0.89,0.78,1.1,1.53c0.26,0.93,0.51,2,0.67,2.32h-1.9c-0.13-0.23-0.33-0.9-0.57-1.91
			c-0.22-1.02-0.57-1.3-1.33-1.32h-0.56v3.23h-1.84V239.46z M241.23,242.99h0.73c0.93,0,1.47-0.46,1.47-1.18
			c0-0.76-0.51-1.13-1.36-1.15c-0.45,0-0.71,0.04-0.84,0.06V242.99z"/>
		<path class="st0" d="M247.97,245.17c0.06,0.77,0.82,1.13,1.68,1.13c0.63,0,1.14-0.08,1.65-0.24l0.24,1.26
			c-0.61,0.24-1.35,0.37-2.16,0.37c-2.02,0-3.18-1.17-3.18-3.04c0-1.51,0.94-3.18,3.01-3.18c1.92,0,2.66,1.5,2.66,2.97
			c0,0.32-0.04,0.6-0.06,0.73H247.97z M250.15,243.9c0-0.45-0.19-1.21-1.05-1.21c-0.78,0-1.1,0.71-1.15,1.21H250.15z"/>
		<path class="st0" d="M252.96,245.94c0.34,0.21,1.05,0.45,1.6,0.45c0.56,0,0.79-0.19,0.79-0.5c0-0.3-0.18-0.45-0.88-0.68
			c-1.23-0.41-1.71-1.08-1.69-1.79c0-1.11,0.95-1.95,2.42-1.95c0.69,0,1.32,0.16,1.68,0.34l-0.33,1.28
			c-0.27-0.15-0.78-0.34-1.29-0.34c-0.45,0-0.71,0.18-0.71,0.49c0,0.28,0.23,0.43,0.96,0.68c1.13,0.39,1.61,0.96,1.62,1.84
			c0,1.11-0.88,1.93-2.58,1.93c-0.78,0-1.47-0.17-1.92-0.41L252.96,245.94z"/>
		<path class="st0" d="M259.69,245.17c0.06,0.77,0.82,1.13,1.68,1.13c0.63,0,1.14-0.08,1.65-0.24l0.24,1.26
			c-0.61,0.24-1.35,0.37-2.16,0.37c-2.02,0-3.18-1.17-3.18-3.04c0-1.51,0.94-3.18,3.01-3.18c1.92,0,2.66,1.5,2.66,2.97
			c0,0.32-0.04,0.6-0.06,0.73H259.69z M261.87,243.9c0-0.45-0.19-1.21-1.05-1.21c-0.78,0-1.1,0.71-1.15,1.21H261.87z"/>
		<path class="st0" d="M266.76,239.9v1.71h1.33v1.36h-1.33v2.16c0,0.72,0.17,1.05,0.73,1.05c0.23,0,0.41-0.02,0.55-0.05l0.01,1.4
			c-0.24,0.1-0.68,0.16-1.21,0.16c-0.6,0-1.1-0.21-1.39-0.51c-0.34-0.35-0.51-0.93-0.51-1.77v-2.44h-0.79v-1.36h0.79v-1.29
			L266.76,239.9z"/>
	</g>
	<g>
		<path class="st0" d="M137.27,65.77c-1.01,0-1.44,0.92-1.51,1.59h2.86C138.63,66.76,138.36,65.77,137.27,65.77z"/>
		<path class="st0" d="M228.86,63.73c-0.88,0-1.49,1.08-1.48,3.26c-0.01,2.11,0.57,3.21,1.48,3.21c0.96,0,1.47-1.18,1.47-3.26
			C230.33,64.92,229.85,63.73,228.86,63.73z"/>
		<path class="st0" d="M142.66,69.34c0,0.64,0.41,0.93,0.93,0.93c0.65,0,1.13-0.43,1.28-0.9c0.04-0.12,0.05-0.25,0.05-0.36v-0.9
			C143.76,68.1,142.66,68.35,142.66,69.34z"/>
		<path class="st0" d="M178.1,63.51c-0.52,0-0.89,0.04-1.12,0.09v6.44c0.23,0.04,0.57,0.04,0.91,0.04c2.14,0.01,3.41-1.16,3.41-3.45
			C181.31,64.65,180.16,63.51,178.1,63.51z"/>
		<path class="st0" d="M121.09,58v17.68H248.7V58H121.09z M132.78,71.3h-1.64v-3.97h-3.81v3.97h-1.64v-9h1.64v3.61h3.81V62.3h1.64
			V71.3z M140.11,68.51h-4.35c0.04,1.18,0.96,1.68,2,1.68c0.76,0,1.31-0.11,1.8-0.29l0.24,1.14c-0.56,0.23-1.34,0.4-2.27,0.4
			c-2.11,0-3.35-1.3-3.35-3.29c0-1.8,1.09-3.5,3.18-3.5c2.11,0,2.8,1.74,2.8,3.17C140.16,68.12,140.14,68.36,140.11,68.51z
			 M145.14,71.3l-0.11-0.72h-0.04c-0.4,0.51-1.08,0.87-1.92,0.87c-1.31,0-2.04-0.95-2.04-1.94c0-1.64,1.46-2.47,3.86-2.46v-0.11
			c0-0.43-0.17-1.14-1.32-1.14c-0.64,0-1.31,0.2-1.75,0.48l-0.32-1.07c0.48-0.29,1.32-0.57,2.35-0.57c2.08,0,2.68,1.32,2.68,2.74
			v2.35c0,0.59,0.03,1.16,0.09,1.56H145.14z M151.63,66.03h-1.56v2.87c0,0.79,0.21,1.2,0.84,1.2c0.28,0,0.49-0.04,0.64-0.08
			l0.03,1.26c-0.24,0.09-0.67,0.16-1.19,0.16c-0.6,0-1.11-0.2-1.42-0.54c-0.35-0.37-0.51-0.96-0.51-1.82v-3.06h-0.94V64.8h0.94
			v-1.47l1.6-0.39v1.86h1.56V66.03z M154.52,71.3h-1.66V64.8h1.66V71.3z M153.68,63.86c-0.55,0-0.91-0.39-0.91-0.88
			c0-0.51,0.37-0.9,0.92-0.9c0.56,0,0.91,0.39,0.92,0.9C154.61,63.47,154.25,63.86,153.68,63.86z M159.73,66.03h-1.56v2.87
			c0,0.79,0.21,1.2,0.84,1.2c0.28,0,0.49-0.04,0.64-0.08l0.03,1.26c-0.24,0.09-0.67,0.16-1.19,0.16c-0.6,0-1.11-0.2-1.42-0.54
			c-0.35-0.37-0.51-0.96-0.51-1.82v-3.06h-0.94V64.8h0.94v-1.47l1.6-0.39v1.86h1.56V66.03z M170,71.3h-6.81v-0.91l4.61-6.69v-0.04
			h-4.19V62.3h6.33v0.96l-4.54,6.63v0.05H170V71.3z M173.99,68.31h-3.4v-1.14h3.4V68.31z M181.63,70.17
			c-0.9,0.81-2.32,1.23-4.07,1.23c-0.96,0-1.68-0.05-2.22-0.12v-8.86c0.72-0.12,1.64-0.19,2.62-0.19c1.68,0,2.84,0.35,3.67,1.04
			c0.87,0.71,1.4,1.78,1.4,3.31C183.03,68.19,182.48,69.39,181.63,70.17z M186.08,71.3h-1.66V64.8h1.66V71.3z M185.24,63.86
			c-0.55,0-0.91-0.39-0.91-0.88c0-0.51,0.37-0.9,0.92-0.9c0.56,0,0.91,0.39,0.92,0.9C186.18,63.47,185.82,63.86,185.24,63.86z
			 M197.43,71.3h-1.6v-3.59c0-1.08-0.37-1.72-1.16-1.72c-0.56,0-0.98,0.4-1.15,0.87c-0.04,0.16-0.08,0.36-0.08,0.55v3.9h-1.6v-3.77
			c0-0.91-0.36-1.55-1.12-1.55c-0.61,0-1.03,0.48-1.17,0.93c-0.07,0.16-0.09,0.35-0.09,0.54v3.85h-1.6v-4.57
			c0-0.75-0.01-1.38-0.05-1.94h1.42l0.07,0.96h0.04c0.32-0.51,0.91-1.11,2-1.11c0.85,0,1.52,0.48,1.8,1.2h0.03
			c0.23-0.36,0.49-0.63,0.8-0.81c0.36-0.25,0.77-0.39,1.31-0.39c1.08,0,2.18,0.73,2.18,2.82V71.3z M204.74,71.3h-5.89v-1l1.03-0.95
			c2.04-1.9,3-2.94,3.02-4.09c0-0.78-0.41-1.46-1.55-1.46c-0.76,0-1.42,0.39-1.86,0.72l-0.48-1.16c0.63-0.51,1.57-0.9,2.67-0.9
			c1.92,0,2.86,1.22,2.86,2.63c0,1.52-1.09,2.75-2.6,4.16l-0.76,0.65v0.03h3.56V71.3z M217.42,71.3h-5.89v-1l1.03-0.95
			c2.04-1.9,3-2.94,3.02-4.09c0-0.78-0.41-1.46-1.55-1.46c-0.76,0-1.42,0.39-1.86,0.72l-0.48-1.16c0.63-0.51,1.57-0.9,2.67-0.9
			c1.92,0,2.86,1.22,2.86,2.63c0,1.52-1.09,2.75-2.6,4.16l-0.76,0.65v0.03h3.56V71.3z M220.97,71.45c-1,0-1.84-0.25-2.3-0.51
			l0.33-1.24c0.37,0.2,1.12,0.45,1.91,0.45c0.96,0,1.88-0.55,1.88-1.59c0-0.99-0.74-1.64-2.47-1.64c-0.48,0-0.84,0.03-1.19,0.08
			l0.57-4.38h4.49v1.36h-3.34l-0.25,1.74c0.2-0.03,0.37-0.04,0.63-0.04c0.76,0,1.52,0.17,2.11,0.56c0.65,0.41,1.13,1.15,1.13,2.2
			C224.48,70.1,223.1,71.45,220.97,71.45z M228.8,71.45c-2,0-3.07-1.82-3.08-4.46c0-2.7,1.15-4.51,3.18-4.51
			c2.1,0,3.07,1.87,3.07,4.43C231.97,69.7,230.87,71.45,228.8,71.45z M241.46,71.3h-1.76l-0.93-4.23c-0.23-1.03-0.39-1.89-0.49-2.86
			h-0.03c-0.16,0.96-0.33,1.83-0.6,2.86l-1.04,4.23h-1.78l-2.2-9h1.75l0.85,4.09c0.23,1.09,0.44,2.24,0.59,3.14h0.03
			c0.15-0.95,0.4-2.02,0.65-3.15l0.98-4.07h1.72l0.89,4.14c0.23,1.07,0.41,2.07,0.55,3.05h0.03c0.16-0.99,0.37-2.02,0.61-3.11
			l0.93-4.07h1.67L241.46,71.3z"/>
	</g>
	<path class="st1" d="M355.44,333.41l-20.67,20.68"/>
	<polyline class="st1" points="334.77,8.82 355.44,29.5 355.44,48.71 	"/>
	<line class="st1" x1="237.08" y1="292.68" x2="237.08" y2="270.12"/>
	<line class="st1" x1="346.46" y1="105.11" x2="355.44" y2="105.11"/>
	<line class="st1" x1="10.17" y1="105.11" x2="19.15" y2="105.11"/>
	<line class="st1" x1="259.21" y1="345.31" x2="259.21" y2="354.08"/>
	<line class="st1" x1="259.21" y1="8.82" x2="259.21" y2="17.8"/>
	<line class="st1" x1="19.15" y1="48.71" x2="10.17" y2="48.71"/>
	<line class="st1" x1="355.44" y1="48.71" x2="346.46" y2="48.71"/>
	<line class="st1" x1="315.36" y1="17.8" x2="315.36" y2="8.82"/>
	<line class="st1" x1="315.36" y1="354.08" x2="315.36" y2="345.31"/>
	<line class="st1" x1="259.21" y1="17.8" x2="315.36" y2="17.8"/>
	<line class="st1" x1="50.25" y1="17.8" x2="106.4" y2="17.8"/>
	<line class="st1" x1="346.46" y1="258" x2="346.46" y2="314.19"/>
	<line class="st1" x1="346.46" y1="48.71" x2="346.46" y2="105.11"/>
	<line class="st1" x1="315.36" y1="8.82" x2="334.77" y2="8.82"/>
	<line class="st1" x1="106.4" y1="8.82" x2="259.21" y2="8.82"/>
	<line class="st1" x1="31.05" y1="8.82" x2="50.25" y2="8.82"/>
	<line class="st1" x1="355.44" y1="314.19" x2="355.44" y2="333.41"/>
	<polyline class="st1" points="355.44,258 355.44,105.11 355.44,258 	"/>
	<line class="st1" x1="128.53" y1="270.12" x2="128.53" y2="292.68"/>
	<line class="st1" x1="31.05" y1="354.08" x2="10.17" y2="333.41"/>
	<line class="st1" x1="10.17" y1="29.5" x2="31.05" y2="8.82"/>
	<line class="st1" x1="50.25" y1="354.08" x2="31.05" y2="354.08"/>
	<line class="st1" x1="259.21" y1="354.08" x2="106.4" y2="354.08"/>
	<line class="st1" x1="334.77" y1="354.08" x2="315.36" y2="354.08"/>
	<line class="st1" x1="106.4" y1="345.31" x2="50.25" y2="345.31"/>
	<line class="st1" x1="315.36" y1="345.31" x2="259.21" y2="345.31"/>
	<line class="st1" x1="10.17" y1="48.71" x2="10.17" y2="29.5"/>
	<line class="st1" x1="10.17" y1="258" x2="10.17" y2="105.11"/>
	<line class="st1" x1="10.17" y1="333.41" x2="10.17" y2="314.19"/>
	<line class="st1" x1="19.15" y1="105.11" x2="19.15" y2="48.71"/>
	<line class="st1" x1="19.15" y1="314.19" x2="19.15" y2="258"/>
	<line class="st1" x1="346.46" y1="314.19" x2="355.44" y2="314.19"/>
	<line class="st1" x1="10.17" y1="314.19" x2="19.15" y2="314.19"/>
	<line class="st1" x1="50.25" y1="345.31" x2="50.25" y2="354.08"/>
	<line class="st1" x1="50.25" y1="8.82" x2="50.25" y2="17.8"/>
	<line class="st1" x1="133.96" y1="298.11" x2="231.65" y2="298.11"/>
	<line class="st1" x1="231.65" y1="264.69" x2="133.96" y2="264.69"/>
	<line class="st1" x1="19.15" y1="258" x2="10.17" y2="258"/>
	<line class="st1" x1="355.44" y1="258" x2="346.46" y2="258"/>
	<line class="st1" x1="106.4" y1="17.8" x2="106.4" y2="8.82"/>
	<line class="st1" x1="106.4" y1="354.08" x2="106.4" y2="345.31"/>
	<polyline class="st1" points="197.84,44.54 200.13,47.04 202.85,49.13 205.98,50.18 209.32,50.8 212.66,50.59 216,49.55 
		218.71,47.88 221.21,45.58 223.09,42.87 224.35,39.73 224.76,36.39 224.35,33.05 223.3,29.92 221.63,26.99 219.34,24.48 
		216.41,22.81 213.28,21.56 209.94,21.14 206.6,21.56 203.47,22.6 200.76,24.48 	"/>
	<polygon class="st1" points="323.29,30.96 323.71,33.68 324.75,35.97 326.21,38.06 328.3,39.52 330.6,40.57 333.31,40.99 
		335.82,40.57 338.11,39.52 340.2,38.06 341.66,35.97 342.7,33.68 343.12,30.96 342.7,28.45 341.66,26.16 340.2,24.07 338.11,22.4 
		335.82,21.56 333.31,21.14 330.6,21.56 328.3,22.4 326.21,24.07 324.75,26.16 323.71,28.45 	"/>
	<polyline class="st1" points="197.21,25.53 199.09,25.32 200.76,24.48 	"/>
	<polyline class="st1" points="197.84,44.54 196.37,43.28 194.29,42.66 	"/>
	<polygon class="st1" points="209.94,281.4 210.36,284.11 211.4,286.62 213.07,288.71 215.16,290.38 217.67,291.42 220.38,291.84 
		223.09,291.42 225.6,290.38 227.69,288.71 229.36,286.62 230.4,284.11 230.82,281.4 230.4,278.68 229.36,276.17 227.69,274.09 
		225.6,272.41 223.09,271.37 220.38,270.95 217.67,271.37 215.16,272.41 213.07,274.09 211.4,276.17 210.36,278.68 	"/>
	<polygon class="st1" points="184.89,281.4 185.31,284.11 186.35,286.62 188.02,288.71 190.11,290.38 192.62,291.42 195.33,291.84 
		198.04,291.42 200.55,290.38 202.64,288.71 204.31,286.62 205.35,284.11 205.77,281.4 205.35,278.68 204.31,276.17 202.64,274.09 
		200.55,272.41 198.04,271.37 195.33,270.95 192.62,271.37 190.11,272.41 188.02,274.09 186.35,276.17 185.31,278.68 	"/>
	<polygon class="st1" points="323.29,331.94 323.71,334.45 324.75,336.96 326.21,338.84 328.3,340.51 330.6,341.55 333.31,341.76 
		335.82,341.55 338.11,340.51 340.2,338.84 341.66,336.96 342.7,334.45 343.12,331.94 342.7,329.44 341.66,326.93 340.2,325.05 
		338.11,323.38 335.82,322.34 333.31,322.13 330.6,322.34 328.3,323.38 326.21,325.05 324.75,326.93 323.71,329.44 	"/>
	<polygon class="st1" points="210.99,281.4 211.4,283.9 212.24,285.99 213.7,288.08 215.79,289.54 217.87,290.38 220.38,290.8 
		222.88,290.38 225.18,289.54 227.06,288.08 228.52,285.99 229.36,283.9 229.77,281.4 229.36,278.89 228.52,276.8 227.06,274.71 
		225.18,273.25 222.88,272.41 220.38,272 217.87,272.41 215.79,273.25 213.7,274.71 212.24,276.8 211.4,278.89 	"/>
	<polygon class="st1" points="185.94,281.4 186.35,283.9 187.19,285.99 188.65,288.08 190.74,289.54 192.83,290.38 195.33,290.8 
		197.84,290.38 200.13,289.54 202.01,288.08 203.47,285.99 204.31,283.9 204.72,281.4 204.31,278.89 203.47,276.8 202.01,274.71 
		200.13,273.25 197.84,272.41 195.33,272 192.83,272.41 190.74,273.25 188.65,274.71 187.19,276.8 186.35,278.89 	"/>
	<polyline class="st1" points="231.65,298.11 233.74,297.69 235.62,296.64 236.66,294.76 237.08,292.68 	"/>
	<polyline class="st1" points="237.08,270.12 236.66,268.03 235.62,266.15 233.74,265.1 231.65,264.69 	"/>
	<polyline class="st1" points="153.79,27.62 151.29,28.45 149.2,30.12 147.74,32.42 146.9,34.93 146.9,37.64 147.95,40.15 
		149.62,42.24 151.7,43.91 154.42,44.54 157.13,44.54 	"/>
	<polygon class="st1" points="22.49,30.96 22.91,33.68 23.95,35.97 25.41,38.06 27.5,39.52 29.8,40.57 32.51,40.99 35.01,40.57 
		37.31,39.52 39.4,38.06 41.07,35.97 41.9,33.68 42.32,30.96 41.9,28.45 41.07,26.16 39.4,24.07 37.31,22.4 35.01,21.56 
		32.51,21.14 29.8,21.56 27.5,22.4 25.41,24.07 23.95,26.16 22.91,28.45 	"/>
	<polyline class="st1" points="197.21,25.53 186.35,24.9 175.5,25.11 164.64,25.95 153.79,27.62 	"/>
	<polyline class="st1" points="194.29,42.66 184.89,42.24 175.71,42.24 166.31,43.07 157.13,44.54 	"/>
	<polygon class="st1" points="162.56,166.52 162.56,196.39 165.48,199.73 168.82,202.23 172.37,204.32 176.54,205.78 180.72,206.62 
		184.89,206.62 189.07,205.78 193.24,204.32 197,202.23 200.13,199.73 203.05,196.39 203.05,166.52 200.13,163.38 197,160.67 
		193.24,158.58 189.07,157.12 184.89,156.49 180.72,156.49 176.54,157.12 172.37,158.58 168.82,160.67 165.48,163.38 	"/>
	<polygon class="st1" points="172.99,181.56 173.2,184.06 174.25,186.36 175.92,188.45 177.8,190.12 180.3,190.96 182.81,191.37 
		185.31,190.96 187.82,190.12 189.9,188.45 191.36,186.36 192.41,184.06 192.62,181.56 192.41,178.84 191.36,176.54 189.9,174.45 
		187.82,172.99 185.31,171.95 182.81,171.53 180.3,171.95 177.8,172.99 175.92,174.45 174.25,176.54 173.2,178.84 	"/>
	<polygon class="st1" points="159.84,281.4 160.26,284.11 161.3,286.62 162.97,288.71 165.06,290.38 167.57,291.42 170.28,291.84 
		172.99,291.42 175.5,290.38 177.59,288.71 179.26,286.62 180.3,284.11 180.72,281.4 180.3,278.68 179.26,276.17 177.59,274.09 
		175.5,272.41 172.99,271.37 170.28,270.95 167.57,271.37 165.06,272.41 162.97,274.09 161.3,276.17 160.26,278.68 	"/>
	<polygon class="st1" points="134.79,281.4 135.21,284.11 136.26,286.62 137.93,288.71 140.01,290.38 142.52,291.42 145.23,291.84 
		147.95,291.42 150.45,290.38 152.54,288.71 154.21,286.62 155.25,284.11 155.67,281.4 155.25,278.68 154.21,276.17 152.54,274.09 
		150.45,272.41 147.95,271.37 145.23,270.95 142.52,271.37 140.01,272.41 137.93,274.09 136.26,276.17 135.21,278.68 	"/>
	<polygon class="st1" points="160.89,281.4 161.3,283.9 162.14,285.99 163.6,288.08 165.69,289.54 167.78,290.38 170.28,290.8 
		172.79,290.38 175.08,289.54 176.96,288.08 178.42,285.99 179.26,283.9 179.67,281.4 179.26,278.89 178.42,276.8 176.96,274.71 
		175.08,273.25 172.79,272.41 170.28,272 167.78,272.41 165.69,273.25 163.6,274.71 162.14,276.8 161.3,278.89 	"/>
	<polygon class="st1" points="135.84,281.4 136.26,283.9 137.09,285.99 138.55,288.08 140.64,289.54 142.73,290.38 145.23,290.8 
		147.74,290.38 150.03,289.54 151.91,288.08 153.37,285.99 154.21,283.9 154.62,281.4 154.21,278.89 153.37,276.8 151.91,274.71 
		150.03,273.25 147.74,272.41 145.23,272 142.73,272.41 140.64,273.25 138.55,274.71 137.09,276.8 136.26,278.89 	"/>
	<polyline class="st1" points="133.96,264.69 131.87,265.1 129.99,266.15 128.95,268.03 128.53,270.12 	"/>
	<polyline class="st1" points="128.53,292.68 128.95,294.76 129.99,296.64 131.87,297.69 133.96,298.11 	"/>
	<polygon class="st1" points="22.49,331.94 22.91,334.45 23.95,336.96 25.41,338.84 27.5,340.51 29.8,341.55 32.51,341.76 
		35.01,341.55 37.31,340.51 39.4,338.84 41.07,336.96 41.9,334.45 42.32,331.94 41.9,329.44 41.07,326.93 39.4,325.05 37.31,323.38 
		35.01,322.34 32.51,322.13 29.8,322.34 27.5,323.38 25.41,325.05 23.95,326.93 22.91,329.44 	"/>
	<line class="st1" x1="139.6" y1="240.56" x2="139.39" y2="240.56"/>
	<polyline class="st1" points="140.01,240.98 142.73,240.98 158.59,240.98 161.51,240.98 	"/>
	<polyline class="st1" points="140.01,245.99 142.73,245.99 158.59,245.99 161.51,245.99 	"/>
	<line class="st1" x1="139.39" y1="246.41" x2="139.6" y2="246.41"/>
	<polygon class="st1" points="150.66,255.39 153.79,254.97 156.71,253.72 159.22,251.84 161.1,249.33 162.14,246.62 162.56,243.49 
		162.14,240.35 161.1,237.64 159.22,235.13 156.71,233.25 153.79,232 150.66,231.58 147.74,232 144.81,233.25 142.31,235.13 
		140.43,237.64 139.39,240.35 138.97,243.49 139.39,246.62 140.43,249.33 142.31,251.84 144.81,253.72 147.74,254.97 	"/>
	<polyline class="st1" points="139.39,246.41 140.64,249.33 142.31,251.63 144.81,253.51 147.74,254.77 150.66,255.18 
		153.79,254.77 156.5,253.72 159.01,251.84 160.89,249.33 162.14,246.41 162.56,243.49 162.14,240.35 160.89,237.64 159.01,235.13 
		156.5,233.25 153.79,232.21 150.66,231.79 147.74,232.21 144.81,233.25 142.31,235.13 140.64,237.64 139.39,240.56 	"/>
	<polyline class="st1" points="139.6,240.56 139.39,243.49 139.6,246.41 	"/>
	<polyline class="st1" points="161.51,245.99 161.72,243.49 161.51,240.98 	"/>
	<polyline class="st1" points="140.01,240.98 139.6,243.49 140.01,245.99 	"/>
	<polyline class="st1" points="161.51,240.98 160.47,238.26 158.8,235.76 156.5,234.09 153.58,232.83 150.66,232.42 147.74,232.83 
		145.02,234.09 142.73,235.76 141.06,238.26 140.01,240.98 	"/>
	<polyline class="st1" points="140.01,245.99 141.06,248.71 142.73,251.01 145.02,252.89 147.74,254.14 150.66,254.56 
		153.58,254.14 156.5,252.89 158.8,251.01 160.47,248.71 161.51,245.99 	"/>
	<polyline class="st1" points="158.59,240.98 157.55,238.68 155.67,236.8 153.37,235.55 150.66,235.13 148.15,235.55 145.86,236.8 
		143.98,238.68 142.73,240.98 	"/>
	<polyline class="st1" points="142.73,245.99 143.98,248.29 145.86,250.17 148.15,251.42 150.66,251.84 153.37,251.42 
		155.67,250.17 157.55,248.29 158.59,245.99 	"/>
	<polygon class="st2" points="217.33,249.97 219.23,249.62 221.13,248.76 222.51,247.38 223.55,245.47 223.9,243.4 223.55,241.5 
		222.51,239.6 221.13,238.21 219.23,237.35 217.33,237 215.26,237.35 213.53,238.21 211.97,239.6 211.11,241.5 210.76,243.4 
		211.11,245.47 211.97,247.38 213.53,248.76 215.26,249.62 	"/>
	<g>
		<polygon class="st1" points="184.2,250.27 186.28,249.86 188.37,248.81 189.83,247.35 190.88,245.47 191.08,243.38 190.88,241.08 
			189.83,239.2 188.37,237.74 186.28,236.7 184.2,236.28 182.11,236.7 180.23,237.74 178.56,239.2 177.72,241.08 177.31,243.38 
			177.72,245.47 178.56,247.35 180.23,248.81 182.11,249.86 		"/>
		<polygon class="st1" points="184.2,249.65 186.28,249.44 187.95,248.39 189.41,247.14 190.25,245.26 190.67,243.38 190.25,241.29 
			189.41,239.41 187.95,238.16 186.28,237.12 184.2,236.91 182.32,237.12 180.44,238.16 178.98,239.41 178.14,241.29 177.72,243.38 
			178.14,245.26 178.98,247.14 180.44,248.39 182.32,249.44 		"/>
		<polygon class="st1" points="184.2,249.23 186.49,248.81 188.37,247.56 189.62,245.47 190.04,243.38 189.62,241.08 188.37,239.2 
			186.49,237.74 184.2,237.32 181.9,237.74 180.02,239.2 178.77,241.08 178.35,243.38 178.77,245.47 180.02,247.56 181.9,248.81 		
			"/>
		<polygon class="st1" points="184.2,248.81 186.28,248.39 188.16,247.14 189.21,245.47 189.62,243.38 189.21,241.29 188.16,239.41 
			186.28,238.16 184.2,237.74 182.11,238.16 180.44,239.41 179.19,241.29 178.77,243.38 179.19,245.47 180.44,247.14 182.11,248.39 
					"/>
		<polygon class="st1" points="184.2,247.35 185.66,246.93 187.12,246.1 187.95,244.84 188.16,243.38 187.95,241.71 187.12,240.46 
			185.66,239.62 184.2,239.41 182.73,239.62 181.48,240.46 180.65,241.71 180.23,243.38 180.65,244.84 181.48,246.1 182.73,246.93 
					"/>
	</g>
	<path class="st1" d="M205.95,246.31l1.25,2.92l1.67,2.3l2.5,1.88l2.92,1.25l2.92,0.42l3.13-0.42l2.71-1.04l2.5-1.88l1.88-2.51
		l1.25-2.92l0.42-2.92l-0.42-3.13l-1.25-2.72l-1.88-2.51l-2.5-1.88l-2.71-1.04l-3.13-0.42l-2.92,0.42l-2.92,1.04l-2.5,1.88
		l-1.67,2.51l-1.25,2.92C205.95,240.46,205.02,244.13,205.95,246.31z"/>
	<path class="st1" d="M173.1,246.51l1.25,2.92l1.67,2.3l2.5,1.88l2.92,1.25l2.92,0.42l3.13-0.42l2.71-1.04l2.5-1.88l1.88-2.51
		l1.25-2.92l0.42-2.92l-0.42-3.13l-1.25-2.72l-1.88-2.51l-2.5-1.88l-2.71-1.04l-3.13-0.42l-2.92,0.42l-2.92,1.04l-2.5,1.88
		l-1.67,2.51l-1.25,2.92C173.1,240.67,172.52,243.59,173.1,246.51z"/>
	<polygon class="st1" points="159.21,163.92 159.21,198.74 162.61,202.63 166.51,205.55 170.64,207.99 175.51,209.69 180.37,210.66 
		185.24,210.66 190.1,209.69 194.97,207.99 199.35,205.55 203,202.63 206.4,198.74 206.4,163.92 203,160.27 199.35,157.11 
		194.97,154.67 190.1,152.97 185.24,152.24 180.37,152.24 175.51,152.97 170.64,154.67 166.51,157.11 162.61,160.27 	"/>
</g>
<g>
	<g>
		<g>
			<polygon class="st3" points="216.56,168.85 216.56,210.27 207.89,210.27 217.75,227.36 227.62,210.27 218.94,210.27 
				218.94,168.85 			"/>
		</g>
	</g>
</g>
</svg>
