<?xml version="1.0" encoding="utf-8"?>
<!-- Generator: Adobe Illustrator 27.5.0, SVG Export Plug-In . SVG Version: 6.00 Build 0)  -->
<svg version="1.1" id="Layer_1" xmlns="http://www.w3.org/2000/svg" xmlns:xlink="http://www.w3.org/1999/xlink" x="0px" y="0px"
	 viewBox="0 0 51.4 53.4" style="enable-background:new 0 0 51.4 53.4;" xml:space="preserve">
<style type="text/css">
	.st0{fill:none;}
	.st1{fill:none;stroke:#000000;stroke-width:0.222;stroke-linecap:round;stroke-linejoin:round;stroke-miterlimit:10;}
</style>
<g>
	<path class="st0" d="M31.5,0.6l0,0.1C32,0.9,32.5,1,33,1.1L31.5,0.6z"/>
	<path class="st0" d="M19.9,0.6L18,1.2c0.7-0.2,1.3-0.3,1.9-0.5L19.9,0.6z"/>
	<path class="st0" d="M37,2.3l-1.4-0.4C36,2,36.5,2.2,37,2.3L37,2.3z"/>
	<path class="st0" d="M14.4,2.3l0,0.1c0.6-0.2,1.2-0.5,1.8-0.7L14.4,2.3z"/>
	<path class="st1" d="M33,1.1l2.6,0.8C34.7,1.6,33.8,1.3,33,1.1z"/>
	<path class="st1" d="M16.3,1.8L18,1.2C17.5,1.4,16.9,1.6,16.3,1.8z"/>
	<path class="st1" d="M46.5,8.9l-0.3,0.4l-3.8,4.3l-2.2-2.1l3.8-4.2l0.3-0.4c-1.6-1.3-3.2-2.3-4.7-3.2l-0.2,0.4L37,9.2l-2.6-1.2
		l2.4-5.1l0.2-0.4c-0.5-0.2-0.9-0.4-1.4-0.5L33,1.1c-0.5-0.1-1-0.3-1.5-0.4l-0.1,0.4l-0.8,5.7l-3-0.4l0.8-5.8l0.1-0.4
		c-1.2-0.1-2.2-0.2-2.7-0.2c-0.5,0-1.5,0-2.8,0.2L23,0.7l0.7,5.8l-3,0.4L20,1.2l-0.1-0.4c-0.6,0.1-1.2,0.3-1.9,0.5l-1.7,0.5
		c-0.6,0.2-1.2,0.4-1.8,0.7l0.2,0.4L17,7.9l-2.6,1.2l-2.4-5.1l-0.2-0.4c-1.6,0.8-3.2,1.9-4.7,3.2l0.3,0.4l3.8,4.2l-2.2,2.1L5.3,9.3
		L4.9,8.9c-1.7,1.8-3.4,3.9-4.8,6.5v27.7c0,0,0.1,0.2,0.3,0.6l0,0c0,0,2.8,6.3,8.1,9.6h16.8h0.9h16.8c5.2-3.3,8.1-9.6,8.1-9.6l0,0
		c0.2-0.4,0.3-0.6,0.3-0.6V15.4C49.9,12.8,48.2,10.6,46.5,8.9z"/>
	<path class="st1" d="M43.9,7.2l-3.8,4.2l2.2,2.1l3.8-4.3C45.4,8.5,44.7,7.8,43.9,7.2z"/>
	<path class="st1" d="M27.6,6.4l3,0.4l0.8-5.7c-1.1-0.2-2.2-0.4-3-0.5L27.6,6.4z"/>
	<path class="st1" d="M5.3,9.3l3.8,4.2l2.2-2.1L7.5,7.2C6.7,7.8,6,8.5,5.3,9.3z"/>
	<path class="st1" d="M14.4,9.2L17,7.9l-2.4-5.1c-0.9,0.4-1.7,0.8-2.6,1.2L14.4,9.2z"/>
	<path class="st1" d="M34.3,7.9l2.6,1.2l2.4-5.1c-0.9-0.5-1.8-0.9-2.6-1.2L34.3,7.9z"/>
	<path class="st1" d="M20.8,6.9l3-0.4L23,0.7c-0.9,0.1-1.9,0.2-3,0.5L20.8,6.9z"/>
	<path class="st1" d="M41.1,16.8c-2.5-4.1-8.4-7-15.3-7s-12.8,2.9-15.3,7H2.9v22.1V41c0,0,2,8.5,10.3,9.6h12.5h12.5
		c8.3-1.1,10.3-9.6,10.3-9.6v-2.2V16.8H41.1z"/>
</g>
</svg>
