<?xml version="1.0" encoding="utf-8"?>
<!-- Generator: Adobe Illustrator 27.5.0, SVG Export Plug-In . SVG Version: 6.00 Build 0)  -->
<svg version="1.1" id="Layer_1" xmlns="http://www.w3.org/2000/svg" xmlns:xlink="http://www.w3.org/1999/xlink" x="0px" y="0px"
	 viewBox="0 0 172.7 204.5" style="enable-background:new 0 0 172.7 204.5;" xml:space="preserve">
<style type="text/css">
	.st0{fill:none;stroke:#6D6E71;stroke-miterlimit:10;}
	.st1{fill:#BCBEC0;stroke:#6D6E71;stroke-width:0.9354;stroke-miterlimit:10;}
	.st2{fill:none;stroke:#6D6E71;stroke-width:0.9354;stroke-miterlimit:10;}
	.st3{fill:#FFFFFF;}
	.st4{fill:#6D6E71;}
	.st5{fill:none;stroke:#00AEEF;stroke-width:2;stroke-miterlimit:10;}
	.st6{fill:#00AEEF;}
</style>
<g>
	<path class="st0" d="M85.8,167.7c-37.1,0-54.4-22.6-60.7-33.6c-1.9-3.3-2.9-7.1-2.9-11l0-56.6c0-3.5,0.6-6.9,2-10.1
		c2.9-6.8,7.9-13.5,10.4-16.7c1-1.2,2.4-1.9,4-1.9h47.2H86h47.2c1.5,0,3,0.7,4,1.9c2.8,3.5,8.6,11.3,11.3,18.8
		c0.8,2.3,1.2,4.7,1.2,7.1c0,10.1,0,44.4,0,57.5c0,3.8-1,7.6-2.9,11c-6.3,11-23.6,33.6-60.7,33.6"/>
	<line class="st0" x1="149.6" y1="62.8" x2="22.2" y2="62.8"/>
	<circle class="st0" cx="124.8" cy="51.1" r="7.1"/>
	<path class="st1" d="M104.7,139.8c0-4.4,3.6-8.1,8.1-8.1c4.4,0,8.1,3.6,8.1,8.1c0,4.4-3.6,8.1-8.1,8.1
		C108.4,147.9,104.7,144.3,104.7,139.8z M119,139.8c0-3.4-2.8-6.2-6.2-6.2s-6.2,2.8-6.2,6.2s2.8,6.2,6.2,6.2S119,143.2,119,139.8z"
		/>
	<circle class="st0" cx="109.2" cy="51.1" r="7.1"/>
	<circle class="st0" cx="93.7" cy="51.1" r="7.1"/>
	<circle class="st0" cx="78.1" cy="51.1" r="7.1"/>
	<circle class="st0" cx="62.5" cy="51.1" r="7.1"/>
	<circle class="st0" cx="46.9" cy="51.1" r="7.1"/>
	<path class="st1" d="M34.3,132.5c0-0.1,0-0.1,0-0.2c0.1-0.5,0.6-0.8,1.1-0.7l46.3,10.6c0.2,0,0.3,0.1,0.4,0.2
		c1.2,1.1,2.7,1.8,4.3,1.8c3.4,0,6.2-2.8,6.2-6.2s-2.8-6.2-6.2-6.2c-0.7,0-1.3,0.1-2,0.3c-0.2,0.1-0.3,0.1-0.5,0.1c0,0-0.1,0-0.1,0
		l-44.8-13.4c-0.5-0.1-0.8-0.7-0.6-1.2c0.1-0.5,0.7-0.8,1.2-0.6l44.5,13.3c0.8-0.2,1.6-0.4,2.4-0.4c4.4,0,8.1,3.6,8.1,8.1
		c0,4.4-3.6,8.1-8.1,8.1c-2,0-4-0.8-5.5-2.1l-46-10.5C34.6,133.3,34.3,133,34.3,132.5z"/>
	<line class="st2" x1="22" y1="105.5" x2="149.6" y2="105.5"/>
	<g>
		<circle class="st0" cx="46.9" cy="51.1" r="5.3"/>
		<line class="st0" x1="46.9" y1="45.8" x2="46.9" y2="56.4"/>
	</g>
	<g>
		<circle class="st0" cx="62.5" cy="51.1" r="5.3"/>
		<line class="st0" x1="62.5" y1="45.8" x2="62.5" y2="56.4"/>
	</g>
	<g>
		<circle class="st0" cx="78.1" cy="51.1" r="5.3"/>
		<line class="st0" x1="78.1" y1="45.8" x2="78.1" y2="56.4"/>
	</g>
	<g>
		<circle class="st0" cx="93.7" cy="51.1" r="5.3"/>
		<line class="st0" x1="93.7" y1="45.8" x2="93.7" y2="56.4"/>
	</g>
	<g>
		<circle class="st0" cx="109.2" cy="51.1" r="5.3"/>
		<line class="st0" x1="109.2" y1="45.8" x2="109.2" y2="56.4"/>
	</g>
	<g>
		<circle class="st0" cx="124.8" cy="51.1" r="5.3"/>
		<line class="st0" x1="124.8" y1="45.8" x2="124.8" y2="56.4"/>
	</g>
</g>
<g>
	<g>
		<path d="M27.2,65.7c-0.7,0-1.3,0.6-1.3,1.3v34.7c0,0.7,0.6,1.3,1.3,1.3h117.6c0.7,0,1.3-0.6,1.3-1.3V66.9c0-0.7-0.6-1.3-1.3-1.3
			H27.2z"/>
		<path class="st3" d="M121.3,73.5c0,0,0.6,0.6,1.5,0.6c0.6,0,1.1-0.4,1.1-1c0-1.4-2.8-1.1-2.8-2.8c0-0.8,0.7-1.5,1.8-1.5
			c1,0,1.5,0.5,1.5,0.5l-0.3,0.5c0,0-0.5-0.5-1.2-0.5c-0.7,0-1.2,0.5-1.2,1c0,1.3,2.8,1,2.8,2.8c0,0.8-0.6,1.5-1.7,1.5
			c-1.2,0-1.8-0.7-1.8-0.7L121.3,73.5z"/>
		<path class="st3" d="M125.3,74.2c0-2,2.9-2.2,2.9-3.8c0-0.6-0.5-1.1-1.2-1.1c-0.8,0-1.3,0.8-1.3,0.8l-0.4-0.3c0,0,0.5-1,1.7-1
			c1.1,0,1.7,0.7,1.7,1.6c0,1.9-2.8,2.2-2.8,3.6h2.9v0.5h-3.5C125.3,74.4,125.3,74.3,125.3,74.2"/>
		<path class="st3" d="M105.9,73.5c0,0,0.6,0.6,1.5,0.6c0.6,0,1.1-0.4,1.1-1c0-1.4-2.8-1.1-2.8-2.8c0-0.8,0.7-1.5,1.8-1.5
			c1,0,1.5,0.5,1.5,0.5l-0.3,0.5c0,0-0.5-0.5-1.2-0.5c-0.7,0-1.2,0.5-1.2,1c0,1.3,2.8,1,2.8,2.8c0,0.8-0.6,1.5-1.7,1.5
			c-1.2,0-1.8-0.7-1.8-0.7L105.9,73.5z"/>
		<path class="st3" d="M110,74.1h1.3v-4.1c0-0.2,0-0.3,0-0.3h0c0,0-0.1,0.1-0.3,0.3l-0.6,0.6l-0.4-0.4l1.3-1.3h0.5v5.1h1.2v0.5h-3
			V74.1z"/>
	</g>
	<polygon class="st3" points="76.8,69 77.4,69 77.4,74.1 80,74.1 80,74.6 76.8,74.6 	"/>
	<polygon class="st3" points="92.2,69 92.7,69 92.7,74.1 95.3,74.1 95.3,74.6 92.2,74.6 	"/>
	<g>
		<path class="st3" d="M44.9,69h0.5l2.9,4c0.2,0.3,0.5,0.8,0.5,0.8h0c0,0,0-0.5,0-0.8v-4h0.6v5.6h-0.5l-2.9-4
			c-0.2-0.3-0.5-0.8-0.5-0.8h0c0,0,0,0.5,0,0.8v4h-0.6V69z"/>
		<path class="st3" d="M65.5,72.6c0,0.8-0.6,1.5-1.3,1.5c-0.7,0-1.2-0.6-1.3-1.4l1.6-0.9l0.3,0.6l1-1.6L64,70.7l0.3,0.6l-1.4,0.8
			c-0.2-0.9-0.9-1.6-1.7-1.6c-1,0-1.8,0.9-1.8,2h0.5c0-0.8,0.6-1.5,1.3-1.5c0.6,0,1.2,0.6,1.3,1.3l-2.9,1.7l0.2,0.4l2.7-1.5
			c0.2,0.9,0.9,1.7,1.7,1.7c1,0,1.8-0.9,1.8-2H65.5z"/>
	</g>
	<rect x="41.3" y="76.5" class="st3" width="89.4" height="10.9"/>
	<g>
		<path d="M44.7,79.6H46v2h1.8v-2H49v5h-1.2v-2H46v2h-1.2V79.6z"/>
		<path d="M51.7,80.9c1.1,0,1.7,0.7,1.7,1.7c0,0.1,0,0.4,0,0.4H51c0.1,0.4,0.5,0.6,0.8,0.6c0.5,0,1-0.4,1-0.4l0.4,0.8
			c0,0-0.6,0.5-1.5,0.5c-1.3,0-2-0.9-2-1.9C49.8,81.7,50.5,80.9,51.7,80.9z M52.1,82.3c0-0.3-0.2-0.5-0.5-0.5
			c-0.4,0-0.5,0.3-0.6,0.5H52.1z"/>
		<path d="M55.8,82.3L55.8,82.3L55.8,82.3c0-0.4-0.2-0.5-0.5-0.5c-0.5,0-1,0.3-1,0.3l-0.4-0.9c0,0,0.6-0.5,1.5-0.5
			c1,0,1.6,0.6,1.6,1.5v2.2H56v-0.2c0-0.1,0-0.2,0-0.2h0c0,0-0.3,0.5-1,0.5c-0.7,0-1.2-0.4-1.2-1.2C53.7,82.4,55.2,82.3,55.8,82.3z
			 M55.3,83.7c0.3,0,0.6-0.3,0.6-0.6V83h-0.1c-0.4,0-0.8,0.1-0.8,0.4C54.9,83.6,55,83.7,55.3,83.7z"/>
		<path d="M58.1,82h-0.5V81h0.5v-1h1.2v1H60V82h-0.8v1.1c0,0.4,0.4,0.5,0.6,0.5c0.1,0,0.2,0,0.2,0v1c0,0-0.1,0-0.3,0
			c-0.6,0-1.7-0.2-1.7-1.4V82z"/>
		<path d="M60.8,81H62v3.6h-1.2V81z M60.8,79.6H62v0.9h-1.2V79.6z"/>
		<path d="M63.1,82h-0.5V81h0.5v-1h1.2v1h0.8V82h-0.8v1.1c0,0.4,0.4,0.5,0.6,0.5c0.1,0,0.2,0,0.2,0v1c0,0-0.1,0-0.3,0
			c-0.6,0-1.7-0.2-1.7-1.4V82z"/>
		<path d="M67.2,83.8l1.9-2.7c0.2-0.3,0.4-0.5,0.4-0.5v0c0,0-0.2,0-0.4,0h-1.8v-1.1h3.8v0.8l-1.9,2.8c-0.2,0.3-0.4,0.5-0.4,0.5v0
			c0,0,0.2,0,0.4,0h2v1.1h-3.9V83.8z"/>
		<path d="M72.3,79.6h1.3l0.7,2.1c0.1,0.3,0.3,0.8,0.3,0.8h0c0,0,0.1-0.5,0.3-0.8l0.7-2.1h1.3l0.4,5h-1.2l-0.2-2.3
			c0-0.4,0-0.8,0-0.8h0c0,0-0.2,0.5-0.3,0.8l-0.5,1.4h-1.1l-0.5-1.4c-0.1-0.3-0.3-0.8-0.3-0.8h0c0,0,0,0.5,0,0.8l-0.2,2.3h-1.2
			L72.3,79.6z"/>
		<path d="M79.9,79.6h1.8c1.6,0,2.6,0.9,2.6,2.5c0,1.6-1,2.5-2.6,2.5h-1.8V79.6z M81.7,83.5c0.8,0,1.4-0.5,1.4-1.5
			c0-1-0.5-1.4-1.4-1.4h-0.5v2.9H81.7z"/>
		<path d="M85,81h1.2v3.6H85V81z M85,79.6h1.2v0.9H85V79.6z"/>
		<path d="M87.1,81h1.2v0.3c0,0.1,0,0.2,0,0.2h0c0.2-0.3,0.5-0.6,1.1-0.6c0.5,0,0.8,0.2,1,0.6h0c0.2-0.3,0.6-0.6,1.2-0.6
			c0.7,0,1.2,0.4,1.2,1.4v2.3h-1.2v-2.1c0-0.3,0-0.5-0.3-0.5c-0.4,0-0.6,0.3-0.7,0.7c0,0.1,0,0.3,0,0.4v1.5h-1.2v-2.1
			c0-0.3,0-0.5-0.3-0.5c-0.4,0-0.6,0.3-0.7,0.7c0,0.1,0,0.3,0,0.4v1.5h-1.2V81z"/>
		<path d="M93.6,81h1.2v0.3c0,0.1,0,0.2,0,0.2h0c0.2-0.3,0.5-0.6,1.1-0.6c0.5,0,0.8,0.2,1,0.6h0c0.2-0.3,0.6-0.6,1.2-0.6
			c0.7,0,1.2,0.4,1.2,1.4v2.3h-1.2v-2.1c0-0.3,0-0.5-0.3-0.5c-0.4,0-0.6,0.3-0.7,0.7c0,0.1,0,0.3,0,0.4v1.5h-1.2v-2.1
			c0-0.3,0-0.5-0.3-0.5c-0.4,0-0.6,0.3-0.7,0.7c0,0.1,0,0.3,0,0.4v1.5h-1.2V81z"/>
		<path d="M101.6,80.9c1.1,0,1.7,0.7,1.7,1.7c0,0.1,0,0.4,0,0.4H101c0.1,0.4,0.5,0.6,0.8,0.6c0.5,0,1-0.4,1-0.4l0.4,0.8
			c0,0-0.6,0.5-1.5,0.5c-1.3,0-2-0.9-2-1.9C99.7,81.7,100.4,80.9,101.6,80.9z M102.1,82.3c0-0.3-0.2-0.5-0.5-0.5
			c-0.4,0-0.5,0.3-0.6,0.5H102.1z"/>
		<path d="M103.9,81h1.2v0.6c0,0.1,0,0.2,0,0.2h0c0.2-0.5,0.6-0.9,1.1-0.9c0.1,0,0.1,0,0.1,0v1.2c0,0-0.1,0-0.2,0
			c-0.3,0-0.8,0.1-0.9,0.6c0,0.1-0.1,0.3-0.1,0.5v1.4h-1.2V81z"/>
		<path d="M108.4,84c0-1.8,2.2-2.2,2.2-2.9c0-0.4-0.3-0.5-0.5-0.5c-0.5,0-0.7,0.5-0.7,0.5l-0.9-0.6c0,0,0.5-1.1,1.8-1.1
			c0.8,0,1.7,0.5,1.7,1.5c0,1.6-2,1.9-2.1,2.5h2.1v1.1h-3.5C108.4,84.4,108.4,84.2,108.4,84z"/>
		<path d="M113.2,83.1c0,0,0.5,0.4,1,0.4c0.3,0,0.7-0.2,0.7-0.6c0-0.4-0.3-0.6-0.8-0.6c-0.4,0-0.7,0.2-0.7,0.2l-0.7-0.2l0.2-2.6h2.8
			v1.1H114l0,0.5c0,0.1,0,0.2,0,0.2h0c0,0,0.2,0,0.4,0c1.2,0,1.8,0.7,1.8,1.6c0,1-0.8,1.8-1.9,1.8c-1.1,0-1.7-0.7-1.7-0.7
			L113.2,83.1z"/>
		<path d="M116.7,82.1c0-1.4,0.5-2.6,1.9-2.6s1.9,1.1,1.9,2.6c0,1.4-0.5,2.6-1.9,2.6S116.7,83.5,116.7,82.1z M119.3,82.1
			c0-0.8-0.1-1.5-0.6-1.5s-0.6,0.6-0.6,1.5c0,0.8,0.1,1.5,0.6,1.5S119.3,82.9,119.3,82.1z"/>
		<path d="M121,79.6h1.3l0.6,3.1c0.1,0.3,0.1,0.5,0.1,0.5h0c0,0,0-0.2,0.1-0.5l0.8-3.1h1l0.7,3.1c0.1,0.3,0.1,0.5,0.1,0.5h0
			c0,0,0-0.2,0.1-0.5l0.7-3.1h1.3l-1.3,5h-1.4l-0.6-2.5c-0.1-0.3-0.1-0.6-0.1-0.6h0c0,0,0,0.3-0.1,0.6l-0.6,2.5h-1.4L121,79.6z"/>
	</g>
	<g>
		<path class="st3" d="M42.4,93.7c0-1.3,1.7-1.5,1.7-2.2c0-0.3-0.2-0.5-0.5-0.5c-0.4,0-0.6,0.4-0.6,0.4l-0.5-0.3
			c0,0,0.3-0.7,1.2-0.7c0.6,0,1.2,0.4,1.2,1.1c0,1.1-1.6,1.3-1.6,2h1.7V94h-2.4C42.4,93.9,42.4,93.8,42.4,93.7z"/>
		<path class="st3" d="M45.6,93.1c0,0,0.3,0.4,0.8,0.4c0.4,0,0.6-0.2,0.6-0.5c0-0.4-0.3-0.6-0.8-0.6H46l-0.1-0.3l0.7-0.8
			c0.1-0.2,0.3-0.3,0.3-0.3v0c0,0-0.1,0-0.3,0h-1.1v-0.6h2.2v0.4l-0.9,1c0.5,0.1,1,0.4,1,1c0,0.6-0.5,1.2-1.3,1.2
			c-0.8,0-1.2-0.5-1.2-0.5L45.6,93.1z"/>
		<path class="st3" d="M48.2,92.3c0-1,0.3-1.8,1.3-1.8c1,0,1.3,0.8,1.3,1.8c0,1-0.3,1.8-1.3,1.8C48.5,94.1,48.2,93.3,48.2,92.3z
			 M50.1,92.3c0-0.7-0.1-1.2-0.6-1.2c-0.5,0-0.6,0.5-0.6,1.2c0,0.7,0.1,1.3,0.6,1.3C50,93.5,50.1,93,50.1,92.3z"/>
		<path class="st3" d="M51.1,90.5h0.7l0.8,2.3c0.1,0.2,0.1,0.5,0.1,0.5h0c0,0,0.1-0.3,0.1-0.5l0.8-2.3h0.7L53,94h-0.6L51.1,90.5z"/>
		<path class="st3" d="M56.4,93.1h-1.2L54.8,94h-0.7l1.3-3.6h0.7l1.3,3.6h-0.7L56.4,93.1z M55.7,91.1c0,0-0.1,0.3-0.1,0.5l-0.3,1
			h0.9l-0.3-1C55.8,91.5,55.8,91.1,55.7,91.1L55.7,91.1z"/>
		<path class="st3" d="M59.4,90.4c0.9,0,1.3,0.5,1.3,0.5l-0.3,0.5c0,0-0.4-0.4-1-0.4c-0.8,0-1.2,0.6-1.2,1.2c0,0.7,0.5,1.3,1.2,1.3
			c0.6,0,1-0.5,1-0.5l0.3,0.5c0,0-0.5,0.6-1.4,0.6c-1.1,0-1.8-0.8-1.8-1.9C57.5,91.2,58.3,90.4,59.4,90.4z"/>
		<path class="st3" d="M62,92.1c0.5,0,0.6,0.5,0.9,0.5c0.2,0,0.3-0.2,0.3-0.4h0.5c0,0.6-0.3,0.9-0.8,0.9c-0.5,0-0.6-0.5-0.9-0.5
			c-0.2,0-0.3,0.2-0.3,0.4h-0.5C61.2,92.4,61.5,92.1,62,92.1z"/>
		<path class="st3" d="M64.5,93.1c0,0,0.3,0.4,0.8,0.4c0.3,0,0.7-0.2,0.7-0.6c0-0.4-0.3-0.6-0.7-0.6c-0.3,0-0.6,0.2-0.6,0.2
			l-0.4-0.1l0.2-1.8h1.9V91H65L65,91.6c0,0.1,0,0.2,0,0.2h0c0,0,0.2-0.1,0.4-0.1c0.8,0,1.3,0.5,1.3,1.2c0,0.7-0.5,1.2-1.3,1.2
			c-0.8,0-1.1-0.5-1.1-0.5L64.5,93.1z"/>
		<path class="st3" d="M67.1,92.3c0-1,0.3-1.8,1.3-1.8c1,0,1.3,0.8,1.3,1.8c0,1-0.3,1.8-1.3,1.8C67.4,94.1,67.1,93.3,67.1,92.3z
			 M69,92.3c0-0.7-0.1-1.2-0.6-1.2c-0.5,0-0.6,0.5-0.6,1.2c0,0.7,0.1,1.3,0.6,1.3C68.9,93.5,69,93,69,92.3z"/>
		<path class="st3" d="M70.4,90.5H71V92h1.6v-1.5h0.6V94h-0.6v-1.5H71V94h-0.6V90.5z"/>
		<path class="st3" d="M73.9,93.7l1.1-1.4c0.1-0.1,0.2-0.2,0.2-0.2v0c0,0-0.1,0-0.2,0H74v-0.5h2.2v0.3L75,93.3
			c-0.1,0.1-0.2,0.2-0.2,0.2v0c0,0,0.1,0,0.2,0h1.2V94h-2.3V93.7z"/>
	</g>
	<g>
		<path class="st3" d="M82.3,93.8c-0.2,0.1-0.5,0.2-1,0.2c-0.9,0-1.3-0.5-1.3-1.1c0-0.5,0.4-0.9,0.8-0.9v0c-0.5-0.2-0.7-0.5-0.7-0.9
			c0-0.4,0.3-0.9,1.1-0.9c0.4,0,0.8,0.1,1,0.3L82,90.9c-0.2-0.1-0.4-0.2-0.7-0.2c-0.5,0-0.6,0.3-0.6,0.6c0,0.4,0.5,0.6,0.8,0.6h0.3
			v0.4h-0.3c-0.5,0-0.9,0.2-1,0.7c0,0.3,0.2,0.7,0.8,0.7c0.3,0,0.7-0.1,0.8-0.2L82.3,93.8z"/>
	</g>
	<g>
		<path class="st3" d="M86.5,93.1c0,0,0.3,0.4,0.8,0.4c0.3,0,0.7-0.2,0.7-0.6c0-0.4-0.3-0.6-0.7-0.6c-0.3,0-0.5,0.2-0.5,0.2
			l-0.4-0.1l0.2-1.8h1.9V91H87L87,91.6c0,0.1,0,0.2,0,0.2h0c0,0,0.2-0.1,0.4-0.1c0.8,0,1.3,0.5,1.3,1.2c0,0.7-0.5,1.2-1.3,1.2
			c-0.8,0-1.1-0.5-1.1-0.5L86.5,93.1z"/>
		<path class="st3" d="M89.2,92.3h1.5v0.6h-1.5V92.3z"/>
		<path class="st3" d="M91.3,93.7c0-1.3,1.7-1.5,1.7-2.2c0-0.3-0.2-0.5-0.5-0.5c-0.4,0-0.6,0.4-0.6,0.4l-0.5-0.3
			c0,0,0.3-0.7,1.2-0.7c0.6,0,1.2,0.4,1.2,1.1c0,1.1-1.6,1.3-1.6,2h1.7V94h-2.4C91.4,93.9,91.3,93.8,91.3,93.7z"/>
		<path class="st3" d="M94.5,93.1c0,0,0.3,0.4,0.8,0.4c0.3,0,0.7-0.2,0.7-0.6c0-0.4-0.3-0.6-0.7-0.6c-0.3,0-0.5,0.2-0.5,0.2
			l-0.4-0.1l0.2-1.8h1.9V91h-1.3L95,91.6c0,0.1,0,0.2,0,0.2h0c0,0,0.2-0.1,0.4-0.1c0.8,0,1.3,0.5,1.3,1.2c0,0.7-0.5,1.2-1.3,1.2
			c-0.8,0-1.1-0.5-1.1-0.5L94.5,93.1z"/>
		<path class="st3" d="M97.1,92.3c0-1,0.3-1.8,1.3-1.8c1,0,1.3,0.8,1.3,1.8c0,1-0.3,1.8-1.3,1.8C97.4,94.1,97.1,93.3,97.1,92.3z
			 M99,92.3c0-0.7-0.1-1.2-0.6-1.2s-0.6,0.5-0.6,1.2c0,0.7,0.1,1.3,0.6,1.3S99,93,99,92.3z"/>
		<path class="st3" d="M103.3,92.9c0.1,0.2,0.1,0.4,0.1,0.4h0c0,0,0-0.2,0.1-0.4l0.6-2.5h0.7l-0.9,3.6H103l-0.5-2.1
			c-0.1-0.2-0.1-0.5-0.1-0.5h0c0,0,0,0.2-0.1,0.5l-0.5,2.1H101l-0.9-3.6h0.7l0.6,2.5c0,0.2,0.1,0.4,0.1,0.4h0c0,0,0-0.2,0.1-0.4
			l0.6-2.5h0.6L103.3,92.9z"/>
		<path class="st3" d="M106.5,90.5h0.6v3h1.5V94h-2.2V90.5z"/>
		<path class="st3" d="M109.2,90.5h2.1V91h-1.5V92h1.2v0.6h-1.2v1h1.6V94h-2.2V90.5z"/>
		<path class="st3" d="M112.1,90.5h1.2c1.1,0,1.8,0.7,1.8,1.8s-0.7,1.8-1.8,1.8h-1.2V90.5z M113.2,93.5c0.7,0,1.2-0.4,1.2-1.2
			c0-0.8-0.5-1.2-1.2-1.2h-0.5v2.4H113.2z"/>
	</g>
	<rect x="117" y="92" class="st3" width="0.6" height="0.6"/>
	<g>
		<path class="st3" d="M119.7,90.5h0.6V94h-0.6V90.5z"/>
		<path class="st3" d="M121.3,90.5h1.4c0.7,0,1.1,0.5,1.1,1.2s-0.5,1.2-1.1,1.2h-0.7V94h-0.6V90.5z M122.5,92.3
			c0.4,0,0.6-0.2,0.6-0.6c0-0.4-0.2-0.6-0.6-0.6h-0.6v1.2H122.5z"/>
		<path class="st3" d="M124.1,93.7c0-1.3,1.7-1.5,1.7-2.2c0-0.3-0.2-0.5-0.5-0.5c-0.4,0-0.6,0.4-0.6,0.4l-0.5-0.3
			c0,0,0.3-0.7,1.2-0.7c0.6,0,1.2,0.4,1.2,1.1c0,1.1-1.6,1.3-1.6,2h1.7V94h-2.4C124.2,93.9,124.1,93.8,124.1,93.7z"/>
		<path class="st3" d="M127.1,92.3c0-1,0.3-1.8,1.3-1.8c1,0,1.3,0.8,1.3,1.8c0,1-0.3,1.8-1.3,1.8C127.4,94.1,127.1,93.3,127.1,92.3z
			 M129,92.3c0-0.7-0.1-1.2-0.6-1.2c-0.5,0-0.6,0.5-0.6,1.2c0,0.7,0.1,1.3,0.6,1.3C128.8,93.5,129,93,129,92.3z"/>
	</g>
	<g>
		<path class="st3" d="M60.8,99.1l1.6-2.3c0.1-0.2,0.3-0.3,0.3-0.3v0c0,0-0.1,0-0.3,0h-1.5V96h2.6v0.4l-1.6,2.3
			c-0.1,0.2-0.3,0.3-0.3,0.3v0c0,0,0.1,0,0.3,0h1.6v0.6h-2.7V99.1z"/>
		<path class="st3" d="M63.8,97.8h1.5v0.6h-1.5V97.8z"/>
		<path class="st3" d="M68.9,98.4c0.1,0.2,0.1,0.4,0.1,0.4h0c0,0,0-0.2,0.1-0.4l0.6-2.5h0.7l-0.9,3.6h-0.7l-0.5-2.1
			C68,97.2,68,97,68,97h0c0,0,0,0.2-0.1,0.5l-0.5,2.1h-0.7L65.7,96h0.7l0.6,2.5c0,0.2,0.1,0.4,0.1,0.4h0c0,0,0-0.2,0.1-0.4l0.6-2.5
			h0.6L68.9,98.4z"/>
		<path class="st3" d="M72,97.9L72,97.9L72,97.9c0.1-0.4-0.1-0.5-0.4-0.5c-0.4,0-0.7,0.2-0.7,0.2l-0.2-0.5c0,0,0.4-0.3,1-0.3
			c0.7,0,1.1,0.4,1.1,1v1.6h-0.6v-0.2c0-0.1,0-0.2,0-0.2h0c0,0-0.2,0.5-0.8,0.5c-0.5,0-0.9-0.3-0.9-0.8C70.5,98,71.6,97.9,72,97.9z
			 M71.5,99.1c0.3,0,0.6-0.4,0.6-0.7v-0.1H72c-0.3,0-0.9,0-0.9,0.4C71.1,98.9,71.2,99.1,71.5,99.1z"/>
		<path class="st3" d="M73,97h0.7l0.5,1.6c0,0.2,0.1,0.4,0.1,0.4h0c0,0,0-0.2,0.1-0.4l0.5-1.6h0.7l-0.9,2.6h-0.8L73,97z"/>
		<path class="st3" d="M77.1,96.9c0.7,0,1.1,0.5,1.1,1.2c0,0.1,0,0.2,0,0.2h-1.8c0,0.4,0.4,0.7,0.8,0.7c0.4,0,0.7-0.3,0.7-0.3
			l0.2,0.5c0,0-0.4,0.4-1,0.4c-0.8,0-1.4-0.6-1.4-1.3C75.8,97.5,76.3,96.9,77.1,96.9z M77.5,98c0-0.3-0.2-0.5-0.5-0.5
			c-0.3,0-0.6,0.2-0.6,0.5H77.5z"/>
		<path class="st3" d="M80,96h2.1v0.6h-1.5v0.9h1.2V98h-1.2v1h1.6v0.6H80V96z"/>
		<path class="st3" d="M82.9,96h0.6v2.3c0,0.5,0.3,0.7,0.8,0.7c0.5,0,0.8-0.3,0.8-0.8V96h0.6v2.3c0,0.8-0.6,1.3-1.4,1.3
			c-0.9,0-1.4-0.5-1.4-1.3V96z"/>
		<path class="st3" d="M88.1,97.6c-0.2-0.2-0.4-0.4-0.4-0.7c0-0.5,0.4-1,1.1-1c0.7,0,1.2,0.4,1.2,1c0,0.4-0.4,0.8-0.4,0.9
			c0.3,0.2,0.5,0.4,0.5,0.8c0,0.5-0.5,1.1-1.3,1.1c-0.8,0-1.3-0.5-1.3-1.1C87.6,98,88,97.7,88.1,97.6z M88.6,97.9
			c-0.1,0.1-0.3,0.3-0.3,0.6c0,0.3,0.3,0.6,0.6,0.6c0.3,0,0.6-0.2,0.6-0.5C89.5,98.2,89,98.1,88.6,97.9z M89.2,97.6
			c0-0.1,0.2-0.3,0.2-0.6c0-0.3-0.2-0.5-0.5-0.5c-0.3,0-0.5,0.2-0.5,0.4C88.4,97.2,88.8,97.4,89.2,97.6z"/>
		<path class="st3" d="M90.7,97.9c0-0.9,0.5-2,1.6-2c0.5,0,0.7,0.2,0.7,0.2l-0.2,0.6c0,0-0.2-0.1-0.5-0.1c-0.6,0-0.9,0.5-0.9,1h0
			c0.1-0.1,0.4-0.2,0.7-0.2c0.7,0,1.1,0.5,1.1,1.2c0,0.7-0.5,1.2-1.2,1.2C91.3,99.6,90.7,99,90.7,97.9z M92.6,98.4
			c0-0.4-0.2-0.7-0.7-0.7c-0.3,0-0.6,0.2-0.6,0.4c0,0.4,0.3,0.9,0.7,0.9C92.4,99,92.6,98.7,92.6,98.4z"/>
		<path class="st3" d="M94.2,97.6c-0.2-0.2-0.4-0.4-0.4-0.7c0-0.5,0.4-1,1.1-1c0.7,0,1.2,0.4,1.2,1c0,0.4-0.4,0.8-0.4,0.9
			c0.3,0.2,0.5,0.4,0.5,0.8c0,0.5-0.5,1.1-1.3,1.1c-0.8,0-1.3-0.5-1.3-1.1C93.7,98,94.1,97.7,94.2,97.6z M94.7,97.9
			c-0.1,0.1-0.3,0.3-0.3,0.6c0,0.3,0.3,0.6,0.6,0.6c0.3,0,0.6-0.2,0.6-0.5C95.5,98.2,95.1,98.1,94.7,97.9z M95.3,97.6
			c0-0.1,0.2-0.3,0.2-0.6c0-0.3-0.2-0.5-0.5-0.5c-0.3,0-0.5,0.2-0.5,0.4C94.5,97.2,94.8,97.4,95.3,97.6z"/>
		<path class="st3" d="M96.8,98.9h0.6v0.6h-0.6V98.9z"/>
		<path class="st3" d="M97.7,98.2l1.5-2.2h0.8v2.1h0.5v0.5H100v0.9h-0.6v-0.9h-1.7V98.2z M99.4,98.1V97c0-0.2,0-0.4,0-0.4h0
			c0,0-0.1,0.2-0.2,0.3l-0.8,1.1v0H99.4z"/>
		<path class="st3" d="M101.3,96h0.7l0.7,1.8c0.1,0.2,0.2,0.5,0.2,0.5h0c0,0,0.1-0.3,0.2-0.5l0.7-1.8h0.7l0.3,3.6h-0.6l-0.2-2
			c0-0.2,0-0.5,0-0.5h0c0,0-0.1,0.3-0.2,0.5l-0.6,1.4h-0.6l-0.6-1.4c-0.1-0.2-0.2-0.6-0.2-0.6h0c0,0,0,0.3,0,0.6l-0.1,2H101
			L101.3,96z"/>
		<path class="st3" d="M105.5,96h0.6v1.5h1.6V96h0.6v3.6h-0.6v-1.5h-1.6v1.5h-0.6V96z"/>
		<path class="st3" d="M109,99.2l1.1-1.4c0.1-0.1,0.2-0.2,0.2-0.2v0c0,0-0.1,0-0.2,0h-1.1V97h2.2v0.3l-1.1,1.4
			c-0.1,0.1-0.2,0.2-0.2,0.2v0c0,0,0.1,0,0.2,0h1.2v0.5H109V99.2z"/>
	</g>
</g>
<g>
	<g>
		<path class="st4" d="M108,116h0.6l0.9,2.1c0.1,0.2,0.2,0.5,0.2,0.5h0c0,0,0.1-0.3,0.2-0.5l0.9-2.1h0.6l0.3,4h-0.5l-0.2-2.5
			c0-0.2,0-0.6,0-0.6h0c0,0-0.1,0.4-0.2,0.6l-0.8,1.8h-0.5l-0.8-1.8c-0.1-0.2-0.2-0.6-0.2-0.6h0c0,0,0,0.4,0,0.6l-0.2,2.5h-0.6
			L108,116z"/>
		<path class="st4" d="M112.6,116h0.5v0.6h-0.5V116z M112.6,117.1h0.5v2.8h-0.5V117.1z"/>
		<path class="st4" d="M114,117.1h0.5v0.4c0,0.1,0,0.2,0,0.2h0c0.1-0.2,0.4-0.7,1.1-0.7c0.7,0,1,0.4,1,1.1v1.8H116v-1.7
			c0-0.4-0.1-0.7-0.5-0.7c-0.4,0-0.8,0.3-0.9,0.7c0,0.1,0,0.2,0,0.4v1.3H114V117.1z"/>
		<path class="st4" d="M117.4,119.3h0.6v0.6h-0.6V119.3z"/>
	</g>
	<g>
		<path class="st4" d="M79.7,116h1.2c0.4,0,0.6,0,0.7,0.1c0.4,0.2,0.7,0.6,0.7,1.1c0,0.5-0.3,0.9-0.7,1.1v0c0,0,0,0.1,0.1,0.2
			l0.8,1.5h-0.6l-0.8-1.6h-0.8v1.6h-0.6V116z M81,117.9c0.4,0,0.7-0.3,0.7-0.7c0-0.3-0.1-0.5-0.3-0.6c-0.1-0.1-0.2-0.1-0.5-0.1h-0.6
			v1.4H81z"/>
		<path class="st4" d="M84.4,117c0.8,0,1.2,0.6,1.2,1.3c0,0.1,0,0.2,0,0.2h-2.1c0,0.6,0.5,0.9,1,0.9c0.5,0,0.8-0.3,0.8-0.3l0.2,0.4
			c0,0-0.4,0.4-1.1,0.4c-0.9,0-1.5-0.6-1.5-1.5C83,117.6,83.6,117,84.4,117z M85.1,118.2c0-0.5-0.3-0.7-0.7-0.7
			c-0.4,0-0.8,0.3-0.8,0.7H85.1z"/>
		<path class="st4" d="M86.3,119.2c0,0,0.3,0.3,0.8,0.3c0.2,0,0.5-0.1,0.5-0.4c0-0.5-1.5-0.4-1.5-1.3c0-0.5,0.5-0.8,1-0.8
			c0.6,0,0.9,0.3,0.9,0.3l-0.2,0.4c0,0-0.3-0.3-0.7-0.3c-0.2,0-0.5,0.1-0.5,0.3c0,0.5,1.5,0.4,1.5,1.3c0,0.5-0.4,0.8-1,0.8
			c-0.7,0-1.1-0.4-1.1-0.4L86.3,119.2z"/>
		<path class="st4" d="M90,117c0.8,0,1.2,0.6,1.2,1.3c0,0.1,0,0.2,0,0.2h-2.1c0,0.6,0.5,0.9,1,0.9c0.5,0,0.8-0.3,0.8-0.3l0.2,0.4
			c0,0-0.4,0.4-1.1,0.4c-0.9,0-1.5-0.6-1.5-1.5C88.6,117.6,89.2,117,90,117z M90.7,118.2c0-0.5-0.3-0.7-0.7-0.7
			c-0.4,0-0.8,0.3-0.8,0.7H90.7z"/>
		<path class="st4" d="M92,117.6h-0.4v-0.4H92v-0.8h0.5v0.8h0.7v0.4h-0.7v1.3c0,0.6,0.4,0.6,0.6,0.6c0.1,0,0.1,0,0.1,0v0.5
			c0,0-0.1,0-0.2,0c-0.4,0-1.1-0.1-1.1-1.1V117.6z"/>
	</g>
	<rect x="100.1" y="112.7" class="st4" width="0.4" height="9.9"/>
</g>
<circle class="st5" cx="86.5" cy="138" r="10.7"/>
<g>
	<g>
		<line class="st5" x1="86.5" y1="153.5" x2="86.5" y2="191.7"/>
		<g>
			<polygon class="st6" points="78.3,160.2 79.8,161.5 86.5,154.3 93.2,161.5 94.7,160.2 86.5,151.4 			"/>
		</g>
	</g>
</g>
</svg>
