<?xml version="1.0" encoding="utf-8"?>
<!-- Generator: Adobe Illustrator 27.4.1, SVG Export Plug-In . SVG Version: 6.00 Build 0)  -->
<svg version="1.1" xmlns="http://www.w3.org/2000/svg" xmlns:xlink="http://www.w3.org/1999/xlink" x="0px" y="0px"
	 viewBox="0 0 198.48 198.36" style="enable-background:new 0 0 198.48 198.36;" xml:space="preserve">
<style type="text/css">
	.st0{fill:#6D6E71;}
	.st1{fill-rule:evenodd;clip-rule:evenodd;fill:#6D6E71;}
	.st2{fill:none;stroke:#6D6E71;stroke-width:0.5;stroke-linecap:round;stroke-linejoin:round;stroke-miterlimit:10;}
	.st3{fill:#00AEEF;}
	.st4{fill:none;stroke:#00AEEF;stroke-width:1.4173;stroke-miterlimit:10;}
</style>
<g id="Design">
	<path class="st0" d="M87.16,128.54c-1.37-1.59-3.28-2.67-5.47-2.89c-3.91-0.41-7.5,2.03-8.94,5.72c0.96-4.52,4.97-7.69,9.39-7.23
		c2.05,0.21,3.86,1.17,5.21,2.6L87.16,128.54z"/>
	<path class="st0" d="M80.19,170.3c0,0.69-0.45,1.26-1,1.26c-0.49,0-0.88-0.45-0.97-1.03l1.34-0.76l0.21,0.36l0.93-1.58l-1.83-0.01
		l0.21,0.36l-1.02,0.58c-0.29-0.84-1.01-1.43-1.86-1.43c-1.1,0-2,1.01-2,2.26h1c0-0.69,0.45-1.26,1-1.26c0.47,0,0.84,0.41,0.95,0.95
		l-2.7,1.54l0.5,0.87l2.38-1.36c0.28,0.87,1.01,1.51,1.88,1.51c1.1,0,2-1.01,2-2.26H80.19z"/>
	<g>
		<path class="st0" d="M90.13,167.33c0.33-0.06,0.79-0.1,1.44-0.1c0.66,0,1.13,0.13,1.44,0.38c0.3,0.24,0.5,0.63,0.5,1.09
			c0,0.46-0.15,0.85-0.43,1.12c-0.36,0.34-0.9,0.5-1.53,0.5c-0.14,0-0.27-0.01-0.36-0.02v1.69h-1.06V167.33z M91.19,169.47
			c0.09,0.02,0.2,0.03,0.36,0.03c0.57,0,0.92-0.29,0.92-0.77c0-0.43-0.3-0.69-0.83-0.69c-0.22,0-0.36,0.02-0.44,0.04V169.47z"/>
	</g>
	<g>
		<path class="st0" d="M104.21,167.27h1.07v3.82h1.88v0.9h-2.95V167.27z"/>
	</g>
	<g>
		<path class="st0" d="M119.49,167.27h1.07v3.82h1.88v0.9h-2.95V167.27z"/>
	</g>
	<g>
		<polygon class="st0" points="182.41,172.53 156.83,172.53 182.41,160.62 		"/>
		<g>
			<path class="st0" d="M165.05,175.79c0.32-0.06,0.81-0.1,1.31-0.1c0.68,0,1.15,0.11,1.47,0.38c0.26,0.22,0.41,0.55,0.41,0.95
				c0,0.61-0.42,1.03-0.86,1.19v0.02c0.34,0.13,0.54,0.46,0.66,0.92c0.15,0.59,0.27,1.14,0.37,1.32h-0.89
				c-0.07-0.14-0.18-0.53-0.32-1.12c-0.13-0.62-0.36-0.82-0.85-0.83h-0.44v1.95h-0.86V175.79z M165.91,177.89h0.51
				c0.58,0,0.95-0.31,0.95-0.78c0-0.52-0.37-0.76-0.93-0.76c-0.27,0-0.45,0.02-0.54,0.04V177.89z"/>
			<path class="st0" d="M170.95,176.72v1.59h1.53v0.55h-1.53v1.61h-0.58v-1.61h-1.53v-0.55h1.53v-1.59H170.95z"/>
			<path class="st0" d="M176.66,180.33c-0.2,0.11-0.66,0.22-1.23,0.22c-1.51,0-2.42-0.95-2.42-2.4c0-1.56,1.08-2.51,2.54-2.51
				c0.57,0,0.98,0.12,1.16,0.21l-0.19,0.69c-0.23-0.1-0.54-0.18-0.93-0.18c-0.97,0-1.66,0.61-1.66,1.75c0,1.04,0.61,1.71,1.66,1.71
				c0.35,0,0.72-0.07,0.94-0.18L176.66,180.33z"/>
		</g>
	</g>
	<g>
		<path class="st1" d="M144.28,92.64c0-0.63-0.07-1.03-0.21-1.19c-0.19-0.21-0.39-0.32-0.8-0.32h-0.36v-0.28h3.59v0.28h-0.36
			c-0.44,0-0.74,0.13-0.93,0.39c-0.11,0.16-0.17,0.53-0.17,1.11v7.49l1.16,1.59h-1.87l-6.2-8.33v6.74c0,0.58,0.06,0.94,0.17,1.11
			c0.18,0.26,0.49,0.4,0.93,0.4h0.36v0.28h-3.59v-0.28h0.36c0.4,0,0.61-0.11,0.8-0.32c0.14-0.15,0.21-0.55,0.21-1.18v-7.77
			l-0.92-1.23h2.02l5.84,8.04L144.28,92.64z"/>
		<path class="st0" d="M141.36,86.27c5.52,0,10.02,4.5,10.02,10.02c0,2.76-1.13,5.27-2.94,7.08c-1.81,1.82-4.32,2.94-7.08,2.94
			c-5.52,0-10.02-4.5-10.02-10.02c0-2.76,1.13-5.26,2.94-7.08C136.1,87.39,138.6,86.27,141.36,86.27 M141.36,87.82
			c-2.34,0-4.45,0.95-5.99,2.49c-1.53,1.54-2.49,3.65-2.49,5.98c0,4.67,3.81,8.48,8.47,8.48c2.33,0,4.45-0.95,5.99-2.49
			c1.53-1.53,2.49-3.65,2.49-5.99C149.83,91.62,146.03,87.82,141.36,87.82"/>
	</g>
	<g>
		<g>
			<path class="st0" d="M36.08,174.58c-1.87,0-3.39-1.41-3.39-3.15c0-1.74,1.52-3.16,3.39-3.16c1.87,0,3.39,1.42,3.39,3.16
				C39.47,173.16,37.95,174.58,36.08,174.58z M36.08,168.8c-1.57,0-2.85,1.18-2.85,2.62c0,1.45,1.28,2.62,2.85,2.62
				c1.57,0,2.86-1.18,2.86-2.62C38.94,169.98,37.65,168.8,36.08,168.8z"/>
			<path class="st0" d="M37.25,168.8h-2.34v-2.82h2.34V168.8z M35.44,168.27h1.27v-1.75h-1.27V168.27z"/>
			<rect x="39.44" y="171.15" class="st0" width="1.9" height="0.53"/>
			<rect x="30.7" y="171.15" class="st0" width="1.9" height="0.53"/>
			
				<rect x="38.5" y="168.27" transform="matrix(0.6993 -0.7149 0.7149 0.6993 -108.6192 78.8841)" class="st0" width="1.89" height="0.53"/>
			
				<rect x="31.65" y="174.05" transform="matrix(0.6993 -0.7149 0.7149 0.6993 -114.8094 75.7272)" class="st0" width="1.9" height="0.53"/>
			
				<rect x="39.18" y="173.37" transform="matrix(0.6579 -0.7531 0.7531 0.6579 -117.7839 89.3425)" class="st0" width="0.53" height="1.89"/>
			<polygon class="st0" points="33.19,169.72 31.77,168.47 32.12,168.07 33.54,169.32 			"/>
			
				<rect x="35.13" y="175.26" transform="matrix(0.0351 -0.9994 0.9994 0.0351 -140.6029 205.4147)" class="st0" width="1.89" height="0.53"/>
		</g>
		<g>
			<path class="st0" d="M20.36,174.23H13.9v-5.59h6.47V174.23z M14.43,173.7h5.4v-4.52h-5.4V173.7z"/>
			<path class="st0" d="M23.13,173.69c-1.47,0-2.67-1.01-2.67-2.26c0-1.24,1.2-2.25,2.67-2.25c1.47,0,2.67,1.01,2.67,2.25
				C25.81,172.68,24.61,173.69,23.13,173.69z M23.13,169.72c-1.18,0-2.14,0.77-2.14,1.72c0,0.95,0.96,1.72,2.14,1.72
				c1.18,0,2.14-0.77,2.14-1.72C25.27,170.49,24.31,169.72,23.13,169.72z"/>
			<rect x="20.25" y="169.18" class="st0" width="3.24" height="0.53"/>
			
				<rect x="20.95" y="171.18" transform="matrix(0.7423 -0.67 0.67 0.7423 -108.9166 59.6703)" class="st0" width="4.34" height="0.53"/>
			<polygon class="st0" points="24.39,173.22 21.48,170 21.88,169.64 24.79,172.86 			"/>
			
				<rect x="13.23" y="171.17" transform="matrix(0.7615 -0.6482 0.6482 0.7615 -107.0396 51.9985)" class="st0" width="7.8" height="0.53"/>
			<rect x="13" y="169.56" class="st0" width="0.96" height="0.53"/>
			<rect x="13" y="172.78" class="st0" width="0.96" height="0.53"/>
			<rect x="20.25" y="173.16" class="st0" width="3.24" height="0.53"/>
		</g>
		<rect x="23.65" y="158.11" class="st0" width="0.53" height="6.85"/>
		
			<rect x="20.94" y="156.62" transform="matrix(0.535 -0.8448 0.8448 0.535 -125.1635 92.2343)" class="st0" width="0.53" height="6.41"/>
		
			<rect x="18.01" y="162.98" transform="matrix(0.8445 -0.5356 0.5356 0.8445 -84.1402 36.7513)" class="st0" width="6.41" height="0.53"/>
		<rect x="18.24" y="158.11" class="st0" width="0.53" height="6.85"/>
		<rect x="23.92" y="161.27" class="st0" width="4.27" height="0.53"/>
		<rect x="12.01" y="161.27" class="st0" width="6.49" height="0.53"/>
		<polygon class="st0" points="20.02,158.98 19.61,158.64 20.52,157.55 20.93,157.89 		"/>
		<polygon class="st0" points="19.79,157.31 21.64,156.63 21.29,158.57 		"/>
		<polygon class="st0" points="21.64,160 21.23,159.65 22.15,158.56 22.56,158.91 		"/>
		<polygon class="st0" points="21.41,158.32 23.26,157.65 22.92,159.59 		"/>
	</g>
	<g>
		<g id="CE_White_00000115482499661243864570000010633420939293438875_">
			<g>
				<path class="st0" d="M149.83,22.04v2.12c-0.23,0.02-0.47,0.04-0.71,0.04c-3.94,0-7.15-3.21-7.15-7.14
					c0-3.93,3.21-7.14,7.15-7.14c0.24,0,0.47,0.01,0.71,0.04v2.12c-0.23-0.03-0.47-0.05-0.71-0.05c-2.78,0-5.04,2.27-5.04,5.04
					c0,2.78,2.26,5.04,5.04,5.04C149.36,22.09,149.6,22.07,149.83,22.04"/>
				<path class="st0" d="M156.47,15.96l4.13,0v2.18l-4.13,0c0.5,2.25,2.52,3.95,4.92,3.95c0.24,0,0.48-0.02,0.71-0.05v2.12
					c-0.23,0.02-0.47,0.03-0.71,0.03c-3.94,0-7.14-3.21-7.14-7.14c0-3.93,3.21-7.14,7.14-7.14c0.24,0,0.48,0.01,0.71,0.04v2.12
					c-0.23-0.03-0.47-0.05-0.71-0.05C158.99,12.01,156.97,13.7,156.47,15.96"/>
			</g>
		</g>
		<g id="Artwork_5_00000135677114948499816070000015030646202153611190_">
			<path class="st0" d="M171.88,11.64h-1.17v0.18h1.17V11.64z M168.55,12.21c-0.18,0.1-0.32,0.22-0.4,0.36h0.4V12.21z M174.6,13.95
				l-0.44,0.45l-0.02,0.23h0.53v-0.67H174.6z M170.64,17.52l-2.27-2.39l0.37,4.32L170.64,17.52z M171.09,17.53l2.17,2.28l0.45-4.83
				h-0.04v-0.08L171.09,17.53z M168.33,14.62l2.54,2.67l1.5-1.53h-2.12v-0.8h2.45v0.46l0.97-0.98v-0.86h0.17l0.06-0.6h-5.71
				L168.33,14.62z M174.46,21.55c0.01,0.06,0.02,0.13,0.02,0.19c0,0.64-0.52,1.15-1.15,1.15c-0.44,0-0.82-0.25-1.02-0.61h-2.81v0.6
				h-0.74v-0.6c-0.09-0.01-0.17-0.09-0.18-0.18l-0.16-1.84l-3.92,4l-0.23-0.23l4.12-4.19l-0.44-5.16l-3.92-4.13v-0.46l3.88,4.08
				l-0.1-1.19h-0.48v-0.4h0.42c0.01-0.02,0.02-0.05,0.03-0.08c0.14-0.33,0.43-0.56,0.8-0.72V11.5h0.68v0.04
				c0.36-0.08,0.73-0.13,1.08-0.15v-0.16h1.96v0.98h-1.96V11.8c-0.35,0.03-0.73,0.07-1.08,0.16v0.61h4.64
				c-0.18-0.43-0.89-0.63-1.6-0.72v-0.41c0.71,0.09,1.44,0.29,1.8,0.71c0.1-0.12,0.25-0.2,0.42-0.2c0.29,0,0.53,0.24,0.53,0.53
				c0,0.29-0.24,0.53-0.53,0.53c-0.07,0-0.14-0.01-0.21-0.04l-0.06,0.62h0.27l3.51-3.57v0.46l-3.06,3.11h0.06v1.39h-0.91l-0.49,5.21
				l3.59,3.79l-0.24,0.23L174.46,21.55z M172.17,21.74c0-0.59,0.44-1.08,1.02-1.14l0.03-0.35l-2.35-2.48l-2.08,2.12l0.17,2h3.23
				C172.17,21.83,172.17,21.78,172.17,21.74z M172.72,21.74c0,0.33,0.27,0.6,0.6,0.6c0.33,0,0.6-0.27,0.6-0.6
				c0-0.33-0.27-0.6-0.6-0.6C172.99,21.14,172.72,21.41,172.72,21.74z M172.93,21.74c0-0.21,0.17-0.39,0.39-0.39
				c0.21,0,0.39,0.17,0.39,0.39s-0.17,0.39-0.39,0.39C173.11,22.13,172.93,21.95,172.93,21.74z M165.14,27.08h11.58v2.82h-11.58
				V27.08z"/>
		</g>
	</g>
	<g id="Heatit-CMYK-white_00000170238584955154594160000008576256408496073621_">
		<g>
			<g>
				<path class="st0" d="M33,14.16c0-0.2-0.11-0.3-0.3-0.3h-0.56v-1.13h1.31c0.61,0,0.87,0.26,0.87,0.85v2.69
					c0,0.33-0.03,0.57-0.03,0.57h0.03c0.3-0.67,1.19-1.54,2.57-1.54c1.62,0,2.36,0.89,2.36,2.65v2.99c0,0.2,0.11,0.3,0.3,0.3h0.56
					v1.13h-1.3c-0.61,0-0.87-0.26-0.87-0.87v-3.25c0-0.97-0.2-1.73-1.31-1.73c-1.05,0-1.9,0.71-2.18,1.71
					c-0.1,0.27-0.12,0.59-0.12,0.91v3.24H33V14.16z"/>
				<path class="st0" d="M44.35,15.3c1.94,0,2.98,1.45,2.98,3.24c0,0.18-0.04,0.55-0.04,0.55h-5.04c0.08,1.47,1.15,2.31,2.38,2.31
					c1.19,0,2.02-0.81,2.02-0.81l0.57,0.94c0,0-1.02,1.01-2.66,1.01c-2.18,0-3.67-1.57-3.67-3.62C40.88,16.72,42.38,15.3,44.35,15.3
					z M45.96,18.11c-0.04-1.15-0.76-1.76-1.62-1.76c-1.01,0-1.83,0.61-2.03,1.76H45.96z"/>
				<path class="st0" d="M52.59,18.07h0.3V18c0-1.21-0.45-1.65-1.53-1.65c-0.33,0-1.13,0.08-1.13,0.53v0.4h-1.24v-0.68
					c0-1.13,1.72-1.3,2.39-1.3c2.24,0,2.84,1.17,2.84,2.7v2.93c0,0.2,0.11,0.3,0.3,0.3h0.56v1.13h-1.24c-0.61,0-0.86-0.3-0.86-0.79
					c0-0.23,0.03-0.41,0.03-0.41h-0.03c0,0-0.55,1.37-2.2,1.37c-1.19,0-2.35-0.72-2.35-2.1C48.43,18.2,51.43,18.07,52.59,18.07z
					 M51.06,21.47c1.12,0,1.84-1.17,1.84-2.2v-0.23h-0.34c-1,0-2.8,0.05-2.8,1.32C49.76,20.92,50.19,21.47,51.06,21.47z"/>
				<path class="st0" d="M56.56,16.52h-0.9v-1.06h0.93v-1.9h1.3v1.9h1.65v1.06h-1.65v3.17c0,1.38,0.96,1.56,1.46,1.56
					c0.19,0,0.19-0.03,0.19-0.03v1.17c0,0-0.05,0.03-0.34,0.03c-0.87,0-2.63-0.27-2.63-2.58V16.52z"/>
				<path class="st0" d="M61.17,16.72c0-0.16-0.08-0.2-0.23-0.2h-0.42v-1.06h0.98c0.47,0,0.66,0.34,0.66,0.81v3.36
					c0,0.16,0.08,0.23,0.23,0.23h0.42v0.86h-0.98c-0.47,0-0.66-0.2-0.66-0.66V16.72z M61.17,13.56h1v1.05h-1V13.56z"/>
				<path class="st0" d="M64.01,16.38h-0.68v-0.92h0.7v-1.41h0.98v1.41h1.35v0.92h-1.35v2.32c0,1.05,0.72,1.18,1.11,1.18
					c0.14,0,0.24-0.02,0.24-0.02l0,0c0,0.17-0.02,0.33-0.07,0.49c-0.06,0.2-0.16,0.42-0.28,0.42c-0.66,0-2-0.21-2-1.96V16.38z"/>
			</g>
			<g>
				<path class="st0" d="M28.64,16.81c0-0.41-0.17-0.79-0.47-1.04c-0.12-0.1-0.19-0.26-0.19-0.44c0-0.18,0.07-0.34,0.19-0.44
					c0.3-0.25,0.47-0.63,0.47-1.04c0-0.41-0.17-0.79-0.47-1.04c-0.08-0.07-0.18-0.1-0.29-0.09c-0.11,0.01-0.2,0.06-0.27,0.14
					c-0.07,0.08-0.1,0.18-0.09,0.29c0.01,0.1,0.06,0.2,0.14,0.27c0.12,0.1,0.19,0.26,0.19,0.44c0,0.18-0.07,0.34-0.19,0.44
					c-0.3,0.25-0.47,0.63-0.47,1.04c0,0.41,0.17,0.79,0.47,1.04c0.12,0.1,0.19,0.26,0.19,0.44c0,0.18-0.07,0.33-0.19,0.44
					c-0.3,0.25-0.47,0.63-0.47,1.04c0,0.41,0.17,0.79,0.47,1.04c0.12,0.1,0.19,0.26,0.19,0.44c0,0.18-0.07,0.34-0.19,0.44
					c-0.3,0.25-0.47,0.63-0.47,1.04c0,0.41,0.17,0.79,0.47,1.04c0.07,0.06,0.16,0.09,0.25,0.09c0.01,0,0.02,0,0.03,0
					c0.1-0.01,0.2-0.06,0.27-0.14c0.14-0.17,0.12-0.42-0.05-0.56c-0.12-0.1-0.19-0.26-0.19-0.44c0-0.18,0.07-0.34,0.19-0.44
					c0.3-0.25,0.47-0.63,0.47-1.04c0-0.41-0.17-0.79-0.47-1.04c-0.12-0.1-0.19-0.26-0.19-0.44c0-0.18,0.07-0.34,0.19-0.44
					C28.47,17.6,28.64,17.22,28.64,16.81z"/>
				<path class="st0" d="M30.51,16.81c0-0.41-0.17-0.79-0.47-1.04c-0.12-0.1-0.19-0.26-0.19-0.44c0-0.18,0.07-0.34,0.19-0.44
					c0.3-0.25,0.47-0.63,0.47-1.04c0-0.41-0.17-0.79-0.47-1.04c-0.08-0.07-0.18-0.1-0.29-0.09c-0.11,0.01-0.2,0.06-0.27,0.14
					c-0.07,0.08-0.1,0.18-0.09,0.29c0.01,0.1,0.06,0.2,0.14,0.27c0.12,0.1,0.19,0.26,0.19,0.44c0,0.18-0.07,0.34-0.19,0.44
					c-0.3,0.25-0.47,0.63-0.47,1.04c0,0.41,0.17,0.79,0.47,1.04c0.12,0.1,0.19,0.26,0.19,0.44c0,0.18-0.07,0.33-0.19,0.44
					c-0.3,0.25-0.47,0.63-0.47,1.04c0,0.41,0.17,0.79,0.47,1.04c0.12,0.1,0.19,0.26,0.19,0.44c0,0.18-0.07,0.34-0.19,0.44
					c-0.3,0.25-0.47,0.63-0.47,1.04c0,0.41,0.17,0.79,0.47,1.04c0.07,0.06,0.16,0.09,0.25,0.09c0.01,0,0.02,0,0.03,0
					c0.1-0.01,0.2-0.06,0.27-0.14c0.14-0.17,0.12-0.42-0.05-0.56c-0.12-0.1-0.19-0.26-0.19-0.44c0-0.18,0.07-0.34,0.19-0.44
					c0.3-0.25,0.47-0.63,0.47-1.04c0-0.41-0.17-0.79-0.47-1.04c-0.12-0.1-0.19-0.26-0.19-0.44c0-0.18,0.07-0.34,0.19-0.44
					C30.34,17.6,30.51,17.22,30.51,16.81z"/>
				<path class="st0" d="M26.77,16.81c0-0.41-0.17-0.79-0.47-1.04c-0.12-0.1-0.19-0.26-0.19-0.44c0-0.18,0.07-0.34,0.19-0.44
					c0.3-0.25,0.47-0.63,0.47-1.04c0-0.41-0.17-0.79-0.47-1.04c-0.08-0.07-0.18-0.1-0.29-0.09c-0.11,0.01-0.2,0.06-0.27,0.14
					c-0.07,0.08-0.1,0.18-0.09,0.29c0.01,0.1,0.06,0.2,0.14,0.27c0.12,0.1,0.19,0.26,0.19,0.44c0,0.18-0.07,0.34-0.19,0.44
					c-0.3,0.25-0.47,0.63-0.47,1.04c0,0.41,0.17,0.79,0.47,1.04c0.12,0.1,0.19,0.26,0.19,0.44c0,0.18-0.07,0.33-0.19,0.44
					c-0.3,0.25-0.47,0.63-0.47,1.04c0,0.41,0.17,0.79,0.47,1.04c0.12,0.1,0.19,0.26,0.19,0.44c0,0.18-0.07,0.34-0.19,0.44
					c-0.3,0.25-0.47,0.63-0.47,1.04c0,0.41,0.17,0.79,0.47,1.04c0.07,0.06,0.16,0.09,0.25,0.09c0.01,0,0.02,0,0.03,0
					c0.1-0.01,0.2-0.06,0.27-0.14c0.14-0.17,0.12-0.42-0.05-0.56c-0.12-0.1-0.19-0.26-0.19-0.44c0-0.18,0.07-0.34,0.19-0.44
					c0.3-0.25,0.47-0.63,0.47-1.04c0-0.41-0.17-0.79-0.47-1.04c-0.12-0.1-0.19-0.26-0.19-0.44c0-0.18,0.07-0.34,0.19-0.44
					C26.6,17.6,26.77,17.22,26.77,16.81z"/>
			</g>
		</g>
	</g>
</g>
<g id="Layer_5">
	<g>
		<path class="st0" d="M90.14,123.22c0,0,0.5,0.49,1.15,0.49c0.35,0,0.67-0.18,0.67-0.56c0-0.83-2.18-0.68-2.18-2.1
			c0-0.77,0.66-1.34,1.55-1.34c0.91,0,1.38,0.49,1.38,0.49l-0.36,0.68c0,0-0.44-0.4-1.02-0.4c-0.39,0-0.7,0.23-0.7,0.55
			c0,0.82,2.17,0.62,2.17,2.09c0,0.74-0.56,1.35-1.52,1.35c-1.03,0-1.59-0.63-1.59-0.63L90.14,123.22z"/>
		<path class="st0" d="M93.65,121.8h-0.43v-0.66h0.45v-0.96h0.81v0.96h0.75v0.66h-0.75v1.29c0,0.55,0.43,0.62,0.66,0.62
			c0.09,0,0.15-0.01,0.15-0.01v0.72c0,0-0.1,0.02-0.25,0.02c-0.46,0-1.38-0.14-1.38-1.25V121.8z"/>
		<path class="st0" d="M97.64,122.33h0.11v-0.05c0-0.44-0.27-0.58-0.64-0.58c-0.47,0-0.91,0.32-0.91,0.32l-0.31-0.59
			c0,0,0.51-0.41,1.3-0.41c0.87,0,1.38,0.48,1.38,1.32v2.07h-0.76v-0.27c0-0.13,0.01-0.23,0.01-0.23h-0.01
			c0.01,0-0.25,0.58-1.01,0.58c-0.59,0-1.12-0.37-1.12-1.03C95.68,122.4,97.1,122.33,97.64,122.33z M97.01,123.84
			c0.44,0,0.75-0.47,0.75-0.87v-0.08h-0.14c-0.42,0-1.11,0.06-1.11,0.52C96.51,123.63,96.67,123.84,97.01,123.84z"/>
		<path class="st0" d="M99.55,121.8h-0.43v-0.66h0.45v-0.96h0.81v0.96h0.75v0.66h-0.75v1.29c0,0.55,0.43,0.62,0.66,0.62
			c0.09,0,0.15-0.01,0.15-0.01v0.72c0,0-0.1,0.02-0.25,0.02c-0.46,0-1.38-0.14-1.38-1.25V121.8z"/>
		<path class="st0" d="M101.82,121.09h0.83v1.96c0,0.4,0.1,0.68,0.51,0.68c0.6,0,0.93-0.53,0.93-1.12v-1.52h0.83v3.32h-0.79v-0.38
			c0-0.13,0.01-0.23,0.01-0.23h-0.01c-0.16,0.34-0.58,0.69-1.15,0.69c-0.71,0-1.15-0.36-1.15-1.26V121.09z"/>
		<path class="st0" d="M105.92,123.42c0,0,0.36,0.36,0.9,0.36c0.23,0,0.44-0.1,0.44-0.3c0-0.49-1.61-0.43-1.61-1.5
			c0-0.62,0.55-0.98,1.27-0.98c0.75,0,1.11,0.38,1.11,0.38l-0.31,0.61c0,0-0.31-0.29-0.81-0.29c-0.21,0-0.42,0.09-0.42,0.3
			c0,0.47,1.61,0.41,1.61,1.47c0,0.55-0.48,1-1.27,1c-0.83,0-1.29-0.49-1.29-0.49L105.92,123.42z"/>
	</g>
	<g>
		<path class="st0" d="M55.56,132.42h0.9l0.9,2.28c0.1,0.27,0.23,0.68,0.23,0.68h0.01c0,0,0.12-0.4,0.23-0.68l0.9-2.28h0.9
			l0.37,4.62h-0.83l-0.19-2.58c-0.02-0.3-0.01-0.71-0.01-0.71h-0.01c0,0-0.14,0.45-0.25,0.71l-0.75,1.79h-0.73l-0.74-1.79
			c-0.11-0.27-0.25-0.72-0.25-0.72h-0.01c0,0,0.01,0.42-0.01,0.72l-0.2,2.58h-0.84L55.56,132.42z"/>
		<path class="st0" d="M60.9,132.42h0.82v0.73H60.9V132.42z M60.9,133.72h0.83v3.32H60.9V133.72z"/>
		<path class="st0" d="M62.64,133.72h0.79v0.38c0,0.12-0.01,0.23-0.01,0.23h0.01c0.14-0.28,0.51-0.69,1.18-0.69
			c0.73,0,1.15,0.38,1.15,1.26v2.13h-0.82v-1.96c0-0.4-0.1-0.68-0.53-0.68c-0.44,0-0.77,0.28-0.89,0.68
			c-0.05,0.14-0.06,0.29-0.06,0.44v1.52h-0.83V133.72z"/>
		<path class="st0" d="M66.59,136.21h0.83v0.83h-0.83V136.21z"/>
	</g>
	<g>
		<path class="st0" d="M132.2,132.42h1.49c0.5,0,0.73,0.04,0.93,0.13c0.46,0.21,0.75,0.65,0.75,1.26c0,0.55-0.29,1.07-0.78,1.26
			v0.01c0,0,0.07,0.07,0.16,0.23l0.95,1.72h-0.94l-0.92-1.72h-0.81v1.72h-0.84V132.42z M133.79,134.59c0.45,0,0.73-0.27,0.73-0.73
			c0-0.44-0.19-0.71-0.84-0.71h-0.64v1.44H133.79z"/>
		<path class="st0" d="M137.76,133.65c0.96,0,1.47,0.7,1.47,1.57c0,0.1-0.02,0.32-0.02,0.32h-2.29c0.05,0.58,0.5,0.88,0.99,0.88
			c0.53,0,0.96-0.36,0.96-0.36l0.32,0.59c0,0-0.51,0.47-1.33,0.47c-1.1,0-1.78-0.79-1.78-1.74
			C136.08,134.36,136.77,133.65,137.76,133.65z M138.4,134.97c-0.01-0.45-0.29-0.69-0.66-0.69c-0.42,0-0.72,0.26-0.79,0.69H138.4z"
			/>
		<path class="st0" d="M140.01,136.05c0,0,0.36,0.36,0.9,0.36c0.23,0,0.44-0.1,0.44-0.3c0-0.49-1.61-0.43-1.61-1.5
			c0-0.62,0.55-0.98,1.27-0.98c0.75,0,1.11,0.38,1.11,0.38l-0.31,0.61c0,0-0.31-0.29-0.81-0.29c-0.21,0-0.42,0.09-0.42,0.3
			c0,0.47,1.61,0.41,1.61,1.47c0,0.55-0.48,1-1.27,1c-0.83,0-1.29-0.49-1.29-0.49L140.01,136.05z"/>
		<path class="st0" d="M144.3,133.65c0.96,0,1.47,0.7,1.47,1.57c0,0.1-0.02,0.32-0.02,0.32h-2.29c0.05,0.58,0.5,0.88,1,0.88
			c0.53,0,0.96-0.36,0.96-0.36l0.32,0.59c0,0-0.51,0.47-1.33,0.47c-1.1,0-1.78-0.79-1.78-1.74
			C142.62,134.36,143.31,133.65,144.3,133.65z M144.94,134.97c-0.01-0.45-0.29-0.69-0.66-0.69c-0.42,0-0.71,0.26-0.79,0.69H144.94z"
			/>
		<path class="st0" d="M146.6,134.43h-0.43v-0.66h0.45v-0.96h0.81v0.96h0.75v0.66h-0.75v1.29c0,0.55,0.43,0.62,0.66,0.62
			c0.09,0,0.15-0.01,0.15-0.01v0.72c0,0-0.1,0.02-0.25,0.02c-0.46,0-1.38-0.14-1.38-1.25V134.43z"/>
	</g>
	<g>
		<path class="st0" d="M76.37,34.84c0,0.17,0.11,0.31,0.36,0.31c0.33,0,0.62-0.35,0.62-0.66v-0.08h-0.12
			C76.82,34.42,76.37,34.53,76.37,34.84z"/>
		<path class="st0" d="M104.27,31.93h-0.52v3.01h0.52c0.88,0,1.41-0.52,1.41-1.51C105.69,32.44,105.13,31.93,104.27,31.93z"/>
		<path class="st0" d="M128.69,31.92c-0.5,0-0.64,0.67-0.64,1.51c0,0.85,0.14,1.53,0.64,1.53s0.65-0.68,0.65-1.53
			C129.33,32.58,129.19,31.92,128.69,31.92z"/>
		<path class="st0" d="M72.95,33.15c-0.36,0-0.54,0.26-0.6,0.54h1.09C73.45,33.4,73.25,33.15,72.95,33.15z"/>
		<path class="st0" d="M63.76,28.23v10.16h76.48V28.23H63.76z M107.76,30.84h1.22v0.98h-1.22V30.84z M93.95,30.84h1.22v0.98h-1.22
			V30.84z M82.47,30.84h1.22v0.98h-1.22V30.84z M70.23,36.03h-1.27V34h-1.88v2.03h-1.27v-5.18h1.27v2.07h1.88v-2.07h1.27V36.03z
			 M73.19,35.07c0.54,0,1.03-0.38,1.03-0.38l0.46,0.88c0,0-0.6,0.54-1.59,0.54c-1.33,0-2.05-0.96-2.05-1.96
			c0-1.09,0.74-1.95,1.94-1.95c1.1,0,1.73,0.77,1.73,1.8c0,0.12-0.03,0.39-0.03,0.39h-2.36C72.42,34.86,72.79,35.07,73.19,35.07z
			 M78.58,36.03h-1.15V35.8c0-0.12,0.01-0.23,0.01-0.23h-0.01c0,0-0.28,0.54-1.06,0.54c-0.7,0-1.27-0.46-1.27-1.2
			c0-1.09,1.59-1.21,2.17-1.21h0.05v-0.07c0-0.31-0.24-0.41-0.55-0.41c-0.47,0-1.01,0.35-1.01,0.35l-0.43-0.88
			c0,0,0.64-0.49,1.57-0.49c1.05,0,1.68,0.57,1.68,1.52V36.03z M81.72,36.04c0,0-0.14,0.02-0.34,0.02c-0.59,0-1.75-0.16-1.75-1.41
			v-1.31h-0.48v-0.98h0.51v-1.07h1.22v1.07h0.78v0.98h-0.78v1.15c0,0.42,0.43,0.48,0.67,0.48c0.1,0,0.17-0.01,0.17-0.01V36.04z
			 M83.71,36.03h-1.25v-3.73h1.25V36.03z M86.92,36.04c0,0-0.14,0.02-0.34,0.02c-0.59,0-1.75-0.16-1.75-1.41v-1.31h-0.48v-0.98h0.51
			v-1.07h1.22v1.07h0.78v0.98h-0.78v1.15c0,0.42,0.43,0.48,0.67,0.48c0.1,0,0.17-0.01,0.17-0.01V36.04z M93.17,36.03h-4.04v-0.8
			l2-2.83c0.22-0.32,0.4-0.47,0.4-0.47v-0.01c0,0-0.17,0.02-0.4,0.02h-1.91v-1.09h3.91v0.78l-2.01,2.85
			c-0.22,0.32-0.4,0.47-0.4,0.47v0.01c0,0,0.17-0.02,0.4-0.02h2.04V36.03z M95.19,36.03h-1.25v-3.73h1.25V36.03z M99.75,35.69
			c0,1.36-1.09,1.86-2.11,1.86c-0.5,0-1.05-0.15-1.41-0.33l0.35-0.95c0,0,0.46,0.24,1.05,0.24c0.45,0,0.86-0.17,0.86-0.72v-0.12
			c0-0.04,0.01-0.14,0.01-0.14h-0.01c-0.22,0.26-0.5,0.39-0.93,0.39c-1.12,0-1.68-0.92-1.68-1.88c0-0.95,0.54-1.83,1.67-1.83
			c0.68,0,1.01,0.36,1.01,0.36h0.02c0,0-0.01-0.04-0.01-0.09v-0.19h1.17V35.69z M104.32,36.03h-1.84v-5.18h1.84
			c1.63,0,2.67,0.95,2.67,2.58C107,35.05,105.95,36.03,104.32,36.03z M109,36.03h-1.25v-3.73H109V36.03z M115.7,36.03h-1.25v-2.21
			c0-0.28-0.05-0.47-0.29-0.47c-0.4,0-0.61,0.29-0.69,0.7c-0.03,0.13-0.03,0.28-0.03,0.43v1.54h-1.25v-2.21
			c0-0.28-0.05-0.47-0.29-0.47c-0.39,0-0.59,0.28-0.68,0.67c-0.03,0.14-0.04,0.3-0.04,0.46v1.54h-1.25v-3.73h1.2v0.33
			c0,0.12-0.01,0.23-0.01,0.23h0.01c0.17-0.26,0.52-0.64,1.11-0.64c0.47,0,0.85,0.21,1.04,0.63h0.01c0.2-0.31,0.64-0.63,1.2-0.63
			c0.68,0,1.21,0.37,1.21,1.4V36.03z M121.77,36.03h-3.59c-0.04-0.2-0.06-0.38-0.06-0.56c0-1.91,2.24-2.25,2.24-3
			c0-0.36-0.29-0.51-0.56-0.51c-0.49,0-0.77,0.55-0.77,0.55l-0.94-0.63c0,0,0.48-1.12,1.83-1.12c0.85,0,1.77,0.49,1.77,1.59
			c0,1.62-2.09,1.93-2.12,2.59h2.2V36.03z M124.18,36.11c-1.14,0-1.77-0.68-1.77-0.68l0.61-0.98c0,0,0.47,0.46,1.05,0.46
			c0.34,0,0.72-0.21,0.72-0.64c0-0.41-0.36-0.64-0.83-0.64c-0.4,0-0.7,0.17-0.7,0.17l-0.67-0.25l0.21-2.71h2.9v1.09h-1.8l-0.03,0.48
			c0,0.1-0.03,0.2-0.03,0.2h0.01c0,0,0.18-0.05,0.38-0.05c1.23,0,1.86,0.77,1.86,1.7C126.1,35.34,125.31,36.11,124.18,36.11z
			 M128.69,36.11c-1.47,0-1.95-1.2-1.95-2.69c0-1.49,0.48-2.67,1.95-2.67c1.47,0,1.95,1.18,1.95,2.67
			C130.64,34.91,130.16,36.11,128.69,36.11z M136.79,36.03h-1.41l-0.65-2.62c-0.08-0.33-0.1-0.61-0.1-0.61h-0.01
			c0,0-0.02,0.28-0.1,0.61l-0.65,2.62h-1.43l-1.26-5.18h1.33l0.65,3.24c0.06,0.32,0.06,0.54,0.06,0.54h0.01c0,0,0.01-0.23,0.09-0.54
			l0.8-3.24h1.02l0.78,3.24c0.08,0.32,0.09,0.54,0.09,0.54h0.01c0,0,0-0.23,0.07-0.54l0.71-3.24h1.31L136.79,36.03z"/>
		<path class="st0" d="M97.8,33.25c-0.44,0-0.67,0.32-0.67,0.75c0,0.46,0.22,0.88,0.72,0.88c0.33,0,0.67-0.17,0.67-0.82
			C98.52,33.4,98.17,33.25,97.8,33.25z"/>
	</g>
	<g>
		<path class="st0" d="M66.14,47.66l2.05-2.94c0.18-0.27,0.34-0.42,0.34-0.42V44.3c0,0-0.13,0.01-0.35,0.01h-1.94v-0.72h3.33v0.53
			l-2.05,2.94c-0.18,0.27-0.34,0.42-0.34,0.42v0.01c0,0,0.13-0.01,0.34-0.01h2.07v0.72h-3.46V47.66z"/>
		<path class="st0" d="M70.34,43.59h0.82v0.73h-0.82V43.59z M70.34,44.89h0.83v3.32h-0.83V44.89z"/>
		<path class="st0" d="M73.33,48.87c0.51,0,0.94-0.21,0.94-0.81v-0.2c0-0.08,0.01-0.18,0.01-0.18h-0.01
			c-0.19,0.29-0.48,0.45-0.92,0.45c-0.95,0-1.49-0.77-1.49-1.68s0.51-1.65,1.47-1.65c0.72,0,0.98,0.42,0.98,0.42h0.02
			c0,0-0.01-0.04-0.01-0.09v-0.25h0.77V48c0,1.14-0.88,1.57-1.75,1.57c-0.42,0-0.86-0.12-1.18-0.29l0.25-0.63
			C72.41,48.65,72.83,48.87,73.33,48.87z M74.29,46.47c0-0.75-0.37-0.96-0.82-0.96c-0.5,0-0.78,0.36-0.78,0.92
			c0,0.58,0.3,1.01,0.83,1.01C73.92,47.44,74.29,47.22,74.29,46.47z"/>
		<path class="st0" d="M76,43.59h0.83v1.42c0,0.16-0.01,0.28-0.01,0.28h0.01c0,0,0.29-0.48,0.99-0.48c0.9,0,1.47,0.71,1.47,1.74
			c0,1.05-0.64,1.74-1.52,1.74c-0.69,0-0.99-0.49-0.99-0.49h-0.01c0,0,0.01,0.1,0.01,0.23v0.19H76V43.59z M77.63,47.59
			c0.46,0,0.83-0.37,0.83-1.03c0-0.63-0.34-1.04-0.83-1.04c-0.43,0-0.83,0.31-0.83,1.05C76.8,47.08,77.07,47.59,77.63,47.59z"/>
		<path class="st0" d="M81.42,44.81c0.96,0,1.47,0.7,1.47,1.57c0,0.1-0.02,0.32-0.02,0.32h-2.29c0.05,0.58,0.5,0.88,0.99,0.88
			c0.53,0,0.96-0.36,0.96-0.36l0.32,0.59c0,0-0.51,0.47-1.33,0.47c-1.1,0-1.78-0.79-1.78-1.74C79.74,45.53,80.43,44.81,81.42,44.81z
			 M82.06,46.14c-0.01-0.45-0.29-0.69-0.66-0.69c-0.42,0-0.72,0.26-0.79,0.69H82.06z"/>
		<path class="st0" d="M85.02,44.81c0.96,0,1.47,0.7,1.47,1.57c0,0.1-0.02,0.32-0.02,0.32h-2.29c0.05,0.58,0.5,0.88,1,0.88
			c0.53,0,0.96-0.36,0.96-0.36l0.32,0.59c0,0-0.51,0.47-1.33,0.47c-1.1,0-1.78-0.79-1.78-1.74C83.34,45.53,84.04,44.81,85.02,44.81z
			 M85.66,46.14c-0.01-0.45-0.29-0.69-0.66-0.69c-0.42,0-0.71,0.26-0.79,0.69H85.66z"/>
		<path class="st0" d="M88.88,43.59h1.49c0.5,0,0.73,0.04,0.93,0.13c0.46,0.21,0.75,0.65,0.75,1.26c0,0.55-0.29,1.07-0.78,1.26v0.01
			c0,0,0.07,0.07,0.16,0.23l0.95,1.72h-0.94l-0.92-1.72h-0.81v1.72h-0.84V43.59z M90.48,45.75c0.45,0,0.73-0.27,0.73-0.73
			c0-0.44-0.19-0.71-0.85-0.71h-0.64v1.44H90.48z"/>
		<path class="st0" d="M94.57,44.81c1.01,0,1.83,0.72,1.83,1.74c0,1.02-0.81,1.74-1.82,1.74c-1.01,0-1.83-0.71-1.83-1.74
			C92.75,45.53,93.56,44.81,94.57,44.81z M94.58,47.58c0.53,0,0.98-0.42,0.98-1.03c0-0.61-0.45-1.03-0.98-1.03
			c-0.54,0-0.99,0.42-0.99,1.03C93.59,47.16,94.04,47.58,94.58,47.58z"/>
		<path class="st0" d="M97.2,45.6h-0.43v-0.66h0.45v-0.96h0.81v0.96h0.75v0.66h-0.75v1.29c0,0.55,0.43,0.62,0.66,0.62
			c0.09,0,0.15-0.01,0.15-0.01v0.72c0,0-0.1,0.02-0.25,0.02c-0.46,0-1.38-0.14-1.38-1.25V45.6z"/>
		<path class="st0" d="M101.2,46.12h0.11v-0.05c0-0.44-0.27-0.58-0.64-0.58c-0.47,0-0.91,0.32-0.91,0.32l-0.31-0.59
			c0,0,0.51-0.41,1.3-0.41c0.87,0,1.38,0.48,1.38,1.32v2.07h-0.76v-0.27c0-0.13,0.01-0.23,0.01-0.23h-0.01
			c0.01,0-0.25,0.58-1.01,0.58c-0.59,0-1.12-0.37-1.12-1.03C99.23,46.19,100.66,46.12,101.2,46.12z M100.56,47.64
			c0.44,0,0.75-0.47,0.75-0.87v-0.08h-0.14c-0.42,0-1.11,0.06-1.11,0.52C100.06,47.43,100.23,47.64,100.56,47.64z"/>
		<path class="st0" d="M102.98,44.89h0.79v0.57c0,0.12-0.01,0.23-0.01,0.23h0.01c0.15-0.47,0.55-0.85,1.05-0.85
			c0.08,0,0.15,0.01,0.15,0.01v0.81c0,0-0.08-0.01-0.2-0.01c-0.35,0-0.75,0.2-0.9,0.7c-0.05,0.16-0.07,0.34-0.07,0.54v1.31h-0.83
			V44.89z"/>
		<path class="st0" d="M105.5,48.74c0,0,0.18,0.14,0.37,0.14c0.23,0,0.45-0.14,0.57-0.43l0.12-0.29l-1.4-3.26h0.93l0.7,1.91
			c0.06,0.18,0.12,0.45,0.12,0.45h0.01c0,0,0.05-0.26,0.11-0.44l0.65-1.92h0.9l-1.48,3.82c-0.23,0.6-0.7,0.86-1.2,0.86
			c-0.4,0-0.69-0.21-0.69-0.21L105.5,48.74z"/>
		<path class="st0" d="M110.78,43.59h1.57c1.42,0,2.35,0.84,2.35,2.3s-0.93,2.31-2.35,2.31h-1.57V43.59z M112.3,47.48
			c0.94,0,1.53-0.55,1.53-1.59c0-1.03-0.61-1.58-1.53-1.58h-0.69v3.17H112.3z"/>
		<path class="st0" d="M115.45,43.59h0.82v0.73h-0.82V43.59z M115.45,44.89h0.83v3.32h-0.83V44.89z"/>
		<path class="st0" d="M117.19,44.89h0.79v0.38c0,0.12-0.01,0.23-0.01,0.23h0.01c0.16-0.33,0.56-0.69,1.08-0.69
			c0.51,0,0.83,0.23,0.97,0.68h0.01c0.18-0.36,0.61-0.68,1.13-0.68c0.69,0,1.09,0.39,1.09,1.26v2.13h-0.83v-1.98
			c0-0.38-0.07-0.66-0.46-0.66c-0.42,0-0.7,0.34-0.8,0.75c-0.03,0.13-0.04,0.27-0.04,0.43v1.46h-0.83v-1.98
			c0-0.36-0.06-0.66-0.45-0.66c-0.43,0-0.71,0.34-0.81,0.76c-0.03,0.12-0.04,0.27-0.04,0.42v1.46h-0.83V44.89z"/>
		<path class="st0" d="M123.12,44.89h0.79v0.38c0,0.12-0.01,0.23-0.01,0.23h0.01c0.16-0.33,0.56-0.69,1.08-0.69
			c0.51,0,0.83,0.23,0.97,0.68h0.01c0.18-0.36,0.61-0.68,1.13-0.68c0.69,0,1.09,0.39,1.09,1.26v2.13h-0.83v-1.98
			c0-0.38-0.07-0.66-0.46-0.66c-0.42,0-0.7,0.34-0.8,0.75c-0.03,0.13-0.04,0.27-0.04,0.43v1.46h-0.83v-1.98
			c0-0.36-0.06-0.66-0.45-0.66c-0.43,0-0.71,0.34-0.81,0.76c-0.03,0.12-0.04,0.27-0.04,0.42v1.46h-0.83V44.89z"/>
		<path class="st0" d="M130.5,44.81c0.96,0,1.47,0.7,1.47,1.57c0,0.1-0.02,0.32-0.02,0.32h-2.29c0.05,0.58,0.5,0.88,1,0.88
			c0.53,0,0.96-0.36,0.96-0.36l0.32,0.59c0,0-0.51,0.47-1.33,0.47c-1.1,0-1.78-0.79-1.78-1.74
			C128.82,45.53,129.52,44.81,130.5,44.81z M131.14,46.14c-0.01-0.45-0.29-0.69-0.66-0.69c-0.42,0-0.72,0.26-0.79,0.69H131.14z"/>
		<path class="st0" d="M132.65,44.89h0.79v0.57c0,0.12-0.01,0.23-0.01,0.23h0.01c0.15-0.47,0.55-0.85,1.05-0.85
			c0.08,0,0.15,0.01,0.15,0.01v0.81c0,0-0.08-0.01-0.2-0.01c-0.35,0-0.75,0.2-0.9,0.7c-0.05,0.16-0.07,0.34-0.07,0.54v1.31h-0.83
			V44.89z"/>
		<path class="st0" d="M66.28,55.71c0-1.61,2.34-1.81,2.34-3.05c0-0.5-0.38-0.88-0.95-0.88c-0.67,0-1.02,0.62-1.02,0.62l-0.34-0.23
			c0,0,0.42-0.83,1.38-0.83c0.87,0,1.39,0.57,1.39,1.28c0,1.53-2.31,1.75-2.31,2.96h2.39V56h-2.85
			C66.29,55.9,66.28,55.8,66.28,55.71z"/>
		<path class="st0" d="M70.13,55.11c0,0,0.47,0.54,1.17,0.54c0.55,0,1.05-0.4,1.05-0.99c0-0.64-0.55-0.98-1.15-0.98h-0.31
			l-0.11-0.27l1.14-1.34c0.12-0.14,0.24-0.25,0.24-0.25v-0.01c0,0-0.13,0.02-0.37,0.02h-1.72v-0.4h2.67v0.3l-1.37,1.57
			c0.58,0.03,1.43,0.36,1.43,1.35c0,0.78-0.64,1.43-1.5,1.43c-0.9,0-1.45-0.62-1.45-0.62L70.13,55.11z"/>
		<path class="st0" d="M73.67,53.72c0-1.31,0.39-2.36,1.58-2.36s1.57,1.05,1.57,2.36c0,1.33-0.38,2.37-1.57,2.37
			S73.67,55.04,73.67,53.72z M76.36,53.72c0-1.09-0.24-1.94-1.11-1.94c-0.87,0-1.11,0.85-1.11,1.94c0,1.09,0.24,1.94,1.11,1.94
			C76.12,55.66,76.36,54.81,76.36,53.72z"/>
		<path class="st0" d="M77.36,51.43h0.48l1.27,3.47c0.08,0.23,0.17,0.59,0.17,0.59h0.01c0,0,0.09-0.36,0.18-0.59l1.27-3.47h0.48
			L79.52,56h-0.47L77.36,51.43z"/>
		<path class="st0" d="M84.02,54.55h-1.84L81.66,56h-0.47l1.68-4.57h0.48L85.02,56h-0.47L84.02,54.55z M83.09,51.91
			c0,0-0.1,0.38-0.18,0.59l-0.61,1.66h1.57l-0.6-1.66c-0.08-0.21-0.17-0.59-0.17-0.59H83.09z"/>
		<path class="st0" d="M87.72,51.36c1.09,0,1.64,0.59,1.64,0.59l-0.24,0.33c0,0-0.53-0.51-1.39-0.51c-1.07,0-1.84,0.83-1.84,1.91
			c0,1.09,0.77,1.98,1.85,1.98c0.92,0,1.48-0.61,1.48-0.61l0.26,0.32c0,0-0.62,0.71-1.75,0.71c-1.35,0-2.31-1.06-2.31-2.39
			C85.43,52.36,86.41,51.36,87.72,51.36z"/>
		<path class="st0" d="M91.11,53.64c0.71,0,0.74,0.68,1.29,0.68c0.39,0,0.46-0.41,0.46-0.65h0.38c0,0.71-0.34,1.01-0.83,1.01
			c-0.71,0-0.74-0.68-1.29-0.68c-0.39,0-0.46,0.41-0.46,0.65h-0.38C90.28,53.93,90.62,53.64,91.11,53.64z"/>
		<path class="st0" d="M94.35,55.12c0,0,0.34,0.53,1.03,0.53c0.63,0,1.14-0.45,1.14-1.07s-0.51-1.07-1.16-1.07
			c-0.49,0-0.83,0.25-0.83,0.25l-0.29-0.1l0.25-2.22h2.21v0.4h-1.82l-0.13,1.17c-0.02,0.16-0.04,0.26-0.04,0.26h0.01
			c0,0,0.29-0.18,0.7-0.18c0.92,0,1.57,0.66,1.57,1.49c0,0.85-0.7,1.5-1.59,1.5c-0.91,0-1.34-0.65-1.34-0.65L94.35,55.12z"/>
		<path class="st0" d="M97.8,53.72c0-1.31,0.39-2.36,1.58-2.36s1.57,1.05,1.57,2.36c0,1.33-0.38,2.37-1.57,2.37
			S97.8,55.04,97.8,53.72z M100.48,53.72c0-1.09-0.24-1.94-1.11-1.94c-0.87,0-1.11,0.85-1.11,1.94c0,1.09,0.24,1.94,1.11,1.94
			C100.24,55.66,100.48,54.81,100.48,53.72z"/>
		<path class="st0" d="M102.07,51.43h0.45v2.08h2.65v-2.08h0.45V56h-0.45v-2.09h-2.65V56h-0.45V51.43z"/>
		<path class="st0" d="M106.55,55.72l1.83-2.29c0.12-0.16,0.26-0.3,0.26-0.3v-0.01c0,0-0.11,0.01-0.33,0.01h-1.68v-0.39h2.61v0.29
			l-1.83,2.29c-0.12,0.16-0.27,0.3-0.27,0.3v0.01c0,0,0.12-0.01,0.33-0.01h1.83V56h-2.75V55.72z"/>
		<path class="st0" d="M120.71,55.12c0,0,0.34,0.53,1.03,0.53c0.63,0,1.14-0.45,1.14-1.07s-0.51-1.07-1.16-1.07
			c-0.49,0-0.83,0.25-0.83,0.25l-0.29-0.1l0.25-2.22h2.21v0.4h-1.82l-0.13,1.17c-0.02,0.16-0.04,0.26-0.04,0.26h0.01
			c0,0,0.29-0.18,0.7-0.18c0.92,0,1.57,0.66,1.57,1.49c0,0.85-0.7,1.5-1.59,1.5c-0.91,0-1.34-0.65-1.34-0.65L120.71,55.12z"/>
		<path class="st0" d="M126.7,52.1c0,0-0.07,0.39-0.15,0.68L125.68,56h-0.54l-1.18-4.57h0.47l0.88,3.55c0.06,0.23,0.1,0.49,0.1,0.49
			h0.01c0.01,0,0.04-0.25,0.1-0.49l0.96-3.55h0.43l0.96,3.55c0.06,0.23,0.1,0.49,0.1,0.49H128c0,0,0.04-0.25,0.1-0.49l0.92-3.55
			h0.47L128.27,56h-0.54l-0.87-3.22c-0.08-0.29-0.15-0.68-0.15-0.68H126.7z"/>
		<path class="st0" d="M132.15,53.96H134v0.4h-1.85V53.96z"/>
		<path class="st0" d="M136.81,55.71c0-1.61,2.34-1.81,2.34-3.05c0-0.5-0.38-0.88-0.95-0.88c-0.67,0-1.02,0.62-1.02,0.62l-0.34-0.23
			c0,0,0.42-0.83,1.38-0.83c0.87,0,1.39,0.57,1.39,1.28c0,1.53-2.31,1.75-2.31,2.96h2.39V56h-2.85
			C136.82,55.9,136.81,55.8,136.81,55.71z"/>
		<path class="st0" d="M140.73,55.12c0,0,0.34,0.53,1.03,0.53c0.63,0,1.14-0.45,1.14-1.07s-0.51-1.07-1.16-1.07
			c-0.49,0-0.83,0.25-0.83,0.25l-0.29-0.1l0.25-2.22h2.21v0.4h-1.82l-0.13,1.17c-0.02,0.16-0.04,0.26-0.04,0.26h0.01
			c0,0,0.29-0.18,0.7-0.18c0.92,0,1.57,0.66,1.57,1.49c0,0.85-0.7,1.5-1.59,1.5c-0.91,0-1.34-0.65-1.34-0.65L140.73,55.12z"/>
		<path class="st0" d="M144.18,53.72c0-1.31,0.39-2.36,1.58-2.36s1.57,1.05,1.57,2.36c0,1.33-0.38,2.37-1.57,2.37
			S144.18,55.04,144.18,53.72z M146.86,53.72c0-1.09-0.24-1.94-1.1-1.94c-0.87,0-1.11,0.85-1.11,1.94c0,1.09,0.24,1.94,1.11,1.94
			C146.62,55.66,146.86,54.81,146.86,53.72z"/>
		<path class="st0" d="M150.78,52.1c0,0-0.07,0.39-0.15,0.68L149.76,56h-0.54l-1.18-4.57h0.47l0.88,3.55
			c0.06,0.23,0.1,0.49,0.1,0.49h0.01c0.01,0,0.04-0.25,0.1-0.49l0.96-3.55H151l0.96,3.55c0.06,0.23,0.1,0.49,0.1,0.49h0.01
			c0,0,0.04-0.25,0.1-0.49l0.92-3.55h0.47L152.36,56h-0.54l-0.87-3.22c-0.08-0.29-0.15-0.68-0.15-0.68H150.78z"/>
		<path class="st0" d="M68.77,62.62h-1.62l-0.39,1.18H65.9l1.62-4.62h0.88l1.62,4.62h-0.86L68.77,62.62z M67.96,59.99
			c0,0-0.1,0.46-0.2,0.71l-0.41,1.24h1.21l-0.41-1.24c-0.08-0.26-0.18-0.71-0.18-0.71H67.96z"/>
		<path class="st0" d="M70.49,60.49h0.79v0.57c0,0.12-0.01,0.23-0.01,0.23h0.01c0.15-0.47,0.54-0.85,1.05-0.85
			c0.08,0,0.15,0.01,0.15,0.01v0.81c0,0-0.08-0.01-0.2-0.01c-0.35,0-0.75,0.2-0.9,0.7c-0.05,0.16-0.07,0.34-0.07,0.54v1.31h-0.83
			V60.49z"/>
		<path class="st0" d="M73.19,61.2h-0.43v-0.66h0.45v-0.96h0.8v0.96h0.75v0.66h-0.75v1.29c0,0.55,0.43,0.62,0.66,0.62
			c0.09,0,0.15-0.01,0.15-0.01v0.72c0,0-0.1,0.02-0.25,0.02c-0.46,0-1.38-0.14-1.38-1.25V61.2z"/>
		<path class="st0" d="M75.46,62.98h0.83v0.83h-0.83V62.98z"/>
		<path class="st0" d="M78.74,60.49h0.79v0.38c0,0.12-0.01,0.23-0.01,0.23h0.01c0.14-0.28,0.51-0.69,1.18-0.69
			c0.73,0,1.15,0.38,1.15,1.26v2.13h-0.82v-1.96c0-0.4-0.1-0.68-0.53-0.68c-0.44,0-0.77,0.28-0.89,0.68
			c-0.05,0.14-0.06,0.29-0.06,0.44v1.52h-0.83V60.49z"/>
		<path class="st0" d="M84.3,60.41c1.01,0,1.83,0.72,1.83,1.74c0,1.02-0.81,1.74-1.82,1.74c-1.01,0-1.83-0.71-1.83-1.74
			C82.48,61.13,83.29,60.41,84.3,60.41z M84.31,63.18c0.53,0,0.98-0.42,0.98-1.03c0-0.61-0.45-1.03-0.98-1.03
			c-0.54,0-0.99,0.42-0.99,1.03C83.32,62.76,83.77,63.18,84.31,63.18z"/>
		<path class="st0" d="M86.76,62.98h0.83v0.83h-0.83V62.98z"/>
		<path class="st0" d="M90.12,63.4h1.03v-3.35c0-0.13,0.01-0.25,0.01-0.25h-0.01c0,0-0.05,0.1-0.23,0.27l-0.49,0.49l-0.29-0.29
			l1.03-1.03h0.42v4.17h1.01v0.4h-2.48V63.4z"/>
		<path class="st0" d="M92.89,62.24l2.25-3.01h0.49v2.91h0.65v0.4h-0.65v1.27h-0.45v-1.27h-2.29V62.24z M95.18,62.14v-1.91
			c0-0.2,0.02-0.43,0.02-0.43h-0.01c0,0-0.1,0.18-0.23,0.34l-1.52,1.98v0.01H95.18z"/>
		<path class="st0" d="M98.52,62.24l2.25-3.01h0.49v2.91h0.65v0.4h-0.65v1.27h-0.45v-1.27h-2.29V62.24z M100.81,62.14v-1.91
			c0-0.2,0.02-0.43,0.02-0.43h-0.01c0,0-0.1,0.18-0.23,0.34l-1.52,1.98v0.01H100.81z"/>
		<path class="st0" d="M102.4,62.24l2.25-3.01h0.49v2.91h0.65v0.4h-0.65v1.27h-0.45v-1.27h-2.29V62.24z M104.69,62.14v-1.91
			c0-0.2,0.02-0.43,0.02-0.43h-0.01c0,0-0.1,0.18-0.23,0.34l-1.52,1.98v0.01H104.69z"/>
		<path class="st0" d="M106.29,62.24l2.25-3.01h0.49v2.91h0.65v0.4h-0.65v1.27h-0.45v-1.27h-2.29V62.24z M108.57,62.14v-1.91
			c0-0.2,0.02-0.43,0.02-0.43h-0.01c0,0-0.1,0.18-0.23,0.34l-1.52,1.98v0.01H108.57z"/>
		<path class="st0" d="M112.08,63.51c0-1.61,2.34-1.81,2.34-3.05c0-0.5-0.38-0.88-0.95-0.88c-0.67,0-1.02,0.62-1.02,0.62l-0.34-0.23
			c0,0,0.42-0.83,1.38-0.83c0.87,0,1.39,0.57,1.39,1.28c0,1.53-2.31,1.75-2.31,2.96h2.38v0.4h-2.85
			C112.09,63.7,112.08,63.6,112.08,63.51z"/>
		<path class="st0" d="M115.82,61.52c0-1.31,0.39-2.36,1.58-2.36s1.57,1.05,1.57,2.36c0,1.33-0.38,2.37-1.57,2.37
			S115.82,62.84,115.82,61.52z M118.5,61.52c0-1.09-0.24-1.94-1.1-1.94c-0.87,0-1.11,0.85-1.11,1.94c0,1.09,0.24,1.94,1.11,1.94
			C118.26,63.46,118.5,62.61,118.5,61.52z"/>
		<path class="st0" d="M121.85,61.76h1.85v0.4h-1.85V61.76z"/>
		<path class="st0" d="M126.49,63.4h1.03v-3.35c0-0.13,0.01-0.25,0.01-0.25h-0.01c0,0-0.05,0.1-0.23,0.27l-0.49,0.49l-0.29-0.29
			l1.03-1.03h0.42v4.17h1.01v0.4h-2.48V63.4z"/>
		<path class="st0" d="M129.26,62.24l2.25-3.01H132v2.91h0.65v0.4H132v1.27h-0.45v-1.27h-2.29V62.24z M131.55,62.14v-1.91
			c0-0.2,0.02-0.43,0.02-0.43h-0.01c0,0-0.1,0.18-0.23,0.34l-1.52,1.98v0.01H131.55z"/>
		<path class="st0" d="M134.89,62.24l2.25-3.01h0.49v2.91h0.65v0.4h-0.65v1.27h-0.45v-1.27h-2.29V62.24z M137.18,62.14v-1.91
			c0-0.2,0.02-0.43,0.02-0.43h-0.01c0,0-0.1,0.18-0.23,0.34l-1.52,1.98v0.01H137.18z"/>
		<path class="st0" d="M138.77,62.24l2.25-3.01h0.49v2.91h0.65v0.4h-0.65v1.27h-0.45v-1.27h-2.29V62.24z M141.06,62.14v-1.91
			c0-0.2,0.02-0.43,0.02-0.43h-0.01c0,0-0.1,0.18-0.23,0.34l-1.52,1.98v0.01H141.06z"/>
		<path class="st0" d="M142.65,62.24l2.25-3.01h0.49v2.91h0.65v0.4h-0.65v1.27h-0.45v-1.27h-2.29V62.24z M144.94,62.14v-1.91
			c0-0.2,0.02-0.43,0.02-0.43h-0.01c0,0-0.1,0.18-0.23,0.34l-1.52,1.98v0.01H144.94z"/>
		<path class="st0" d="M148.45,63.51c0-1.61,2.34-1.81,2.34-3.05c0-0.5-0.38-0.88-0.95-0.88c-0.67,0-1.02,0.62-1.02,0.62l-0.34-0.23
			c0,0,0.42-0.83,1.38-0.83c0.87,0,1.39,0.57,1.39,1.28c0,1.53-2.31,1.75-2.31,2.96h2.38v0.4h-2.85
			C148.46,63.7,148.45,63.6,148.45,63.51z"/>
		<path class="st0" d="M152.15,61.74c0-1.14,0.6-2.58,2.01-2.58c0.51,0,0.84,0.19,0.84,0.19l-0.17,0.4c0,0-0.29-0.16-0.66-0.16
			c-0.96,0-1.44,0.94-1.52,1.83h0.01c0.22-0.33,0.68-0.53,1.16-0.53c0.83,0,1.42,0.61,1.42,1.48c0,0.95-0.64,1.53-1.44,1.53
			C152.81,63.88,152.15,62.97,152.15,61.74z M154.78,62.36c0-0.65-0.41-1.08-1.03-1.08c-0.61,0-1.1,0.41-1.1,0.78
			c0,0.61,0.47,1.4,1.16,1.4C154.42,63.46,154.78,62.99,154.78,62.36z"/>
		<path class="st0" d="M66.31,66.96h1.12v1.47c0,0.17-0.01,0.29-0.01,0.29h0.01c0.19-0.33,0.58-0.53,1.02-0.53
			c0.68,0,1.2,0.31,1.2,1.25v2.17h-1.12v-1.96c0-0.31-0.12-0.44-0.37-0.44c-0.34,0-0.57,0.2-0.67,0.49
			c-0.05,0.13-0.06,0.27-0.06,0.43v1.48h-1.12V66.96z"/>
		<path class="st0" d="M71.95,68.18c0.99,0,1.55,0.69,1.55,1.62c0,0.11-0.03,0.35-0.03,0.35h-2.11c0.08,0.41,0.42,0.6,0.78,0.6
			c0.48,0,0.92-0.34,0.92-0.34l0.42,0.79c0,0-0.54,0.49-1.43,0.49c-1.2,0-1.84-0.86-1.84-1.75C70.2,68.95,70.87,68.18,71.95,68.18z
			 M72.36,69.5c0-0.25-0.18-0.48-0.44-0.48c-0.33,0-0.48,0.23-0.54,0.48H72.36z"/>
		<path class="st0" d="M75.79,69.52h0.05v-0.06c0-0.28-0.21-0.37-0.49-0.37c-0.42,0-0.9,0.32-0.9,0.32l-0.39-0.79
			c0,0,0.58-0.44,1.4-0.44c0.94,0,1.51,0.51,1.51,1.37v2.06h-1.03v-0.2c0-0.11,0.01-0.21,0.01-0.21h-0.01c0,0-0.25,0.49-0.95,0.49
			c-0.62,0-1.14-0.42-1.14-1.08C73.85,69.63,75.27,69.52,75.79,69.52z M75.3,70.82c0.29,0,0.55-0.32,0.55-0.59v-0.07h-0.1
			c-0.36,0-0.77,0.1-0.77,0.38C74.98,70.7,75.08,70.82,75.3,70.82z"/>
		<path class="st0" d="M77.91,69.19h-0.43v-0.88h0.46v-0.96h1.09v0.96h0.7v0.88h-0.7v1.03c0,0.38,0.38,0.43,0.6,0.43
			c0.09,0,0.15-0.01,0.15-0.01v0.97c0,0-0.12,0.02-0.31,0.02c-0.53,0-1.57-0.14-1.57-1.27V69.19z"/>
		<path class="st0" d="M80.44,68.26h1.12v3.35h-1.12V68.26z M80.45,66.96h1.1v0.88h-1.1V66.96z"/>
		<path class="st0" d="M82.57,69.19h-0.43v-0.88h0.46v-0.96h1.09v0.96h0.7v0.88h-0.7v1.03c0,0.38,0.38,0.43,0.6,0.43
			c0.09,0,0.15-0.01,0.15-0.01v0.97c0,0-0.12,0.02-0.31,0.02c-0.53,0-1.57-0.14-1.57-1.27V69.19z"/>
		<path class="st0" d="M85.06,70.54h1.07v1.07h-1.07V70.54z"/>
		<path class="st0" d="M88.53,68.18c0.91,0,1.33,0.51,1.33,0.51l-0.47,0.75c0,0-0.32-0.32-0.79-0.32c-0.53,0-0.8,0.4-0.8,0.8
			s0.27,0.83,0.84,0.83c0.47,0,0.92-0.4,0.92-0.4l0.41,0.79c0,0-0.5,0.55-1.44,0.55c-1.2,0-1.87-0.83-1.87-1.75
			C86.67,69.03,87.33,68.18,88.53,68.18z"/>
		<path class="st0" d="M92.14,68.18c1.06,0,1.9,0.71,1.9,1.76c0,1.05-0.84,1.74-1.9,1.74c-1.05,0-1.9-0.7-1.9-1.74
			C90.25,68.89,91.09,68.18,92.14,68.18z M92.15,70.75c0.41,0,0.76-0.3,0.76-0.81c0-0.51-0.35-0.83-0.76-0.83
			c-0.41,0-0.76,0.32-0.76,0.83C91.39,70.44,91.74,70.75,92.15,70.75z"/>
		<path class="st0" d="M94.63,68.26h1.08v0.29c0,0.11-0.01,0.21-0.01,0.21h0.01c0.16-0.23,0.47-0.58,0.99-0.58
			c0.42,0,0.76,0.19,0.94,0.57h0.01c0.18-0.28,0.57-0.57,1.07-0.57c0.61,0,1.09,0.33,1.09,1.25v2.17h-1.12v-1.98
			c0-0.25-0.04-0.42-0.26-0.42c-0.36,0-0.55,0.26-0.62,0.63c-0.03,0.12-0.03,0.25-0.03,0.39v1.38h-1.12v-1.98
			c0-0.25-0.05-0.42-0.26-0.42c-0.35,0-0.53,0.25-0.61,0.6c-0.03,0.12-0.03,0.27-0.03,0.42v1.38h-1.12V68.26z"/>
	</g>
	<g>
		<path class="st0" d="M116.69,55.61c0,0-0.57,0.65-1.5,0.65c-0.9,0-1.56-0.67-1.56-1.48c0-1.02,0.88-1.36,1.48-1.4l-1.42-1.63
			v-0.31h2.77v0.42h-1.78c-0.25,0-0.38-0.02-0.38-0.02v0.01c0,0,0.12,0.12,0.25,0.26l1.19,1.39l-0.11,0.28h-0.32
			c-0.62,0-1.19,0.34-1.19,1.01c0,0.61,0.52,1.03,1.09,1.03c0.73,0,1.21-0.56,1.21-0.56L116.69,55.61z"/>
	</g>
	<g>
		<path class="st0" d="M146.45,72.36c-0.79,0-0.79,0-0.81,0.83c-0.06-0.05-0.09-0.07-0.11-0.09c-1.04-1.35-3.13-0.97-3.89,0.42
			c-0.48,0.87-0.55,1.79-0.3,2.75c0.39,1.45,1.62,2.21,3.05,1.91c0.49-0.1,0.88-0.4,1.26-0.75c0.1,1.13-0.36,1.91-1.23,2.14
			c-0.52,0.14-0.99-0.02-1.47-0.24c-0.31-0.14-0.52-0.61-0.85-0.48c-0.3,0.12-0.49,0.51-0.75,0.74c-0.22,0.2-0.15,0.32,0.03,0.47
			c0.85,0.76,1.84,1.1,2.96,1.01c1.38-0.11,2.28-0.87,2.67-2.22c0.15-0.52,0.21-1.05,0.21-1.6c0-1.37,0-2.73,0-4.1
			C147.24,72.36,147.24,72.36,146.45,72.36 M145.32,76.31c-0.48,0.67-1.4,0.76-1.97,0.19c-0.61-0.61-0.65-1.82-0.07-2.45
			c0.26-0.29,0.59-0.43,0.92-0.42c0.89,0,1.51,0.75,1.44,1.68C145.62,75.66,145.54,76,145.32,76.31"/>
		<path class="st0" d="M122.92,78.54c-0.67-0.08-1.26-0.33-1.53-1.04c-0.1-0.27-0.08-0.48,0.14-0.71c0.89-0.9,1.76-1.83,2.64-2.76
			c0.77-0.8,1.54-1.61,2.36-2.47c-1.96-0.17-3.83-0.01-5.69,0.22c-0.16,0.02-0.25,0.11-0.33,0.24c-0.41,0.67-0.69,1.39-0.77,2.18
			c-0.23,2.11,0.48,3.84,2.19,5.06c1.7,1.21,3.53,1.28,5.39,0.35c0.57-0.29,1.06-0.68,1.51-1.24c-0.45,0.05-0.84,0.09-1.22,0.13
			C126.05,78.65,124.49,78.72,122.92,78.54"/>
		<path class="st0" d="M123.13,69.9c-0.73,0.27-1.38,0.68-1.96,1.3c0.83-0.07,1.59-0.14,2.35-0.19c1.19-0.07,2.38-0.09,3.56,0.1
			c0.6,0.1,1.08,0.39,1.32,1c0.1,0.27,0.08,0.48-0.14,0.7c-0.89,0.9-1.76,1.83-2.64,2.75c-0.77,0.81-1.54,1.61-2.32,2.43
			c0.16,0.11,0.32,0.08,0.47,0.08c1.75,0.08,3.49-0.04,5.22-0.27c0.23-0.03,0.36-0.12,0.46-0.32c1.06-1.93,0.84-4.35-0.57-6.05
			C127.48,69.77,125.17,69.15,123.13,69.9"/>
		<path class="st0" d="M151.84,72.32c-0.79-0.17-1.51,0.03-2.15,0.65c0-0.78-0.01-1.49,0.01-2.21c0.01-0.28-0.08-0.35-0.34-0.33
			c-0.32,0.02-0.64,0.03-0.95,0c-0.28-0.02-0.32,0.09-0.32,0.35c0.01,2.16,0.01,4.31,0.01,6.47c0,0.29-0.1,0.67,0.05,0.83
			c0.17,0.2,0.56,0.06,0.85,0.06c0.67,0.01,0.67,0,0.73-0.69c1.03,1.15,2.52,0.94,3.44-0.1c0.47-0.54,0.71-1.17,0.78-1.88
			C154.07,73.97,153.19,72.6,151.84,72.32 M152.37,75.59c-0.17,0.82-0.77,1.34-1.47,1.26c-0.76-0.08-1.26-0.74-1.27-1.64
			c0-1.11,0.82-1.83,1.78-1.55C152.12,73.86,152.55,74.73,152.37,75.59"/>
		<path class="st0" d="M158.25,72.39c-1.23-0.33-2.34-0.05-3.17,0.94c-0.77,0.92-0.88,2.01-0.43,3.1c0.78,1.9,3.19,2.39,4.86,1.03
			c0.25-0.21,0.28-0.35,0.03-0.56c-0.16-0.13-0.31-0.3-0.44-0.47c-0.16-0.21-0.26-0.19-0.46-0.03c-0.76,0.65-1.65,0.63-2.28-0.04
			c1.22-0.39,2.39-0.79,3.57-1.14c0.34-0.1,0.39-0.27,0.32-0.57C160.01,73.51,159.39,72.69,158.25,72.39 M155.99,75.22
			c-0.12-0.58,0.25-1.19,0.88-1.45c0.72-0.3,1.41-0.1,1.83,0.56C157.79,74.63,156.89,74.93,155.99,75.22"/>
		<path class="st0" d="M166.52,74.41c-0.46-1.8-2.14-2.45-3.65-2.03c-1.61,0.44-2.5,2.13-2,3.76c0.59,1.94,2.88,2.71,4.66,1.55
			c0.66-0.43,0.66-0.43,0.14-0.99c-0.14-0.15-0.25-0.37-0.42-0.42c-0.19-0.06-0.3,0.21-0.47,0.3c-0.22,0.12-0.44,0.23-0.68,0.28
			c-0.53,0.1-1,0-1.36-0.44c0.04-0.1,0.12-0.09,0.18-0.11c1.05-0.34,2.1-0.68,3.16-1.03C166.69,75.07,166.69,75.07,166.52,74.41
			 M164.81,74.42c-0.84,0.26-1.67,0.54-2.51,0.81c-0.03-0.68,0.28-1.19,0.9-1.45c0.62-0.27,1.27-0.14,1.69,0.32
			C165.03,74.26,165.06,74.34,164.81,74.42"/>
		<path class="st0" d="M138.08,76.79c-0.78,0.01-1.56,0.01-2.34,0c-0.08,0-0.19,0.06-0.26-0.07c0.83-0.96,1.66-1.92,2.5-2.88
			c0.09-0.11,0.19-0.2,0.19-0.37c-0.01-0.3-0.01-0.6,0-0.9c0.01-0.16-0.05-0.21-0.2-0.21c-1.39,0-2.78,0-4.18,0
			c-0.15,0-0.21,0.05-0.21,0.21c0.01,0.29,0.02,0.58,0,0.86c-0.02,0.25,0.08,0.29,0.3,0.29c0.69-0.01,1.39-0.01,2.17-0.01
			c-0.71,0.83-1.33,1.63-2.04,2.34c-0.51,0.52-0.7,1.08-0.64,1.79c0.02,0.25,0.09,0.29,0.31,0.29c1.2-0.01,2.41,0,3.61-0.01
			c0.34,0,0.81,0.16,0.98-0.06c0.17-0.23,0.04-0.69,0.06-1.05C138.33,76.83,138.25,76.79,138.08,76.79"/>
		<path class="st0" d="M140.36,72.36c-0.37,0.01-0.73,0.02-1.09,0c-0.22-0.01-0.28,0.06-0.28,0.28c0.01,0.87,0.01,1.75,0.01,2.62
			c0,0.86,0.01,1.72-0.01,2.59c-0.01,0.25,0.07,0.31,0.3,0.3c0.36-0.02,0.73-0.01,1.1,0c0.17,0,0.22-0.06,0.22-0.23
			c-0.01-1.77-0.01-3.54,0-5.31C140.6,72.42,140.54,72.36,140.36,72.36"/>
	</g>
</g>
<g id="Outer_cuts">
	<g>
		<path class="st2" d="M198.48,186.48l-11.88,11.88"/>
		<polyline class="st2" points="186.6,0 198.48,11.88 198.48,22.92 		"/>
		<line class="st2" x1="51.6" y1="161.76" x2="48" y2="165.36"/>
		<line class="st2" x1="165.36" y1="47.88" x2="161.76" y2="51.48"/>
		<line class="st2" x1="166.32" y1="56.04" x2="169.92" y2="52.44"/>
		<line class="st2" x1="52.56" y1="169.92" x2="56.16" y2="166.32"/>
		<line class="st2" x1="130.44" y1="163.08" x2="130.44" y2="150.12"/>
		<line class="st2" x1="193.32" y1="55.32" x2="198.48" y2="55.32"/>
		<line class="st2" x1="0" y1="55.32" x2="5.16" y2="55.32"/>
		<line class="st2" x1="143.16" y1="193.32" x2="143.16" y2="198.36"/>
		<line class="st2" x1="143.16" y1="0" x2="143.16" y2="5.16"/>
		<line class="st2" x1="142.32" y1="32.04" x2="166.32" y2="56.04"/>
		<line class="st2" x1="5.16" y1="22.92" x2="0" y2="22.92"/>
		<line class="st2" x1="198.48" y1="22.92" x2="193.32" y2="22.92"/>
		<line class="st2" x1="166.32" y1="142.32" x2="142.32" y2="166.32"/>
		<line class="st2" x1="175.44" y1="5.16" x2="175.44" y2="0"/>
		<line class="st2" x1="175.44" y1="198.36" x2="175.44" y2="193.32"/>
		<line class="st2" x1="150.72" y1="39.72" x2="158.76" y2="47.76"/>
		<line class="st2" x1="160.92" y1="45.84" x2="152.64" y2="37.56"/>
		<line class="st2" x1="169.92" y1="52.44" x2="145.92" y2="28.44"/>
		<line class="st2" x1="158.76" y1="150.72" x2="150.72" y2="158.76"/>
		<line class="st2" x1="160.92" y1="152.64" x2="152.64" y2="160.8"/>
		<line class="st2" x1="145.92" y1="169.92" x2="169.92" y2="145.92"/>
		<line class="st2" x1="143.16" y1="5.16" x2="175.44" y2="5.16"/>
		<line class="st2" x1="23.04" y1="5.16" x2="55.32" y2="5.16"/>
		<line class="st2" x1="193.32" y1="143.16" x2="193.32" y2="175.44"/>
		<line class="st2" x1="193.32" y1="22.92" x2="193.32" y2="55.32"/>
		<line class="st2" x1="198.48" y1="175.44" x2="198.48" y2="186.48"/>
		<polyline class="st2" points="198.48,143.16 198.48,55.32 198.48,143.16 		"/>
		<line class="st2" x1="45.84" y1="37.56" x2="47.76" y2="39.72"/>
		<line class="st2" x1="158.4" y1="150.36" x2="158.76" y2="150.72"/>
		<line class="st2" x1="47.76" y1="39.72" x2="48.12" y2="40.08"/>
		<line class="st2" x1="158.52" y1="150.24" x2="160.92" y2="152.64"/>
		<line class="st2" x1="45.84" y1="37.56" x2="48.24" y2="39.96"/>
		<line class="st2" x1="160.32" y1="148.44" x2="163.92" y2="152.04"/>
		<line class="st2" x1="46.44" y1="34.56" x2="50.04" y2="38.16"/>
		<line class="st2" x1="158.76" y1="150.72" x2="160.8" y2="152.64"/>
		<line class="st2" x1="160.8" y1="45.72" x2="158.76" y2="47.76"/>
		<line class="st2" x1="48.12" y1="158.28" x2="47.76" y2="158.76"/>
		<line class="st2" x1="158.76" y1="47.76" x2="158.4" y2="48.12"/>
		<line class="st2" x1="48.24" y1="158.4" x2="45.84" y2="160.8"/>
		<line class="st2" x1="160.92" y1="45.84" x2="158.52" y2="48.24"/>
		<line class="st2" x1="50.04" y1="160.2" x2="46.44" y2="163.8"/>
		<line class="st2" x1="163.92" y1="46.32" x2="160.32" y2="50.04"/>
		<line class="st2" x1="47.76" y1="158.76" x2="45.84" y2="160.8"/>
		<line class="st2" x1="161.76" y1="146.88" x2="165.36" y2="150.48"/>
		<line class="st2" x1="48" y1="33.12" x2="51.6" y2="36.72"/>
		<line class="st2" x1="56.16" y1="32.04" x2="52.56" y2="28.44"/>
		<line class="st2" x1="169.92" y1="145.92" x2="166.32" y2="142.32"/>
		<line class="st2" x1="68.04" y1="150.12" x2="68.04" y2="163.08"/>
		<line class="st2" x1="142.32" y1="166.32" x2="145.92" y2="169.92"/>
		<line class="st2" x1="28.56" y1="52.44" x2="32.16" y2="56.04"/>
		<line class="st2" x1="32.16" y1="142.32" x2="28.56" y2="145.92"/>
		<line class="st2" x1="145.92" y1="28.44" x2="142.32" y2="32.04"/>
		<line class="st2" x1="152.76" y1="160.8" x2="150.72" y2="158.76"/>
		<line class="st2" x1="36.72" y1="51.48" x2="33.12" y2="47.88"/>
		<line class="st2" x1="150.6" y1="165.36" x2="147" y2="161.76"/>
		<line class="st2" x1="38.28" y1="50.04" x2="34.68" y2="46.32"/>
		<line class="st2" x1="152.04" y1="163.8" x2="148.44" y2="160.2"/>
		<line class="st2" x1="152.64" y1="160.8" x2="150.24" y2="158.4"/>
		<line class="st2" x1="150.72" y1="158.76" x2="150.36" y2="158.28"/>
		<line class="st2" x1="40.08" y1="48.12" x2="37.68" y2="45.72"/>
		<line class="st2" x1="37.68" y1="152.64" x2="39.72" y2="150.72"/>
		<line class="st2" x1="147" y1="36.72" x2="150.6" y2="33.12"/>
		<line class="st2" x1="33.12" y1="150.48" x2="36.72" y2="146.88"/>
		<line class="st2" x1="148.44" y1="38.16" x2="152.04" y2="34.56"/>
		<line class="st2" x1="34.68" y1="152.04" x2="38.28" y2="148.44"/>
		<line class="st2" x1="150.24" y1="39.96" x2="152.64" y2="37.56"/>
		<line class="st2" x1="37.68" y1="152.64" x2="40.08" y2="150.24"/>
		<line class="st2" x1="150.36" y1="40.08" x2="150.72" y2="39.72"/>
		<line class="st2" x1="39.72" y1="150.72" x2="40.08" y2="150.36"/>
		<line class="st2" x1="150.72" y1="39.72" x2="152.76" y2="37.56"/>
		<line class="st2" x1="12" y1="198.36" x2="0" y2="186.48"/>
		<line class="st2" x1="0" y1="11.88" x2="12" y2="0"/>
		<line class="st2" x1="55.32" y1="193.32" x2="23.04" y2="193.32"/>
		<line class="st2" x1="175.44" y1="193.32" x2="143.16" y2="193.32"/>
		<line class="st2" x1="0" y1="22.92" x2="0" y2="11.88"/>
		<line class="st2" x1="0" y1="143.16" x2="0" y2="55.32"/>
		<line class="st2" x1="0" y1="186.48" x2="0" y2="175.44"/>
		<line class="st2" x1="5.16" y1="55.32" x2="5.16" y2="22.92"/>
		<line class="st2" x1="5.16" y1="175.44" x2="5.16" y2="143.16"/>
		<line class="st2" x1="28.56" y1="145.92" x2="52.56" y2="169.92"/>
		<line class="st2" x1="45.84" y1="160.8" x2="37.68" y2="152.64"/>
		<line class="st2" x1="52.56" y1="28.44" x2="28.56" y2="52.44"/>
		<line class="st2" x1="37.68" y1="45.72" x2="45.84" y2="37.56"/>
		<line class="st2" x1="47.76" y1="158.76" x2="39.72" y2="150.72"/>
		<line class="st2" x1="56.16" y1="166.32" x2="32.16" y2="142.32"/>
		<line class="st2" x1="193.32" y1="175.44" x2="198.48" y2="175.44"/>
		<line class="st2" x1="0" y1="175.44" x2="5.16" y2="175.44"/>
		<line class="st2" x1="39.72" y1="47.64" x2="47.76" y2="39.72"/>
		<line class="st2" x1="32.16" y1="56.04" x2="56.16" y2="32.04"/>
		<line class="st2" x1="23.04" y1="193.32" x2="23.04" y2="198.36"/>
		<line class="st2" x1="23.04" y1="0" x2="23.04" y2="5.16"/>
		<line class="st2" x1="71.16" y1="166.2" x2="127.32" y2="166.2"/>
		<line class="st2" x1="127.32" y1="147" x2="71.16" y2="147"/>
		<line class="st2" x1="5.16" y1="143.16" x2="0" y2="143.16"/>
		<line class="st2" x1="198.48" y1="143.16" x2="193.32" y2="143.16"/>
		<line class="st2" x1="55.32" y1="5.16" x2="55.32" y2="0"/>
		<line class="st2" x1="55.32" y1="198.36" x2="55.32" y2="193.32"/>
		<polyline class="st2" points="107.88,20.52 109.2,21.96 110.76,23.16 112.56,23.76 114.48,24.12 116.4,24 118.32,23.4 
			119.88,22.44 121.32,21.12 122.4,19.56 123.12,17.76 123.36,15.84 123.12,13.92 122.52,12.12 121.56,10.44 120.24,9 118.56,8.04 
			116.76,7.32 114.84,7.08 112.92,7.32 111.12,7.92 109.56,9 		"/>
		<polygon class="st2" points="180,12.72 180.24,14.28 180.84,15.6 181.68,16.8 182.88,17.64 184.2,18.24 185.76,18.48 187.2,18.24 
			188.52,17.64 189.72,16.8 190.56,15.6 191.16,14.28 191.4,12.72 191.16,11.28 190.56,9.96 189.72,8.76 188.52,7.8 187.2,7.32 
			185.76,7.08 184.2,7.32 182.88,7.8 181.68,8.76 180.84,9.96 180.24,11.28 		"/>
		<polyline class="st2" points="187.68,82.56 187.2,81.12 186.24,79.92 184.92,78.96 183.48,78.6 181.92,78.6 180.48,79.08 
			179.16,80.04 178.32,81.36 177.84,82.8 177.96,84.36 		"/>
		<polyline class="st2" points="107.52,9.6 108.6,9.48 109.56,9 		"/>
		<polyline class="st2" points="107.88,20.52 107.04,19.8 105.84,19.44 		"/>
		<polyline class="st2" points="177.84,107.88 176.4,109.2 175.32,110.76 174.6,112.56 174.36,114.48 174.48,116.4 175.08,118.2 
			176.04,119.88 177.36,121.32 178.92,122.4 180.72,123 182.64,123.24 184.56,123.12 186.36,122.52 188.04,121.56 189.48,120.12 
			190.44,118.56 191.16,116.76 191.4,114.84 191.16,112.92 190.56,111.12 189.48,109.44 		"/>
		<polygon class="st2" points="114.84,156.6 115.08,158.16 115.68,159.6 116.64,160.8 117.84,161.76 119.28,162.36 120.84,162.6 
			122.4,162.36 123.84,161.76 125.04,160.8 126,159.6 126.6,158.16 126.84,156.6 126.6,155.04 126,153.6 125.04,152.4 
			123.84,151.44 122.4,150.84 120.84,150.6 119.28,150.84 117.84,151.44 116.64,152.4 115.68,153.6 115.08,155.04 		"/>
		<polygon class="st2" points="100.44,156.6 100.68,158.16 101.28,159.6 102.24,160.8 103.44,161.76 104.88,162.36 106.44,162.6 
			108,162.36 109.44,161.76 110.64,160.8 111.6,159.6 112.2,158.16 112.44,156.6 112.2,155.04 111.6,153.6 110.64,152.4 
			109.44,151.44 108,150.84 106.44,150.6 104.88,150.84 103.44,151.44 102.24,152.4 101.28,153.6 100.68,155.04 		"/>
		<polygon class="st2" points="180,185.64 180.24,187.08 180.84,188.52 181.68,189.6 182.88,190.56 184.2,191.16 185.76,191.28 
			187.2,191.16 188.52,190.56 189.72,189.6 190.56,188.52 191.16,187.08 191.4,185.64 191.16,184.2 190.56,182.76 189.72,181.68 
			188.52,180.72 187.2,180.12 185.76,180 184.2,180.12 182.88,180.72 181.68,181.68 180.84,182.76 180.24,184.2 		"/>
		<polygon class="st2" points="115.44,156.6 115.68,158.04 116.16,159.24 117,160.44 118.2,161.28 119.4,161.76 120.84,162 
			122.28,161.76 123.6,161.28 124.68,160.44 125.52,159.24 126,158.04 126.24,156.6 126,155.16 125.52,153.96 124.68,152.76 
			123.6,151.92 122.28,151.44 120.84,151.2 119.4,151.44 118.2,151.92 117,152.76 116.16,153.96 115.68,155.16 		"/>
		<polygon class="st2" points="101.04,156.6 101.28,158.04 101.76,159.24 102.6,160.44 103.8,161.28 105,161.76 106.44,162 
			107.88,161.76 109.2,161.28 110.28,160.44 111.12,159.24 111.6,158.04 111.84,156.6 111.6,155.16 111.12,153.96 110.28,152.76 
			109.2,151.92 107.88,151.44 106.44,151.2 105,151.44 103.8,151.92 102.6,152.76 101.76,153.96 101.28,155.16 		"/>
		<polyline class="st2" points="115.92,187.68 117.36,187.08 118.56,186.12 119.52,184.92 119.88,183.36 119.88,181.8 
			119.28,180.36 118.44,179.16 117.12,178.32 115.56,177.84 114.12,177.84 		"/>
		<polyline class="st2" points="127.32,166.2 128.52,165.96 129.6,165.36 130.2,164.28 130.44,163.08 		"/>
		<polyline class="st2" points="130.44,150.12 130.2,148.92 129.6,147.84 128.52,147.24 127.32,147 		"/>
		<polyline class="st2" points="188.88,107.4 189,108.48 189.48,109.44 		"/>
		<polyline class="st2" points="177.84,107.88 178.68,107.04 179.04,105.84 		"/>
		<polyline class="st2" points="82.56,10.8 81.12,11.28 79.92,12.24 79.08,13.56 78.6,15 78.6,16.56 79.2,18 80.16,19.2 
			81.36,20.16 82.92,20.52 84.48,20.52 		"/>
		<polygon class="st2" points="7.08,12.72 7.32,14.28 7.92,15.6 8.76,16.8 9.96,17.64 11.28,18.24 12.84,18.48 14.28,18.24 
			15.6,17.64 16.8,16.8 17.76,15.6 18.24,14.28 18.48,12.72 18.24,11.28 17.76,9.96 16.8,8.76 15.6,7.8 14.28,7.32 12.84,7.08 
			11.28,7.32 9.96,7.8 8.76,8.76 7.92,9.96 7.32,11.28 		"/>
		<polyline class="st2" points="20.64,90.48 22.08,89.28 23.16,87.6 23.88,85.8 24.12,84 24,82.08 23.4,80.16 22.44,78.48 
			21.12,77.16 19.56,76.08 17.76,75.36 15.84,75.12 13.92,75.24 12.12,75.84 10.44,76.92 9.12,78.24 8.04,79.8 7.44,81.6 7.2,83.52 
			7.32,85.44 8.04,87.36 9,88.92 		"/>
		<polyline class="st2" points="9.6,90.96 9.48,89.88 9,88.92 		"/>
		<polyline class="st2" points="20.64,90.48 19.8,91.44 19.44,92.64 		"/>
		<polyline class="st2" points="9.6,90.96 9.24,97.2 9.36,103.44 9.84,109.68 10.8,115.8 		"/>
		<polyline class="st2" points="107.52,9.6 101.28,9.24 95.04,9.36 88.8,9.84 82.56,10.8 		"/>
		<polyline class="st2" points="188.88,107.4 189.24,101.16 189.12,94.92 188.64,88.68 187.68,82.56 		"/>
		<polyline class="st2" points="90.96,188.76 97.2,189.12 103.44,189.12 109.68,188.52 115.92,187.68 		"/>
		<polyline class="st2" points="19.44,92.64 19.2,97.92 19.32,103.32 19.8,108.72 20.52,114 		"/>
		<polyline class="st2" points="105.84,19.44 100.44,19.2 95.16,19.2 89.76,19.68 84.48,20.52 		"/>
		<polyline class="st2" points="179.04,105.84 179.28,100.44 179.16,95.04 178.8,89.76 177.96,84.36 		"/>
		<polyline class="st2" points="92.64,179.04 98.04,179.28 103.44,179.16 108.72,178.68 114.12,177.84 		"/>
		<polygon class="st2" points="87.6,90.6 87.6,107.76 89.28,109.68 91.2,111.12 93.24,112.32 95.64,113.16 98.04,113.64 
			100.44,113.64 102.84,113.16 105.24,112.32 107.4,111.12 109.2,109.68 110.88,107.76 110.88,90.6 109.2,88.8 107.4,87.24 
			105.24,86.04 102.84,85.2 100.44,84.84 98.04,84.84 95.64,85.2 93.24,86.04 91.2,87.24 89.28,88.8 		"/>
		<polygon class="st2" points="93.6,99.24 93.72,100.68 94.32,102 95.28,103.2 96.36,104.16 97.8,104.64 99.24,104.88 
			100.68,104.64 102.12,104.16 103.32,103.2 104.16,102 104.76,100.68 104.88,99.24 104.76,97.68 104.16,96.36 103.32,95.16 
			102.12,94.32 100.68,93.72 99.24,93.48 97.8,93.72 96.36,94.32 95.28,95.16 94.32,96.36 93.72,97.68 		"/>
		<polyline class="st2" points="90.6,177.84 89.28,176.4 87.72,175.32 85.92,174.6 84,174.24 82.08,174.48 80.28,174.96 
			78.6,175.92 77.16,177.24 76.08,178.92 75.48,180.72 75.12,182.64 75.36,184.56 75.96,186.36 76.92,188.04 78.24,189.36 
			79.92,190.44 81.72,191.04 83.64,191.28 85.56,191.04 87.36,190.44 89.04,189.48 		"/>
		<polygon class="st2" points="86.04,156.6 86.28,158.16 86.88,159.6 87.84,160.8 89.04,161.76 90.48,162.36 92.04,162.6 
			93.6,162.36 95.04,161.76 96.24,160.8 97.2,159.6 97.8,158.16 98.04,156.6 97.8,155.04 97.2,153.6 96.24,152.4 95.04,151.44 
			93.6,150.84 92.04,150.6 90.48,150.84 89.04,151.44 87.84,152.4 86.88,153.6 86.28,155.04 		"/>
		<polygon class="st2" points="71.64,156.6 71.88,158.16 72.48,159.6 73.44,160.8 74.64,161.76 76.08,162.36 77.64,162.6 
			79.2,162.36 80.64,161.76 81.84,160.8 82.8,159.6 83.4,158.16 83.64,156.6 83.4,155.04 82.8,153.6 81.84,152.4 80.64,151.44 
			79.2,150.84 77.64,150.6 76.08,150.84 74.64,151.44 73.44,152.4 72.48,153.6 71.88,155.04 		"/>
		<polygon class="st2" points="86.64,156.6 86.88,158.04 87.36,159.24 88.2,160.44 89.4,161.28 90.6,161.76 92.04,162 93.48,161.76 
			94.8,161.28 95.88,160.44 96.72,159.24 97.2,158.04 97.44,156.6 97.2,155.16 96.72,153.96 95.88,152.76 94.8,151.92 93.48,151.44 
			92.04,151.2 90.6,151.44 89.4,151.92 88.2,152.76 87.36,153.96 86.88,155.16 		"/>
		<polygon class="st2" points="72.24,156.6 72.48,158.04 72.96,159.24 73.8,160.44 75,161.28 76.2,161.76 77.64,162 79.08,161.76 
			80.4,161.28 81.48,160.44 82.32,159.24 82.8,158.04 83.04,156.6 82.8,155.16 82.32,153.96 81.48,152.76 80.4,151.92 79.08,151.44 
			77.64,151.2 76.2,151.44 75,151.92 73.8,152.76 72.96,153.96 72.48,155.16 		"/>
		<polyline class="st2" points="71.16,147 69.96,147.24 68.88,147.84 68.28,148.92 68.04,150.12 		"/>
		<polyline class="st2" points="68.04,163.08 68.28,164.28 68.88,165.36 69.96,165.96 71.16,166.2 		"/>
		<polyline class="st2" points="90.96,188.76 89.88,188.88 89.04,189.48 		"/>
		<polyline class="st2" points="90.6,177.84 91.44,178.68 92.64,179.04 		"/>
		<polyline class="st2" points="10.8,115.8 11.28,117.36 12.24,118.56 13.56,119.4 15,119.88 16.56,119.76 18.12,119.28 
			19.32,118.32 20.16,117 20.64,115.56 20.52,114 		"/>
		<polygon class="st2" points="7.08,185.64 7.32,187.08 7.92,188.52 8.76,189.6 9.96,190.56 11.28,191.16 12.84,191.28 
			14.28,191.16 15.6,190.56 16.8,189.6 17.76,188.52 18.24,187.08 18.48,185.64 18.24,184.2 17.76,182.76 16.8,181.68 15.6,180.72 
			14.28,180.12 12.84,180 11.28,180.12 9.96,180.72 8.76,181.68 7.92,182.76 7.32,184.2 		"/>
		<line class="st2" x1="74.4" y1="133.14" x2="74.28" y2="133.14"/>
		<polyline class="st2" points="74.64,133.38 76.2,133.38 85.32,133.38 87,133.38 		"/>
		<polyline class="st2" points="74.64,136.26 76.2,136.26 85.32,136.26 87,136.26 		"/>
		<line class="st2" x1="74.28" y1="136.5" x2="74.4" y2="136.5"/>
		<polygon class="st2" points="80.76,141.66 82.56,141.42 84.24,140.7 85.68,139.62 86.76,138.18 87.36,136.62 87.6,134.82 
			87.36,133.02 86.76,131.46 85.68,130.02 84.24,128.94 82.56,128.22 80.76,127.98 79.08,128.22 77.4,128.94 75.96,130.02 
			74.88,131.46 74.28,133.02 74.04,134.82 74.28,136.62 74.88,138.18 75.96,139.62 77.4,140.7 79.08,141.42 		"/>
		<polyline class="st2" points="74.28,136.5 75,138.18 75.96,139.5 77.4,140.58 79.08,141.3 80.76,141.54 82.56,141.3 84.12,140.7 
			85.56,139.62 86.64,138.18 87.36,136.5 87.6,134.82 87.36,133.02 86.64,131.46 85.56,130.02 84.12,128.94 82.56,128.34 
			80.76,128.1 79.08,128.34 77.4,128.94 75.96,130.02 75,131.46 74.28,133.14 		"/>
		<polyline class="st2" points="74.4,133.14 74.28,134.82 74.4,136.5 		"/>
		<polyline class="st2" points="87,136.26 87.12,134.82 87,133.38 		"/>
		<polyline class="st2" points="74.64,133.38 74.4,134.82 74.64,136.26 		"/>
		<polyline class="st2" points="87,133.38 86.4,131.82 85.44,130.38 84.12,129.42 82.44,128.7 80.76,128.46 79.08,128.7 
			77.52,129.42 76.2,130.38 75.24,131.82 74.64,133.38 		"/>
		<polyline class="st2" points="74.64,136.26 75.24,137.82 76.2,139.14 77.52,140.22 79.08,140.94 80.76,141.18 82.44,140.94 
			84.12,140.22 85.44,139.14 86.4,137.82 87,136.26 		"/>
		<polyline class="st2" points="85.32,133.38 84.72,132.06 83.64,130.98 82.32,130.26 80.76,130.02 79.32,130.26 78,130.98 
			76.92,132.06 76.2,133.38 		"/>
		<polyline class="st2" points="76.2,136.26 76.92,137.58 78,138.66 79.32,139.38 80.76,139.62 82.32,139.38 83.64,138.66 
			84.72,137.58 85.32,136.26 		"/>
		<polygon class="st2" points="100.11,138.54 101.2,138.35 102.3,137.85 103.09,137.05 103.69,135.96 103.88,134.77 103.69,133.68 
			103.09,132.58 102.3,131.79 101.2,131.29 100.11,131.09 98.92,131.29 97.92,131.79 97.03,132.58 96.53,133.68 96.34,134.77 
			96.53,135.96 97.03,137.05 97.92,137.85 98.92,138.35 		"/>
		<polygon class="st2" points="119.21,138.72 120.41,138.48 121.61,137.88 122.45,137.04 123.05,135.96 123.17,134.76 
			123.05,133.44 122.45,132.36 121.61,131.52 120.41,130.92 119.21,130.68 118.01,130.92 116.93,131.52 115.97,132.36 
			115.49,133.44 115.25,134.76 115.49,135.96 115.97,137.04 116.93,137.88 118.01,138.48 		"/>
		<polygon class="st2" points="119.21,138.36 120.41,138.24 121.37,137.64 122.21,136.92 122.69,135.84 122.93,134.76 
			122.69,133.56 122.21,132.48 121.37,131.76 120.41,131.16 119.21,131.04 118.13,131.16 117.05,131.76 116.21,132.48 
			115.73,133.56 115.49,134.76 115.73,135.84 116.21,136.92 117.05,137.64 118.13,138.24 		"/>
		<polygon class="st2" points="119.21,137.88 120.41,137.64 121.49,136.92 122.09,135.96 122.33,134.76 122.09,133.56 
			121.49,132.48 120.41,131.76 119.21,131.52 118.01,131.76 117.05,132.48 116.33,133.56 116.09,134.76 116.33,135.96 
			117.05,136.92 118.01,137.64 		"/>
		<polygon class="st2" points="119.21,137.04 120.05,136.8 120.89,136.32 121.37,135.6 121.49,134.76 121.37,133.8 120.89,133.08 
			120.05,132.6 119.21,132.48 118.37,132.6 117.65,133.08 117.17,133.8 116.93,134.76 117.17,135.6 117.65,136.32 118.37,136.8 		
			"/>
		<path class="st2" d="M112.55,136.44l0.72,1.68l0.96,1.32l1.44,1.08l1.68,0.72l1.68,0.24l1.8-0.24l1.56-0.6l1.44-1.08l1.08-1.44
			l0.72-1.68l0.24-1.68l-0.24-1.8l-0.72-1.56l-1.08-1.44l-1.44-1.08l-1.56-0.6l-1.8-0.24l-1.68,0.24l-1.68,0.6l-1.44,1.08
			l-0.96,1.44l-0.72,1.68C112.55,133.08,112.01,135.19,112.55,136.44z"/>
		<path class="st2" d="M93.66,136.56l0.72,1.68l0.96,1.32l1.44,1.08l1.68,0.72l1.68,0.24l1.8-0.24l1.56-0.6l1.44-1.08l1.08-1.44
			l0.72-1.68l0.24-1.68l-0.24-1.8l-0.72-1.56l-1.08-1.44L103.5,129l-1.56-0.6l-1.8-0.24l-1.68,0.24l-1.68,0.6l-1.44,1.08l-0.96,1.44
			l-0.72,1.68C93.66,133.2,93.33,134.88,93.66,136.56z"/>
		<polyline class="st2" points="37.75,65.91 53.23,65.91 54.79,65.91 		"/>
		<line class="st2" x1="55.87" y1="76.11" x2="49.87" y2="76.11"/>
		<line class="st2" x1="55.87" y1="76.11" x2="55.87" y2="84.63"/>
		<line class="st2" x1="55.63" y1="105.87" x2="49.87" y2="105.87"/>
		<line class="st2" x1="41.95" y1="95.67" x2="54.79" y2="95.67"/>
		<line class="st2" x1="41.95" y1="94.83" x2="54.79" y2="94.83"/>
		<line class="st2" x1="55.87" y1="84.63" x2="49.87" y2="84.63"/>
		<polyline class="st2" points="55.63,105.87 55.63,114.39 49.87,114.39 		"/>
		<line class="st2" x1="37.75" y1="124.59" x2="37.75" y2="65.91"/>
		<line class="st2" x1="41.95" y1="65.91" x2="41.95" y2="124.59"/>
		<line class="st2" x1="54.74" y1="124.59" x2="37.75" y2="124.59"/>
		<line class="st2" x1="49.87" y1="94.83" x2="49.87" y2="65.91"/>
		<line class="st2" x1="49.87" y1="124.59" x2="49.87" y2="95.67"/>
		<line class="st2" x1="54.79" y1="76.11" x2="54.79" y2="65.91"/>
		<line class="st2" x1="54.79" y1="94.83" x2="54.79" y2="84.63"/>
		<line class="st2" x1="54.79" y1="105.87" x2="54.79" y2="95.67"/>
		<line class="st2" x1="54.79" y1="124.59" x2="54.79" y2="114.39"/>
		<rect x="37.89" y="65.6" class="st2" width="23.96" height="58.99"/>
		<polygon class="st2" points="85.67,89.11 85.67,109.11 87.63,111.35 89.87,113.03 92.25,114.42 95.04,115.4 97.84,115.96 
			100.64,115.96 103.44,115.4 106.23,114.42 108.75,113.03 110.85,111.35 112.81,109.11 112.81,89.11 110.85,87.01 108.75,85.19 
			106.23,83.8 103.44,82.82 100.64,82.4 97.84,82.4 95.04,82.82 92.25,83.8 89.87,85.19 87.63,87.01 		"/>
		<polygon class="st2" points="119.21,138.12 120.53,137.88 121.61,137.16 122.33,135.96 122.57,134.76 122.33,133.44 
			121.61,132.36 120.53,131.52 119.21,131.28 117.89,131.52 116.81,132.36 116.09,133.44 115.85,134.76 116.09,135.96 
			116.81,137.16 117.89,137.88 		"/>
	</g>
</g>
<g id="Layer_7">
	<polygon class="st3" points="119.21,138.12 120.53,137.88 121.61,137.16 122.33,135.96 122.57,134.76 122.33,133.44 121.61,132.36 
		120.53,131.52 119.21,131.28 117.89,131.52 116.81,132.36 116.09,133.44 115.85,134.76 116.09,135.96 116.81,137.16 117.89,137.88 
			"/>
	<g>
		<g>
			<line class="st4" x1="119.09" y1="123.21" x2="119.09" y2="105.2"/>
			<g>
				<path class="st3" d="M124.19,115.94c-0.25-0.16-0.58-0.08-0.73,0.16l-4.37,6.86l-4.37-6.86c-0.16-0.25-0.49-0.32-0.73-0.16
					c-0.25,0.16-0.32,0.49-0.16,0.73l4.82,7.56c0.1,0.15,0.27,0.25,0.45,0.25s0.35-0.09,0.45-0.25l4.82-7.56
					c0.06-0.09,0.08-0.19,0.08-0.28C124.44,116.22,124.35,116.04,124.19,115.94z"/>
			</g>
		</g>
	</g>
</g>
</svg>
