<?xml version="1.0" encoding="utf-8"?>
<!-- Generator: Adobe Illustrator 24.1.2, SVG Export Plug-In . SVG Version: 6.00 Build 0)  -->
<svg version="1.1" id="Layer_2_1_" xmlns="http://www.w3.org/2000/svg" xmlns:xlink="http://www.w3.org/1999/xlink" x="0px" y="0px"
	 width="156px" height="156px" viewBox="0 0 156 156" style="enable-background:new 0 0 156 156;" xml:space="preserve">
<style type="text/css">
	.st0{fill:none;stroke:#000000;stroke-width:3;stroke-miterlimit:10;}
	.st1{fill:none;stroke:#000000;stroke-width:2;stroke-miterlimit:10;}
	.st2{fill:none;stroke:#000000;stroke-miterlimit:10;}
</style>
<path class="st0" d="M121.4,145.6H35.9c-14.4,0-26-11.6-26-26V34c0-14.4,11.6-26,26-26h85.6c14.4,0,26,11.6,26,26v85.6
	C147.4,134,135.8,145.6,121.4,145.6z"/>
<circle class="st1" cx="78.7" cy="76.8" r="51.4"/>
<circle class="st1" cx="78.7" cy="76.8" r="41.9"/>
<g>
	<g>
		<path class="st2" d="M90.9,72.9H66.4c-2.6,0-4.7-2.1-4.7-4.7v-8.9c0-2.6,2.1-4.7,4.7-4.7h24.5c2.6,0,4.7,2.1,4.7,4.7v8.9
			C95.6,70.8,93.5,72.9,90.9,72.9z"/>
		<rect x="64.8" y="57.8" class="st2" width="27.7" height="11.9"/>
		<rect x="67.4" y="64.3" class="st2" width="22.4" height="3.2"/>
	</g>
	<g>
		<path class="st2" d="M90.9,99H66.4c-2.6,0-4.7-2.1-4.7-4.7v-8.9c0-2.6,2.1-4.7,4.7-4.7h24.5c2.6,0,4.7,2.1,4.7,4.7v8.9
			C95.6,96.9,93.5,99,90.9,99z"/>
		<rect x="64.8" y="83.9" class="st2" width="27.7" height="11.9"/>
		<rect x="67.4" y="90.4" class="st2" width="22.4" height="3.2"/>
	</g>
</g>
<circle class="st2" cx="47.6" cy="76.8" r="5.1"/>
</svg>
