<?xml version="1.0" encoding="utf-8"?>
<!-- Generator: Adobe Illustrator 24.1.2, SVG Export Plug-In . SVG Version: 6.00 Build 0)  -->
<svg version="1.1" id="Layer_2_1_" xmlns="http://www.w3.org/2000/svg" xmlns:xlink="http://www.w3.org/1999/xlink" x="0px" y="0px"
	 width="156px" height="156px" viewBox="0 0 156 156" style="enable-background:new 0 0 156 156;" xml:space="preserve">
<style type="text/css">
	.st0{fill:none;stroke:#000000;stroke-linecap:square;stroke-miterlimit:10;}
	.st1{fill:none;stroke:#000000;stroke-miterlimit:10;}
	.st2{fill:#2580AD;stroke:#000000;stroke-miterlimit:10;}
</style>
<polyline class="st0" points="10.8,16.4 37.5,14.3 38,14.3 69.2,16.2 69.2,128.8 38.3,131 37.9,131 10.8,129 10.8,16.4 "/>
<line class="st1" x1="10.5" y1="33.1" x2="69.3" y2="33.1"/>
<line class="st1" x1="10.6" y1="112.2" x2="69.3" y2="112.2"/>
<line class="st1" x1="38.1" y1="14.3" x2="38.1" y2="85.8"/>
<line class="st1" x1="38.1" y1="131" x2="38.1" y2="91.7"/>
<circle class="st2" cx="38" cy="88.7" r="3.1"/>
<circle class="st1" cx="38" cy="88.7" r="9.5"/>
<rect x="69.2" y="20.7" class="st1" width="2.6" height="104.2"/>
<rect x="71.8" y="16.1" class="st1" width="36.4" height="53.5"/>
<line class="st1" x1="71.8" y1="21.9" x2="108" y2="21.9"/>
<line class="st1" x1="71.8" y1="35.3" x2="108" y2="35.3"/>
<line class="st1" x1="71.8" y1="42.8" x2="108" y2="42.8"/>
<line class="st1" x1="71.8" y1="63.8" x2="108" y2="63.8"/>
<path class="st1" d="M108.2,38.1h34.1c0,0,5.7-0.5,5.7,4.7s-5.5,5-5.7,5c-0.2,0.1-34.1,0.1-34.1,0.1"/>
</svg>
